<svg width="512" height="512" viewBox="0 0 512 512" fill="none" xmlns="http://www.w3.org/2000/svg">
<path d="M510.678 112.275C508.37 100.649 503.215 90.01 496.016 81.221C494.498 79.306 492.912 77.591 491.193 75.876C478.438 63.058 460.536 55.062 440.979 55.062H71.021C51.464 55.062 33.626 63.058 20.811 75.876C19.096 77.591 17.51 79.306 15.988 81.221C8.785 90.009 3.63 100.649 1.386 112.275C0.464 116.762 0 121.399 0 126.087V385.92C0 395.888 2.114 405.47 5.884 414.123C9.381 422.383 14.537 429.857 20.81 436.124C22.4 437.71 23.979 439.168 25.702 440.618C37.988 450.793 53.847 456.938 71.021 456.938H440.979C458.159 456.938 474.087 450.793 486.302 440.554C488.02 439.168 489.607 437.71 491.193 436.124C497.463 429.857 502.618 422.383 506.187 414.123V414.059C509.956 405.406 511.999 395.888 511.999 385.921V126.087C512 121.399 511.543 116.762 510.678 112.275ZM46.509 101.571C52.854 95.233 61.375 91.396 71.021 91.396H440.979C450.625 91.396 459.221 95.233 465.491 101.571C466.613 102.7 467.67 103.958 468.603 105.208L274.696 274.203C269.348 278.89 262.742 281.205 256 281.205C249.326 281.205 242.724 278.89 237.305 274.203L43.472 105.136C44.33 103.886 45.387 102.7 46.509 101.571ZM36.334 385.92V142.735L176.658 265.15L36.405 387.435C36.334 386.971 36.334 386.449 36.334 385.92ZM440.979 420.597H71.021C64.74 420.597 58.863 418.946 53.847 416.045L201.825 287.086L215.64 299.104C227.201 309.15 241.668 314.238 256 314.238C270.406 314.238 284.872 309.15 296.432 299.104L310.24 287.086L458.16 416.045C453.137 418.946 447.26 420.597 440.979 420.597ZM475.666 385.92C475.666 386.449 475.666 386.971 475.598 387.435L335.346 265.221L475.666 142.8V385.92Z" fill="#229C9A"/>
</svg>
