<svg width="25" height="24" viewBox="0 0 25 24" fill="none" xmlns="http://www.w3.org/2000/svg">
<path d="M14.5 2H6.5C5.4 2 4.5 2.9 4.5 4V20C4.5 21.1 5.39 22 6.49 22H18.5C19.6 22 20.5 21.1 20.5 20V8L14.5 2ZM18.5 20H6.5V4H13.5V9H18.5V20Z" fill="#229C9A"/>
<path d="M9.53 11.03C8.16 12.4 8.16 14.61 9.53 15.98C10.65 17.1 12.33 17.29 13.66 16.57L15.54 18.45L16.95 17.04L15.07 15.16C15.78 13.83 15.6 12.15 14.48 11.03C13.11 9.66 10.89 9.66 9.53 11.03ZM13.06 14.56C12.47 15.15 11.52 15.15 10.94 14.56C10.35 13.97 10.35 13.02 10.94 12.44C11.53 11.85 12.48 11.85 13.06 12.44C13.65 13.03 13.65 13.97 13.06 14.56Z" fill="#229C9A"/>
</svg>
