<svg xmlns="http://www.w3.org/2000/svg" width="13.833" height="8.015" viewBox="0 0 13.833 8.015">
  <path id="chevron_right_FILL0_wght400_GRAD200_opsz48" d="M338.816,351a1.124,1.124,0,0,1-.322-.777,1.025,1.025,0,0,1,.322-.747l5.04-5.07-5.069-5.07a.939.939,0,0,1-.308-.762,1.028,1.028,0,0,1,.337-.762.939.939,0,0,1,.747-.337,1.081,1.081,0,0,1,.747.337l5.861,5.861a1.159,1.159,0,0,1,.234.337.934.934,0,0,1,.088.4,1,1,0,0,1-.088.425,1.159,1.159,0,0,1-.234.337L340.34,351a.992.992,0,0,1-.762.308A1.155,1.155,0,0,1,338.816,351Z" transform="translate(351.313 -338.478) rotate(90)" fill="#333"/>
</svg>
