<svg width="512" height="512" viewBox="0 0 512 512" fill="none" xmlns="http://www.w3.org/2000/svg">
<g clip-path="url(#clip0_132_5993)">
<path d="M100.21 96.593C93.372 89.729 89.193 80.413 89.184 69.963C89.193 59.513 93.373 50.197 100.21 43.333C107.084 36.486 116.399 32.306 126.85 32.297H438.96V0.009L126.849 0C88.21 0.018 56.905 31.314 56.896 69.963V442.047C56.905 480.686 88.21 511.991 126.85 512.001H455.105V107.62H126.849C116.399 107.62 107.083 103.44 100.21 96.593ZM165.281 139.916H422.817V479.703H165.281V139.916Z" fill="#229C9A"/>
<path d="M143.749 56.125C136.11 56.125 129.911 62.323 129.911 69.963C129.911 77.603 136.11 83.8 143.749 83.8H455.104V56.125H143.749Z" fill="#229C9A"/>
</g>
<defs>
<clipPath id="clip0_132_5993">
<rect width="512" height="512" fill="white"/>
</clipPath>
</defs>
</svg>
