<svg width="40" height="40" viewBox="0 0 40 40" fill="none" xmlns="http://www.w3.org/2000/svg">
<circle cx="20" cy="20" r="19.5" fill="#229C9A" stroke="#EBEBEB"/>
<path d="M14.79 24.03H13.21C13.04 23.69 12.86 23.4 12.57 22.96L9.99 19.07C9.8 18.77 9.55 18.34 9.31 17.87C9.32 18.01 9.32 18.01 9.35 18.38C9.36 18.57 9.38 19.02 9.38 19.25V22.53C9.38 23.2 9.41 23.67 9.46 24.03H8C8.05 23.7 8.08 23.2 8.08 22.52V17.36C8.08 16.84 8.06 16.48 8 16.07H9.56C9.65 16.32 9.83 16.62 10.17 17.13L12.7 20.94C12.94 21.3 13.26 21.82 13.48 22.22C13.44 21.83 13.41 21.23 13.41 20.81V17.45C13.41 16.86 13.39 16.45 13.33 16.07H14.79C14.73 16.47 14.71 16.84 14.71 17.45V22.74C14.71 23.3 14.73 23.68 14.79 24.03Z" fill="white"/>
<path d="M21.8929 22.77V24.1C21.5329 24.05 21.2129 24.03 20.6029 24.03H17.4829C16.8829 24.03 16.6129 24.04 16.2129 24.06C16.2729 23.66 16.2929 23.33 16.2929 22.74V17.33C16.2929 16.81 16.2729 16.51 16.2129 16.04C16.6129 16.06 16.8729 16.07 17.4829 16.07H20.5029C21.0029 16.07 21.3329 16.05 21.7929 16V17.32C21.4129 17.27 21.0929 17.25 20.5029 17.25H17.6229V19.31H20.0529C20.5729 19.31 20.9129 19.29 21.3529 19.24V20.55C20.9429 20.49 20.6729 20.48 20.0529 20.48H17.6129V22.84H20.6129C21.1729 22.84 21.4629 22.82 21.8929 22.77Z" fill="white"/>
<path d="M30.5786 24.03H29.2386C29.1986 23.79 29.0986 23.36 28.9986 23.02L27.9286 19.3C27.8186 18.91 27.7286 18.53 27.6386 18.02C27.5286 18.59 27.4286 18.98 27.3386 19.3L26.2786 23.02C26.1586 23.47 26.0786 23.79 26.0486 24.03H24.7186C24.6686 23.78 24.6686 23.78 24.4486 23L22.8586 17.26C22.6886 16.68 22.5886 16.37 22.4586 16.07H24.0586C24.0786 16.41 24.1286 16.71 24.2386 17.15L25.1686 20.96C25.2386 21.27 25.3486 21.78 25.4086 22.13C25.5386 21.51 25.6086 21.23 25.6886 20.95L26.7986 17.09C26.9186 16.67 26.9886 16.34 27.0186 16.07H28.2486C28.2786 16.31 28.3686 16.7 28.4786 17.07L29.5986 20.92C29.6686 21.18 29.7186 21.38 29.8786 22.13C29.9286 21.9 29.9286 21.9 29.9886 21.55C30.0186 21.39 30.0986 21 30.1186 20.91L31.0486 17.14C31.1486 16.76 31.2086 16.35 31.2186 16.07H32.8186C32.6786 16.41 32.5886 16.68 32.4286 17.26L30.8286 22.99C30.7586 23.27 30.7086 23.45 30.6886 23.54C30.6086 23.82 30.6086 23.82 30.5786 24.03Z" fill="white"/>
</svg>
