<svg width="63" height="15" viewBox="0 0 63 15" fill="none" xmlns="http://www.w3.org/2000/svg">
<g clip-path="url(#clip0_5_1631)">
<path d="M15.2865 2.2983C13.8956 0.882391 11.9454 0 9.78292 0C9.41957 0 9.06274 0.0268359 8.71307 0.0747572C9.07837 0.125234 9.4352 0.20063 9.78227 0.300307C9.78227 0.300307 9.78227 0.300307 9.78292 0.300307C11.9728 0.300307 13.9405 1.24787 15.2858 2.74557C16.426 4.01516 17.1201 5.67899 17.1201 7.5C17.1201 11.4698 13.8286 14.6997 9.78292 14.6997C9.78292 14.6997 9.78292 14.6997 9.78227 14.6997C6.90611 14.6997 4.41218 13.0659 3.21015 10.6954C2.72178 9.73185 2.44504 8.64692 2.44504 7.5C2.44504 6.35308 2.72113 5.26815 3.21015 4.30461C2.53816 5.19978 2.13965 6.30516 2.13965 7.5C2.13965 11.2858 4.99822 14.4141 8.71307 14.9252C9.06274 14.9732 9.41957 15 9.78292 15C14.0044 15 17.4262 11.6423 17.4262 7.5C17.4262 5.47964 16.6103 3.64649 15.2858 2.2983H15.2865Z" fill="#0EB784"/>
<path d="M4.23187 11.7323C5.51855 13.3546 7.52607 14.3993 9.78297 14.3993C10.1313 14.3993 10.4732 14.3737 10.8085 14.3252C14.2056 13.8383 16.8148 10.9681 16.8148 7.49925C16.8148 5.87631 16.2424 4.385 15.2859 3.20678C14.1991 1.8669 12.6155 0.932754 10.8079 0.67334C11.1478 0.82541 11.4747 1.00112 11.7853 1.19856C13.2159 1.63752 14.4407 2.53396 15.2852 3.71219C16.0543 4.78499 16.5081 6.091 16.5081 7.49989C16.5081 10.455 14.5188 12.9623 11.7853 13.8006C11.1524 13.9948 10.4797 14.0996 9.78232 14.0996C8.0268 14.0996 6.42691 13.4357 5.22814 12.3508C3.89392 11.1438 3.05653 9.4161 3.05653 7.49989C3.05653 5.58367 3.89392 3.85531 5.22814 2.64834C4.87261 2.81957 4.53921 3.02787 4.23122 3.26684C3.30397 4.43548 2.75049 5.90379 2.75049 7.49925C2.75049 9.09471 3.30397 10.563 4.23122 11.7317L4.23187 11.7323Z" fill="#0EB784"/>
<path d="M6.15674 12.6978C7.18882 13.3923 8.43774 13.7994 9.78368 13.7994C10.8457 13.7994 11.8465 13.5451 12.7289 13.0971C14.7924 12.0493 16.2041 9.9369 16.2041 7.49994C16.2041 6.31277 15.8687 5.20228 15.2866 4.25408C14.6739 3.25604 13.787 2.43946 12.7282 1.9021C13.0557 2.18899 13.3572 2.50335 13.6307 2.84072C14.3242 3.39277 14.8926 4.09051 15.2866 4.886C15.6779 5.67638 15.898 6.56324 15.898 7.49931C15.898 9.37846 15.0125 11.0576 13.6307 12.1585C12.5791 12.9962 11.2403 13.4997 9.78368 13.4997C8.80499 13.4997 7.88035 13.2716 7.05924 12.869C5.05173 11.8844 3.66932 9.84809 3.66932 7.49994C3.66932 5.1518 5.05173 3.11547 7.05924 2.13084C6.74994 2.16279 6.44846 2.22157 6.15674 2.30208C4.47025 3.4375 3.36328 5.34157 3.36328 7.49994C3.36328 9.65832 4.47025 11.5624 6.15674 12.6978Z" fill="#0EB784"/>
<path d="M3.97453 7.49992C3.97453 10.0027 5.6187 12.1266 7.90491 12.8933C8.4942 13.0907 9.12582 13.2 9.78349 13.2C11.7142 13.2 13.4241 12.2748 14.4803 10.8531C15.179 9.91196 15.5925 8.75418 15.5925 7.50056C15.5925 6.86225 15.4837 6.24949 15.2871 5.67635C15.0969 5.1243 14.8234 4.60995 14.4803 4.14799C14.9953 5.15689 15.2871 6.2955 15.2871 7.50056C15.2871 7.77978 15.2656 8.05389 15.2232 8.32161C15.1952 8.49988 15.1588 8.67559 15.1132 8.8481C15.0676 9.02062 15.0142 9.18931 14.9524 9.35479C14.8905 9.52028 14.8208 9.68194 14.7433 9.83912C14.6659 9.9963 14.5812 10.1496 14.4887 10.2979C14.3507 10.5209 14.197 10.733 14.0284 10.933C13.8037 11.2001 13.5537 11.4454 13.2822 11.6652C13.1461 11.7751 13.0048 11.8793 12.8583 11.9764C12.7117 12.0735 12.5607 12.1643 12.4044 12.2473C12.0925 12.4141 11.7624 12.5515 11.4179 12.6569C11.246 12.7093 11.0702 12.754 10.8911 12.7904C10.533 12.8626 10.1625 12.9003 9.78349 12.9003C9.40452 12.9003 9.06006 12.8645 8.71364 12.7968C8.70127 12.7943 8.68825 12.793 8.67588 12.7904C8.49681 12.7546 8.321 12.7099 8.14909 12.6569C7.80463 12.5515 7.47449 12.4141 7.16259 12.2473C7.00696 12.1643 6.85524 12.0735 6.70873 11.9764C6.56222 11.8793 6.42092 11.7751 6.28483 11.6652C6.01265 11.4448 5.7626 11.1994 5.5386 10.933C5.36996 10.733 5.21628 10.5209 5.07824 10.2979C4.98642 10.1496 4.90112 9.9963 4.82364 9.83912C4.74615 9.68194 4.67647 9.52028 4.61461 9.35479C4.55275 9.18931 4.49871 9.02062 4.45378 8.8481C4.4082 8.67559 4.37173 8.49988 4.34373 8.32161C4.30206 8.05389 4.27992 7.77978 4.27992 7.50056C4.27992 4.88214 6.18911 2.69373 8.71299 2.20366C8.44992 2.15254 8.17969 2.11932 7.90426 2.10718C5.6187 2.87392 3.97388 4.99779 3.97388 7.50056L3.97453 7.49992Z" fill="#0EB784"/>
<path d="M15.2774 7.19714C15.2331 6.10389 14.9518 5.07135 14.4798 4.14679C14.2421 3.68163 13.9569 3.24459 13.6307 2.84077C13.3572 2.50341 13.0557 2.18904 12.7281 1.90216C12.4338 1.64466 12.1187 1.40952 11.7859 1.19867C11.4747 1.00124 11.1484 0.825524 10.8085 0.673454C10.4784 0.525856 10.1359 0.400622 9.78232 0.299668C9.43525 0.20063 9.07842 0.124595 8.71312 0.0741182C8.67535 0.0690067 8.63693 0.064534 8.59852 0.0600613C8.4507 0.0421707 8.30159 0.0274749 8.15117 0.0178906C8.13815 0.0172517 8.12578 0.0159738 8.11275 0.0146959C7.95713 0.00638951 7.8015 0 7.64392 0C3.42183 0 0 3.35768 0 7.5C0 11.6423 3.42182 15 7.64327 15C8.00661 15 8.36345 14.9732 8.71312 14.9252C4.99893 14.4141 2.1397 11.2858 2.1397 7.5C2.1397 6.30516 2.53821 5.19978 3.2102 4.30461C3.50192 3.91549 3.84638 3.56726 4.23186 3.26759C4.53921 3.02863 4.87325 2.82033 5.22878 2.64909C5.52376 2.50724 5.83436 2.39095 6.15603 2.30214C6.44775 2.22163 6.74923 2.16349 7.05853 2.1309C7.25062 2.11109 7.44532 2.10023 7.64262 2.10023C7.73053 2.10023 7.81713 2.10279 7.90373 2.10662C8.17917 2.1194 8.44875 2.15199 8.71247 2.2031C11.2363 2.69318 13.1455 4.88158 13.1455 7.5C13.1455 10.1184 11.2363 12.3062 8.71247 12.7969C9.05888 12.864 9.41637 12.9004 9.78232 12.9004C10.1483 12.9004 10.5318 12.8627 10.8899 12.7905C11.069 12.7547 11.2448 12.71 11.4167 12.657C11.7612 12.5515 12.0913 12.4142 12.4032 12.2474C12.5588 12.1643 12.7106 12.0736 12.8571 11.9765C13.0036 11.8794 13.1449 11.7752 13.281 11.6653C13.5532 11.4449 13.8032 11.1995 14.0272 10.9331C14.1959 10.7331 14.3495 10.521 14.4876 10.298C14.5794 10.1497 14.6647 9.99638 14.7422 9.8392C14.8197 9.68202 14.8893 9.52036 14.9512 9.35487C15.0131 9.18939 15.0671 9.0207 15.112 8.84819C15.1576 8.67567 15.1941 8.49996 15.2221 8.32169C15.2638 8.05397 15.2859 7.77986 15.2859 7.50064C15.2859 7.39905 15.2826 7.29809 15.2768 7.19842L15.2774 7.19714Z" fill="#B0B0B1"/>
<path d="M36.7422 5.98779C33.8308 5.98779 31.8318 7.35579 31.8318 9.39212C31.8318 11.4285 33.8302 12.7964 36.7422 12.7964C39.6541 12.7964 41.6525 11.4285 41.6525 9.39212C41.6525 7.35579 39.6535 5.98779 36.7422 5.98779ZM36.7422 11.2962C35.2451 11.2962 33.5827 10.7358 33.5827 9.39212C33.5827 8.04841 35.2451 7.48805 36.7422 7.48805C38.2392 7.48805 39.9016 8.04841 39.9016 9.39212C39.9016 10.7358 38.2385 11.2962 36.7422 11.2962Z" fill="#B1B1B2"/>
<path d="M52.6427 2.29785H50.9992C50.9646 2.29785 50.934 2.31766 50.9204 2.34833L47.074 11.1262C47.0642 11.1492 47.0375 11.2093 46.9451 11.2093C46.8526 11.2093 46.8259 11.1486 46.8155 11.1262L42.9691 2.34833C42.9554 2.31766 42.9248 2.29785 42.8903 2.29785H41.2468C41.2162 2.29785 41.1954 2.32852 41.2077 2.356L45.2944 11.6821C45.5861 12.3485 46.2542 12.8124 46.9959 12.7926C47.6913 12.7741 48.2904 12.3779 48.5658 11.7492L52.6817 2.356C52.6941 2.32852 52.6733 2.29785 52.6427 2.29785Z" fill="#B1B1B2"/>
<path d="M25.1027 6.38579C23.6995 6.27908 22.2858 5.88102 22.2858 5.08552C22.2858 4.19355 23.6721 3.70411 25.0402 3.70411C26.2429 3.70411 27.6767 4.23572 28.7882 4.97179C28.8162 4.99032 28.8534 4.97115 28.8534 4.93793V3.2134C28.8534 3.18145 28.8364 3.1527 28.8071 3.13864C27.8486 2.66326 26.4356 2.20386 25.0402 2.20386C22.3294 2.20386 20.5355 3.3348 20.5355 5.08552C20.5355 6.03628 21.1495 7.67391 24.977 7.96527C27.0724 8.12501 28.1996 8.50071 28.1996 9.39205C28.1996 10.7358 26.5372 11.2131 25.0402 11.2131C23.6988 11.2131 21.9947 10.608 20.5856 9.57032C20.5576 9.54987 20.5186 9.5684 20.5186 9.6029V11.383C20.5186 11.4124 20.5329 11.4386 20.5583 11.4539C21.6359 12.1095 23.3517 12.797 25.0402 12.797C27.9515 12.797 29.9506 11.429 29.9506 9.39269C29.9506 6.8535 26.7827 6.51422 25.1033 6.38643L25.1027 6.38579Z" fill="#B1B1B2"/>
<path d="M62.9421 11.0284C62.5051 10.8808 62.1437 10.3773 62.1437 9.81437V6.0829C62.1437 6.05032 62.1073 6.03051 62.0793 6.04712L60.6825 6.86498C59.825 6.30781 58.6366 5.98706 57.2334 5.98706C54.322 5.98706 52.323 7.35505 52.323 9.39139C52.323 11.4277 54.3214 12.7957 57.2334 12.7957C58.9153 12.7957 60.2892 12.3369 61.1527 11.5587C61.5863 12.183 62.2134 12.5369 62.9486 12.6622C62.9753 12.6666 63 12.6462 63 12.62V11.1044C63 11.0686 62.9766 11.0392 62.9421 11.0277V11.0284ZM57.234 11.2961C55.737 11.2961 54.0746 10.7357 54.0746 9.39203C54.0746 8.04832 55.737 7.48796 57.234 7.48796C58.731 7.48796 60.3941 8.04832 60.3941 9.39203C60.3941 10.7357 58.731 11.2961 57.234 11.2961Z" fill="#B1B1B2"/>
</g>
<defs>
<clipPath id="clip0_5_1631">
<rect width="63" height="15" fill="white"/>
</clipPath>
</defs>
</svg>
