<svg width="186" height="39" viewBox="0 0 186 39" fill="none" xmlns="http://www.w3.org/2000/svg">
<path d="M9.296 0V38.64H0V0H9.296Z" fill="#229C9A"/>
<path d="M30.9492 38.64H16.5572V0H30.9492C39.7412 0 46.1812 4.312 46.1812 16.52V22.12C46.1812 34.216 39.7412 38.64 30.9492 38.64ZM30.9492 30.912C35.7652 30.912 36.8852 27.328 36.8852 22.12V16.52C36.8852 11.312 35.7652 7.728 30.9492 7.728H25.8532V30.912H30.9492Z" fill="#229C9A"/>
<path d="M52.0494 0H76.4654V7.728H61.3454V14.784H74.7854V22.512H61.3454V30.912H76.4654V38.64H52.0494V0Z" fill="#229C9A"/>
<path d="M89.8765 0L100.349 19.6L110.765 0H119.445V38.64H110.709V16.8L102.757 32.256H97.7725L89.9885 16.968V38.64H81.2525V0H89.8765Z" fill="#229C9A"/>
<path d="M132.143 38.64H122.231L135.671 0H144.631L158.071 38.64H148.159L146.087 32.032H134.159L132.143 38.64ZM140.151 12.88L136.567 24.304H143.679L140.151 12.88Z" fill="#229C9A"/>
<path d="M160.878 0H185.294V7.728H170.174V14.784H183.614V22.512H170.174V30.912H185.294V38.64H160.878V0Z" fill="#229C9A"/>
</svg>
