<svg width="723" height="1250" viewBox="0 0 723 1250" fill="none" xmlns="http://www.w3.org/2000/svg">
<g clip-path="url(#clip0_143_5997)">
<rect width="723" height="1250" fill="white"/>
<path d="M29 180.521C100.797 180.521 159 125.888 159 58.4949C159 -8.89827 100.797 -63.5312 29 -63.5312C-42.797 -63.5312 -101 -8.89827 -101 58.4949C-101 125.888 -42.797 180.521 29 180.521Z" stroke="#FCD7BE" stroke-miterlimit="10"/>
<path d="M28.9997 170.023C94.62 170.023 147.816 120.09 147.816 58.495C147.816 -3.1003 94.62 -53.0332 28.9997 -53.0332C-36.6206 -53.0332 -89.8164 -3.1003 -89.8164 58.495C-89.8164 120.09 -36.6206 170.023 28.9997 170.023Z" stroke="#FCD7BE" stroke-miterlimit="10"/>
<path d="M28.9996 159.501C88.4288 159.501 136.606 114.279 136.606 58.4951C136.606 2.71111 88.4288 -42.5107 28.9996 -42.5107C-30.4296 -42.5107 -78.6064 2.71111 -78.6064 58.4951C-78.6064 114.279 -30.4296 159.501 28.9996 159.501Z" stroke="#FCD7BE" stroke-miterlimit="10"/>
<path d="M28.9995 148.978C82.2375 148.978 125.395 108.468 125.395 58.495C125.395 8.52248 82.2375 -31.9883 28.9995 -31.9883C-24.2385 -31.9883 -67.3965 8.52248 -67.3965 58.495C-67.3965 108.468 -24.2385 148.978 28.9995 148.978Z" stroke="#FCD7BE" stroke-miterlimit="10"/>
<path d="M29.0001 138.481C76.0615 138.481 114.212 102.67 114.212 58.4952C114.212 14.3204 76.0615 -21.4902 29.0001 -21.4902C-18.0612 -21.4902 -56.2119 14.3204 -56.2119 58.4952C-56.2119 102.67 -18.0612 138.481 29.0001 138.481Z" stroke="#FCD7BE" stroke-miterlimit="10"/>
<path d="M29.0001 127.958C69.8702 127.958 103.002 96.858 103.002 58.4947C103.002 20.1314 69.8702 -10.9683 29.0001 -10.9683C-11.8701 -10.9683 -45.002 20.1314 -45.002 58.4947C-45.002 96.858 -11.8701 127.958 29.0001 127.958Z" stroke="#FCD7BE" stroke-miterlimit="10"/>
<path d="M28.9997 117.46C63.6932 117.46 91.8178 91.0603 91.8178 58.4948C91.8178 25.9293 63.6932 -0.470215 28.9997 -0.470215C-5.69374 -0.470215 -33.8184 25.9293 -33.8184 58.4948C-33.8184 91.0603 -5.69374 117.46 28.9997 117.46Z" stroke="#FCD7BE" stroke-miterlimit="10"/>
<path d="M28.9996 106.937C57.502 106.937 80.6077 85.2489 80.6077 58.4948C80.6077 31.7407 57.502 10.0522 28.9996 10.0522C0.497311 10.0522 -22.6084 31.7407 -22.6084 58.4948C-22.6084 85.2489 0.497311 106.937 28.9996 106.937Z" stroke="#FCD7BE" stroke-miterlimit="10"/>
<path d="M29.0003 96.4395C51.3259 96.4395 69.4244 79.4511 69.4244 58.4949C69.4244 37.5387 51.3259 20.5503 29.0003 20.5503C6.67467 20.5503 -11.4238 37.5387 -11.4238 58.4949C-11.4238 79.4511 6.67467 96.4395 29.0003 96.4395Z" stroke="#FCD7BE" stroke-miterlimit="10"/>
<path d="M29.0002 85.9171C45.1347 85.9171 58.2143 73.6398 58.2143 58.4949C58.2143 43.3501 45.1347 31.0728 29.0002 31.0728C12.8657 31.0728 -0.213867 43.3501 -0.213867 58.4949C-0.213867 73.6398 12.8657 85.9171 29.0002 85.9171Z" stroke="#FCD7BE" stroke-miterlimit="10"/>
<path d="M-70 116.692C34.9341 116.692 120 36.8437 120 -61.654C120 -160.152 34.9341 -240 -70 -240C-174.934 -240 -260 -160.152 -260 -61.654C-260 36.8437 -174.934 116.692 -70 116.692Z" fill="#D4F1F1"/>
<path d="M43.9828 171.15C46.9765 167.537 44.9262 164.608 39.4033 164.608C33.8805 164.608 26.9765 167.537 23.9828 171.15L-247.579 498.903C-250.573 502.516 -248.523 505.445 -243 505.445C-237.477 505.445 -230.573 502.516 -227.579 498.903L43.9828 171.15Z" fill="#D4F1F1"/>
<path d="M121.84 134.714C124.913 131.006 122.926 128 117.403 128C111.88 128 104.913 131.006 101.84 134.714L-169.437 462.123C-172.509 465.831 -170.523 468.837 -165 468.837C-159.477 468.837 -152.509 465.831 -149.437 462.123L121.84 134.714Z" fill="#E9FAFA"/>
<path d="M61.9706 1112.66C55.214 1085.72 29.0484 1075.58 26.7595 1073.12L33.1938 1049.7C33.1938 1049.7 25.1592 1047.1 13.8909 1051.94C-0.438768 1058.09 -8.42229 1050.25 -8.42229 1050.25L-1.35072 1073.49C-3.56627 1076.01 -31.3983 1087.32 -36.4339 1113.94C-40.7808 1136.84 -27.1798 1169.52 13.4697 1168.99C54.1228 1168.46 67.6542 1135.27 61.9706 1112.66ZM32.099 1114.95V1121.34H18.941L16.7475 1124.75V1128.83H32.099V1135.22H16.7475V1146.34H9.25475V1135.22H-6.09682V1128.83H9.25475V1124.75L7.05748 1121.34H-6.09682V1114.95H2.94865L-7.81432 1098.2H-0.142287L13.001 1118.65L26.148 1098.2H33.8128L23.0536 1114.95H32.099Z" fill="#D4F1F1"/>
<path d="M191.445 1082.92H186.61V1112.85H191.445C194.726 1112.85 197.384 1110.19 197.384 1106.91V1088.86C197.384 1085.58 194.726 1082.92 191.445 1082.92Z" fill="#D4F1F1"/>
<path d="M193.216 1138.28C193.217 1134.72 191.765 1131.47 189.433 1129.14C187.106 1126.81 183.857 1125.36 180.3 1125.36C176.743 1125.36 173.495 1126.81 171.167 1129.14C168.834 1131.47 167.383 1134.72 167.383 1138.28V1142.82H163.216V1160.73C163.216 1165.3 166.918 1169 171.484 1169H189.118C193.683 1169 197.384 1165.3 197.384 1160.73V1142.82H193.216V1138.28H193.216ZM173.654 1138.28C173.654 1137.35 173.839 1136.48 174.174 1135.69C174.676 1134.5 175.522 1133.48 176.584 1132.76C177.65 1132.05 178.911 1131.63 180.3 1131.63C181.226 1131.63 182.093 1131.82 182.886 1132.15C184.075 1132.65 185.097 1133.5 185.814 1134.56C186.531 1135.63 186.945 1136.89 186.947 1138.28V1142.82H173.654V1138.28ZM180.3 1158.8C177.942 1158.8 176.029 1156.89 176.029 1154.53C176.029 1152.18 177.942 1150.26 180.3 1150.26C182.659 1150.26 184.571 1152.18 184.571 1154.53C184.571 1156.89 182.659 1158.8 180.3 1158.8Z" fill="#D4F1F1"/>
<path d="M188.901 1049H182.42H109.098C104.414 1049 100.616 1052.8 100.616 1057.48V1152.25C100.616 1156.94 104.414 1160.73 109.098 1160.73H158.428V1138.04H162.54L162.677 1136.59C162.813 1135.14 163.127 1133.74 163.595 1132.4H142.098H117.709C117.709 1121.31 124.218 1112.16 136.657 1110.12C138.372 1110.69 140.195 1111.01 142.099 1111.01C144.002 1111.01 145.826 1110.69 147.54 1110.12C158.191 1111.87 164.478 1118.83 166.071 1127.75C166.589 1127.06 167.155 1126.39 167.785 1125.76C171.121 1122.41 175.563 1120.57 180.294 1120.57C181.011 1120.57 181.719 1120.63 182.42 1120.71V1078.93H191.445C194.726 1078.93 197.384 1076.27 197.384 1072.99V1057.48C197.384 1052.8 193.585 1049 188.901 1049ZM155.448 1093.71C155.448 1101.08 149.473 1107.06 142.099 1107.06C134.724 1107.06 128.748 1101.08 128.748 1093.71V1089.92C128.748 1082.55 134.724 1076.57 142.099 1076.57C149.473 1076.57 155.448 1082.55 155.448 1089.92V1093.71Z" fill="#D4F1F1"/>
<path d="M317.498 1049H252.506C246.636 1049 241.875 1053.76 241.875 1059.63V1158.37C241.875 1164.24 246.636 1169 252.506 1169H317.498C323.368 1169 328.125 1164.24 328.125 1158.37V1059.63C328.125 1053.76 323.368 1049 317.498 1049ZM322.5 1158.37C322.5 1161.13 320.255 1163.38 317.498 1163.38H252.506C249.745 1163.38 247.5 1161.13 247.5 1158.37V1059.63C247.5 1056.87 249.745 1054.62 252.506 1054.62H317.498C320.255 1054.62 322.5 1056.87 322.5 1059.63V1158.37Z" fill="#D4F1F1"/>
<path d="M268.125 1139H256.875V1150.25H268.125V1139Z" fill="#D4F1F1"/>
<path d="M268.125 1120.25H256.875V1131.5H268.125V1120.25Z" fill="#D4F1F1"/>
<path d="M268.125 1101.5H256.875V1112.75H268.125V1101.5Z" fill="#D4F1F1"/>
<path d="M290.625 1139H279.375V1150.25H290.625V1139Z" fill="#D4F1F1"/>
<path d="M290.625 1120.25H279.375V1131.5H290.625V1120.25Z" fill="#D4F1F1"/>
<path d="M290.625 1101.5H279.375V1112.75H290.625V1101.5Z" fill="#D4F1F1"/>
<path d="M313.125 1120.25H301.875V1150.25H313.125V1120.25Z" fill="#D4F1F1"/>
<path d="M313.125 1101.5H301.875V1112.75H313.125V1101.5Z" fill="#D4F1F1"/>
<path d="M313.125 1067.75H256.875V1086.5H313.125V1067.75Z" fill="#D4F1F1"/>
<g clip-path="url(#clip1_143_5997)">
<path d="M452.921 1055.23H451.803V1052.96C451.803 1050.77 450.034 1049 447.847 1049C445.66 1049 443.886 1050.77 443.886 1052.96V1055.23H433.908V1052.96C433.908 1050.77 432.136 1049 429.949 1049C427.764 1049 425.99 1050.77 425.99 1052.96V1055.23H416.012V1052.96C416.012 1050.77 414.238 1049 412.053 1049C409.866 1049 408.094 1050.77 408.094 1052.96V1055.23H398.114V1052.96C398.114 1050.77 396.34 1049 394.155 1049C391.968 1049 390.197 1050.77 390.197 1052.96V1055.23H389.079C380.055 1055.23 372.746 1062.54 372.743 1071.57V1143.42C372.746 1157.55 384.193 1169 398.32 1169H434.965L469.257 1134.71V1071.57C469.255 1062.54 461.945 1055.23 452.921 1055.23ZM461.587 1131.04H454.163C442.154 1131.04 432.421 1140.77 432.421 1152.78V1160.7L431.79 1161.33L398.32 1161.33C393.363 1161.33 388.91 1159.33 385.658 1156.08C382.411 1152.83 380.415 1148.38 380.413 1143.42V1071.57C380.415 1069.16 381.377 1067.02 382.952 1065.44C384.532 1063.86 386.675 1062.9 389.079 1062.9H390.197V1067.15C390.197 1069.33 391.968 1071.11 394.156 1071.11C396.341 1071.11 398.114 1069.33 398.114 1067.15V1062.9H408.095V1067.15C408.095 1069.33 409.866 1071.11 412.053 1071.11C414.239 1071.11 416.012 1069.33 416.012 1067.15V1062.9H425.991V1067.15C425.991 1069.33 427.764 1071.11 429.949 1071.11C432.137 1071.11 433.908 1069.33 433.908 1067.15V1062.9H443.887V1067.15C443.887 1069.33 445.66 1071.11 447.847 1071.11C450.034 1071.11 451.804 1069.33 451.804 1067.15V1062.9H452.922C455.326 1062.9 457.468 1063.86 459.049 1065.44C460.623 1067.02 461.586 1069.16 461.588 1071.57V1131.04H461.587Z" fill="#D4F1F1"/>
<path d="M446.568 1088.85H395.434V1096.52H446.568V1088.85Z" fill="#D4F1F1"/>
<path d="M446.568 1109.3H395.434V1116.97H446.568V1109.3Z" fill="#D4F1F1"/>
<path d="M426.114 1129.76H395.434V1137.43H426.114V1129.76Z" fill="#D4F1F1"/>
</g>
<path d="M604.82 1079.24H600.304V1101.05H604.82C607.317 1101.05 609.346 1099.02 609.346 1096.53V1083.77C609.346 1081.27 607.317 1079.24 604.82 1079.24Z" fill="#D4F1F1"/>
<path d="M604.82 1131.58H600.304V1153.38H604.82C607.317 1153.38 609.346 1151.36 609.346 1148.86V1136.1C609.346 1133.6 607.317 1131.58 604.82 1131.58Z" fill="#D4F1F1"/>
<path d="M604.82 1105.41H600.304V1127.22H604.82C607.317 1127.22 609.346 1125.19 609.346 1122.69V1109.93C609.346 1107.44 607.317 1105.41 604.82 1105.41Z" fill="#D4F1F1"/>
<path d="M583.155 1070.76H576.402V1107.57C576.402 1108.75 575.735 1109.82 574.681 1110.34C573.626 1110.86 572.366 1110.74 571.436 1110.02L562.251 1102.95L553.067 1110.02C552.136 1110.74 550.88 1110.86 549.826 1110.34C548.771 1109.82 548.101 1108.75 548.101 1107.57V1070.76H519.449C517.515 1070.76 515.798 1069.98 514.527 1068.72C513.26 1067.44 512.487 1065.73 512.487 1063.79C512.487 1061.86 513.26 1060.14 514.527 1058.87C515.798 1057.61 517.515 1056.83 519.449 1056.83H581.8C583.96 1056.83 585.711 1055.08 585.711 1052.91C585.711 1050.75 583.96 1049 581.8 1049H519.449C515.376 1049 511.656 1050.66 508.99 1053.34C506.316 1056 504.654 1059.72 504.654 1063.79V1159.33C504.654 1164.67 508.982 1169 514.322 1169H583.155C590.516 1169 596.478 1163.04 596.478 1155.68V1084.08C596.478 1076.72 590.516 1070.76 583.155 1070.76Z" fill="#D4F1F1"/>
<path d="M741.971 1112.66C735.215 1085.72 709.049 1075.58 706.76 1073.12L713.194 1049.7C713.194 1049.7 705.16 1047.1 693.891 1051.94C679.562 1058.09 671.578 1050.25 671.578 1050.25L678.65 1073.49C676.434 1076.01 648.602 1087.32 643.567 1113.94C639.22 1136.84 652.821 1169.52 693.47 1168.99C734.123 1168.46 747.655 1135.27 741.971 1112.66ZM712.1 1114.95V1121.34H698.941L696.748 1124.75V1128.83H712.1V1135.22H696.748V1146.34H689.255V1135.22H673.904V1128.83H689.255V1124.75L687.058 1121.34H673.904V1114.95H682.949L672.186 1098.2H679.858L693.001 1118.65L706.149 1098.2H713.813L703.054 1114.95H712.1Z" fill="#D4F1F1"/>
<path d="M661.8 1002.69C714.558 1002.69 757.327 962.543 757.327 913.021C757.327 863.499 714.558 823.353 661.8 823.353C609.041 823.353 566.272 863.499 566.272 913.021C566.272 962.543 609.041 1002.69 661.8 1002.69Z" stroke="#FCD7BE" stroke-miterlimit="10"/>
<path d="M661.8 994.975C710.019 994.975 749.109 958.283 749.109 913.021C749.109 867.759 710.019 831.067 661.8 831.067C613.58 831.067 574.491 867.759 574.491 913.021C574.491 958.283 613.58 994.975 661.8 994.975Z" stroke="#FCD7BE" stroke-miterlimit="10"/>
<path d="M661.8 987.243C705.47 987.243 740.871 954.013 740.871 913.021C740.871 872.03 705.47 838.8 661.8 838.8C618.13 838.8 582.728 872.03 582.728 913.021C582.728 954.013 618.13 987.243 661.8 987.243Z" stroke="#FCD7BE" stroke-miterlimit="10"/>
<path d="M661.8 979.51C700.921 979.51 732.634 949.742 732.634 913.021C732.634 876.3 700.921 846.531 661.8 846.531C622.679 846.531 590.966 876.3 590.966 913.021C590.966 949.742 622.679 979.51 661.8 979.51Z" stroke="#FCD7BE" stroke-miterlimit="10"/>
<path d="M661.8 971.796C696.382 971.796 724.416 945.482 724.416 913.021C724.416 880.56 696.382 854.246 661.8 854.246C627.218 854.246 599.184 880.56 599.184 913.021C599.184 945.482 627.218 971.796 661.8 971.796Z" stroke="#FCD7BE" stroke-miterlimit="10"/>
<path d="M661.8 964.064C691.832 964.064 716.178 941.211 716.178 913.021C716.178 884.831 691.832 861.978 661.8 861.978C631.768 861.978 607.421 884.831 607.421 913.021C607.421 941.211 631.768 964.064 661.8 964.064Z" stroke="#FCD7BE" stroke-miterlimit="10"/>
<path d="M661.8 956.35C687.293 956.35 707.96 936.951 707.96 913.021C707.96 889.091 687.293 869.692 661.8 869.692C636.306 869.692 615.639 889.091 615.639 913.021C615.639 936.951 636.306 956.35 661.8 956.35Z" stroke="#FCD7BE" stroke-miterlimit="10"/>
<path d="M661.8 948.618C682.744 948.618 699.723 932.68 699.723 913.021C699.723 893.361 682.744 877.424 661.8 877.424C640.856 877.424 623.877 893.361 623.877 913.021C623.877 932.68 640.856 948.618 661.8 948.618Z" stroke="#FCD7BE" stroke-miterlimit="10"/>
<path d="M661.8 940.904C678.205 940.904 691.505 928.42 691.505 913.021C691.505 897.622 678.205 885.138 661.8 885.138C645.394 885.138 632.095 897.622 632.095 913.021C632.095 928.42 645.394 940.904 661.8 940.904Z" stroke="#FCD7BE" stroke-miterlimit="10"/>
<path d="M661.8 933.172C673.656 933.172 683.267 924.15 683.267 913.021C683.267 901.892 673.656 892.871 661.8 892.871C649.944 892.871 640.333 901.892 640.333 913.021C640.333 924.15 649.944 933.172 661.8 933.172Z" stroke="#FCD7BE" stroke-miterlimit="10"/>
<path d="M661.5 933C738.544 933 801 874.125 801 801.5C801 728.875 738.544 670 661.5 670C584.456 670 522 728.875 522 801.5C522 874.125 584.456 933 661.5 933Z" fill="#D4F1F1"/>
</g>
<defs>
<clipPath id="clip0_143_5997">
<rect width="723" height="1250" fill="white"/>
</clipPath>
<clipPath id="clip1_143_5997">
<rect width="120" height="120" fill="white" transform="translate(361 1049)"/>
</clipPath>
</defs>
</svg>
