<svg width="1440" height="557" viewBox="0 0 1440 557" fill="none" xmlns="http://www.w3.org/2000/svg">
<g clip-path="url(#clip0_32_6303)">
<rect width="1440" height="557" fill="white"/>
<path d="M1394 277.436C1465.8 277.436 1524 222.803 1524 155.409C1524 88.0163 1465.8 33.3833 1394 33.3833C1322.2 33.3833 1264 88.0163 1264 155.409C1264 222.803 1322.2 277.436 1394 277.436Z" stroke="#FCD7BE" stroke-miterlimit="10"/>
<path d="M1394 266.938C1459.62 266.938 1512.82 217.005 1512.82 155.41C1512.82 93.8143 1459.62 43.8813 1394 43.8813C1328.38 43.8813 1275.18 93.8143 1275.18 155.41C1275.18 217.005 1328.38 266.938 1394 266.938Z" stroke="#FCD7BE" stroke-miterlimit="10"/>
<path d="M1394 256.415C1453.43 256.415 1501.61 211.194 1501.61 155.41C1501.61 99.6256 1453.43 54.4038 1394 54.4038C1334.57 54.4038 1286.39 99.6256 1286.39 155.41C1286.39 211.194 1334.57 256.415 1394 256.415Z" stroke="#FCD7BE" stroke-miterlimit="10"/>
<path d="M1394 245.893C1447.24 245.893 1490.4 205.382 1490.4 155.41C1490.4 105.437 1447.24 64.9263 1394 64.9263C1340.76 64.9263 1297.6 105.437 1297.6 155.41C1297.6 205.382 1340.76 245.893 1394 245.893Z" stroke="#FCD7BE" stroke-miterlimit="10"/>
<path d="M1394 235.395C1441.06 235.395 1479.21 199.584 1479.21 155.41C1479.21 111.235 1441.06 75.4243 1394 75.4243C1346.94 75.4243 1308.79 111.235 1308.79 155.41C1308.79 199.584 1346.94 235.395 1394 235.395Z" stroke="#FCD7BE" stroke-miterlimit="10"/>
<path d="M1394 224.873C1434.87 224.873 1468 193.773 1468 155.41C1468 117.046 1434.87 85.9468 1394 85.9468C1353.13 85.9468 1320 117.046 1320 155.41C1320 193.773 1353.13 224.873 1394 224.873Z" stroke="#FCD7BE" stroke-miterlimit="10"/>
<path d="M1394 214.374C1428.69 214.374 1456.82 187.975 1456.82 155.409C1456.82 122.844 1428.69 96.4443 1394 96.4443C1359.31 96.4443 1331.18 122.844 1331.18 155.409C1331.18 187.975 1359.31 214.374 1394 214.374Z" stroke="#FCD7BE" stroke-miterlimit="10"/>
<path d="M1394 203.852C1422.5 203.852 1445.61 182.163 1445.61 155.409C1445.61 128.655 1422.5 106.967 1394 106.967C1365.5 106.967 1342.39 128.655 1342.39 155.409C1342.39 182.163 1365.5 203.852 1394 203.852Z" stroke="#FCD7BE" stroke-miterlimit="10"/>
<path d="M1394 193.354C1416.33 193.354 1434.42 176.366 1434.42 155.409C1434.42 134.453 1416.33 117.465 1394 117.465C1371.67 117.465 1353.58 134.453 1353.58 155.409C1353.58 176.366 1371.67 193.354 1394 193.354Z" stroke="#FCD7BE" stroke-miterlimit="10"/>
<path d="M1394 182.832C1410.13 182.832 1423.21 170.554 1423.21 155.409C1423.21 140.265 1410.13 127.987 1394 127.987C1377.87 127.987 1364.79 140.265 1364.79 155.409C1364.79 170.554 1377.87 182.832 1394 182.832Z" stroke="#FCD7BE" stroke-miterlimit="10"/>
<path d="M39 356.283C110.797 356.283 169 301.65 169 234.257C169 166.864 110.797 112.231 39 112.231C-32.797 112.231 -91 166.864 -91 234.257C-91 301.65 -32.797 356.283 39 356.283Z" stroke="#FCD7BE" stroke-miterlimit="10"/>
<path d="M39.0002 345.785C104.62 345.785 157.816 295.853 157.816 234.257C157.816 172.662 104.62 122.729 39.0002 122.729C-26.6201 122.729 -79.8159 172.662 -79.8159 234.257C-79.8159 295.853 -26.6201 345.785 39.0002 345.785Z" stroke="#FCD7BE" stroke-miterlimit="10"/>
<path d="M38.9996 335.263C98.4288 335.263 146.606 290.041 146.606 234.257C146.606 178.473 98.4288 133.251 38.9996 133.251C-20.4296 133.251 -68.6064 178.473 -68.6064 234.257C-68.6064 290.041 -20.4296 335.263 38.9996 335.263Z" stroke="#FCD7BE" stroke-miterlimit="10"/>
<path d="M39 324.741C92.238 324.741 135.396 284.23 135.396 234.257C135.396 184.285 92.238 143.774 39 143.774C-14.238 143.774 -57.396 184.285 -57.396 234.257C-57.396 284.23 -14.238 324.741 39 324.741Z" stroke="#FCD7BE" stroke-miterlimit="10"/>
<path d="M39.0001 314.243C86.0615 314.243 124.212 278.432 124.212 234.257C124.212 190.083 86.0615 154.272 39.0001 154.272C-8.06118 154.272 -46.2119 190.083 -46.2119 234.257C-46.2119 278.432 -8.06118 314.243 39.0001 314.243Z" stroke="#FCD7BE" stroke-miterlimit="10"/>
<path d="M39.0001 303.72C79.8702 303.72 113.002 272.62 113.002 234.257C113.002 195.894 79.8702 164.794 39.0001 164.794C-1.87012 164.794 -35.002 195.894 -35.002 234.257C-35.002 272.62 -1.87012 303.72 39.0001 303.72Z" stroke="#FCD7BE" stroke-miterlimit="10"/>
<path d="M38.9997 293.222C73.6932 293.222 101.818 266.822 101.818 234.257C101.818 201.692 73.6932 175.292 38.9997 175.292C4.30626 175.292 -23.8184 201.692 -23.8184 234.257C-23.8184 266.822 4.30626 293.222 38.9997 293.222Z" stroke="#FCD7BE" stroke-miterlimit="10"/>
<path d="M39.0001 282.7C67.5025 282.7 90.6082 261.011 90.6082 234.257C90.6082 207.503 67.5025 185.814 39.0001 185.814C10.4978 185.814 -12.6079 207.503 -12.6079 234.257C-12.6079 261.011 10.4978 282.7 39.0001 282.7Z" stroke="#FCD7BE" stroke-miterlimit="10"/>
<path d="M39.0003 272.202C61.3259 272.202 79.4244 255.213 79.4244 234.257C79.4244 213.301 61.3259 196.312 39.0003 196.312C16.6747 196.312 -1.42383 213.301 -1.42383 234.257C-1.42383 255.213 16.6747 272.202 39.0003 272.202Z" stroke="#FCD7BE" stroke-miterlimit="10"/>
<path d="M38.9997 261.679C55.1342 261.679 68.2138 249.402 68.2138 234.257C68.2138 219.112 55.1342 206.835 38.9997 206.835C22.8652 206.835 9.78564 219.112 9.78564 234.257C9.78564 249.402 22.8652 261.679 38.9997 261.679Z" stroke="#FCD7BE" stroke-miterlimit="10"/>
<path d="M1331 181.692C1435.93 181.692 1521 101.844 1521 3.34596C1521 -95.1518 1435.93 -175 1331 -175C1226.07 -175 1141 -95.1518 1141 3.34596C1141 101.844 1226.07 181.692 1331 181.692Z" fill="#D4F1F1"/>
<path d="M1003.57 107.138H998.426V102.306C998.426 101.044 997.344 100.028 996 100.028C994.656 100.028 993.574 101.044 993.574 102.306V107.138H988.426C987.082 107.138 986 108.153 986 109.415C986 110.677 987.082 111.692 988.426 111.692H993.574V116.524C993.574 117.786 994.656 118.802 996 118.802C997.344 118.802 998.426 117.786 998.426 116.524V111.692H1003.57C1004.92 111.692 1006 110.677 1006 109.415C1006 108.153 1004.92 107.138 1003.57 107.138Z" fill="#E5D3C6"/>
<path d="M-60 292.454C44.9341 292.454 130 212.606 130 114.108C130 15.6104 44.9341 -64.2378 -60 -64.2378C-164.934 -64.2378 -250 15.6104 -250 114.108C-250 212.606 -164.934 292.454 -60 292.454Z" fill="#D4F1F1"/>
<g clip-path="url(#clip1_32_6303)">
<path d="M152.921 417.985H151.803V415.711C151.803 413.528 150.034 411.755 147.847 411.755C145.66 411.755 143.886 413.528 143.886 415.711V417.985H133.908V415.711C133.908 413.528 132.136 411.755 129.949 411.755C127.764 411.755 125.99 413.528 125.99 415.711V417.985H116.012V415.711C116.012 413.528 114.238 411.755 112.053 411.755C109.866 411.755 108.094 413.528 108.094 415.711V417.985H98.1138V415.711C98.1138 413.528 96.3405 411.755 94.1552 411.755C91.968 411.755 90.1966 413.528 90.1966 415.711V417.985H89.0786C80.0549 417.986 72.7464 425.297 72.7427 434.32V506.178C72.7464 520.306 84.1933 531.753 98.3198 531.754H134.965L169.257 497.463V434.32C169.255 425.297 161.945 417.986 152.921 417.985ZM161.587 493.791H154.163C142.154 493.791 132.421 503.524 132.421 515.533V523.452L131.79 524.083L98.32 524.084C93.3632 524.083 88.9103 522.086 85.6577 518.84C82.4109 515.587 80.4147 511.134 80.4128 506.178V434.32C80.4147 431.916 81.3771 429.774 82.952 428.193C84.5324 426.619 86.6746 425.656 89.0791 425.654H90.197V429.901C90.197 432.089 91.9685 433.86 94.1556 433.86C96.341 433.86 98.1142 432.088 98.1142 429.901V425.654H108.095V429.902C108.095 432.089 109.866 433.86 112.053 433.86C114.239 433.86 116.012 432.089 116.012 429.902V425.654H125.991V429.902C125.991 432.089 127.764 433.86 129.949 433.86C132.137 433.86 133.908 432.089 133.908 429.902V425.654H143.887V429.902C143.887 432.089 145.66 433.86 147.847 433.86C150.034 433.86 151.804 432.089 151.804 429.902V425.654H152.922C155.326 425.656 157.468 426.619 159.049 428.194C160.623 429.774 161.586 431.916 161.588 434.321V493.791H161.587Z" fill="#D4F1F1"/>
<path d="M146.568 451.606H95.4341V459.276H146.568V451.606Z" fill="#D4F1F1"/>
<path d="M146.568 472.058H95.4341V479.728H146.568V472.058Z" fill="#D4F1F1"/>
<path d="M126.114 492.51H95.4341V500.18H126.114V492.51Z" fill="#D4F1F1"/>
</g>
<g clip-path="url(#clip2_32_6303)">
<path d="M305.971 475.41C299.215 448.471 273.049 438.338 270.76 435.873L277.194 412.451C277.194 412.451 269.16 409.854 257.891 414.692C243.562 420.844 235.578 413 235.578 413L242.65 436.24C240.434 438.763 212.602 450.075 207.567 476.695C203.22 499.594 216.821 532.275 257.47 531.747C298.123 531.213 311.655 498.027 305.971 475.41ZM276.1 477.706V484.093H262.941L260.748 487.509V491.582H276.1V497.972H260.748V509.097H253.255V497.972H237.904V491.582H253.255V487.509L251.058 484.093H237.904V477.706H246.949L236.186 460.959H243.858L257.001 481.408L270.149 460.959H277.813L267.054 477.706H276.1Z" fill="#D4F1F1"/>
</g>
<g clip-path="url(#clip3_32_6303)">
<path d="M435.445 445.673H430.61V475.604H435.445C438.726 475.604 441.384 472.945 441.384 469.665V451.613C441.384 448.332 438.726 445.673 435.445 445.673Z" fill="#D4F1F1"/>
<path d="M437.216 501.032C437.217 497.476 435.765 494.228 433.433 491.899C431.106 489.567 427.857 488.115 424.3 488.116C420.743 488.115 417.495 489.567 415.167 491.899C412.834 494.228 411.383 497.476 411.383 501.032V505.579H407.216V523.489C407.216 528.054 410.918 531.755 415.484 531.755H433.118C437.683 531.755 441.384 528.054 441.384 523.489V505.579H437.216V501.032H437.216ZM417.654 501.032C417.654 500.106 417.839 499.239 418.174 498.446C418.676 497.257 419.522 496.236 420.584 495.519C421.65 494.8 422.911 494.387 424.3 494.386C425.226 494.386 426.093 494.571 426.886 494.906C428.075 495.408 429.097 496.256 429.814 497.318C430.531 498.382 430.945 499.643 430.947 501.032V505.579H417.654V501.032ZM424.3 521.559C421.942 521.559 420.029 519.646 420.029 517.288C420.029 514.93 421.942 513.017 424.3 513.017C426.659 513.017 428.571 514.93 428.571 517.288C428.571 519.646 426.659 521.559 424.3 521.559Z" fill="#D4F1F1"/>
<path d="M432.901 411.755H426.42H353.098C348.414 411.755 344.616 415.553 344.616 420.237V515.004C344.616 519.69 348.414 523.488 353.098 523.488H402.428V500.79H406.54L406.677 499.344C406.813 497.891 407.127 496.493 407.595 495.155H386.098H361.709C361.709 484.06 368.218 474.918 380.657 472.876C382.372 473.447 384.195 473.766 386.099 473.766C388.002 473.766 389.826 473.447 391.54 472.876C402.191 474.625 408.478 481.583 410.071 490.509C410.589 489.81 411.155 489.14 411.785 488.51C415.121 485.167 419.563 483.328 424.294 483.328C425.011 483.328 425.719 483.384 426.42 483.466V441.684H435.445C438.726 441.684 441.384 439.027 441.384 435.747V420.237C441.384 415.553 437.585 411.755 432.901 411.755ZM399.448 456.461C399.448 463.834 393.473 469.81 386.099 469.81C378.724 469.81 372.748 463.834 372.748 456.461V452.673C372.748 445.3 378.724 439.324 386.099 439.324C393.473 439.324 399.448 445.3 399.448 452.673V456.461Z" fill="#D4F1F1"/>
</g>
<g clip-path="url(#clip4_32_6303)">
<path d="M561.498 411.755H496.506C490.636 411.755 485.875 416.515 485.875 422.382V521.127C485.875 526.994 490.636 531.755 496.506 531.755H561.498C567.368 531.755 572.125 526.994 572.125 521.127V422.382C572.125 416.515 567.368 411.755 561.498 411.755ZM566.5 521.127C566.5 523.885 564.255 526.13 561.498 526.13H496.506C493.745 526.13 491.5 523.885 491.5 521.127V422.382C491.5 419.624 493.745 417.38 496.506 417.38H561.498C564.255 417.38 566.5 419.624 566.5 422.382V521.127Z" fill="#D4F1F1"/>
<path d="M512.125 501.755H500.875V513.005H512.125V501.755Z" fill="#D4F1F1"/>
<path d="M512.125 483.005H500.875V494.255H512.125V483.005Z" fill="#D4F1F1"/>
<path d="M512.125 464.255H500.875V475.505H512.125V464.255Z" fill="#D4F1F1"/>
<path d="M534.625 501.755H523.375V513.005H534.625V501.755Z" fill="#D4F1F1"/>
<path d="M534.625 483.005H523.375V494.255H534.625V483.005Z" fill="#D4F1F1"/>
<path d="M534.625 464.255H523.375V475.505H534.625V464.255Z" fill="#D4F1F1"/>
<path d="M557.125 483.005H545.875V513.005H557.125V483.005Z" fill="#D4F1F1"/>
<path d="M557.125 464.255H545.875V475.505H557.125V464.255Z" fill="#D4F1F1"/>
<path d="M557.125 430.505H500.875V449.255H557.125V430.505Z" fill="#D4F1F1"/>
</g>
<g clip-path="url(#clip5_32_6303)">
<path d="M696.921 417.985H695.803V415.711C695.803 413.528 694.034 411.755 691.847 411.755C689.66 411.755 687.886 413.528 687.886 415.711V417.985H677.908V415.711C677.908 413.528 676.136 411.755 673.949 411.755C671.764 411.755 669.99 413.528 669.99 415.711V417.985H660.012V415.711C660.012 413.528 658.238 411.755 656.053 411.755C653.866 411.755 652.094 413.528 652.094 415.711V417.985H642.114V415.711C642.114 413.528 640.34 411.755 638.155 411.755C635.968 411.755 634.197 413.528 634.197 415.711V417.985H633.079C624.055 417.986 616.746 425.297 616.743 434.32V506.178C616.746 520.306 628.193 531.753 642.32 531.754H678.965L713.257 497.463V434.32C713.255 425.297 705.945 417.986 696.921 417.985ZM705.587 493.791H698.163C686.154 493.791 676.421 503.524 676.421 515.533V523.452L675.79 524.083L642.32 524.084C637.363 524.083 632.91 522.086 629.658 518.84C626.411 515.587 624.415 511.134 624.413 506.178V434.32C624.415 431.916 625.377 429.774 626.952 428.193C628.532 426.619 630.675 425.656 633.079 425.654H634.197V429.901C634.197 432.089 635.968 433.86 638.156 433.86C640.341 433.86 642.114 432.088 642.114 429.901V425.654H652.095V429.902C652.095 432.089 653.866 433.86 656.053 433.86C658.239 433.86 660.012 432.089 660.012 429.902V425.654H669.991V429.902C669.991 432.089 671.764 433.86 673.949 433.86C676.137 433.86 677.908 432.089 677.908 429.902V425.654H687.887V429.902C687.887 432.089 689.66 433.86 691.847 433.86C694.034 433.86 695.804 432.089 695.804 429.902V425.654H696.922C699.326 425.656 701.468 426.619 703.049 428.194C704.623 429.774 705.586 431.916 705.588 434.321V493.791H705.587Z" fill="#D4F1F1"/>
<path d="M690.568 451.606H639.434V459.276H690.568V451.606Z" fill="#D4F1F1"/>
<path d="M690.568 472.058H639.434V479.728H690.568V472.058Z" fill="#D4F1F1"/>
<path d="M670.114 492.51H639.434V500.18H670.114V492.51Z" fill="#D4F1F1"/>
</g>
<g clip-path="url(#clip6_32_6303)">
<path d="M848.82 441.996H844.304V463.804H848.82C851.317 463.804 853.346 461.779 853.346 459.281V446.523C853.346 444.025 851.317 441.996 848.82 441.996Z" fill="#D4F1F1"/>
<path d="M848.82 494.332H844.304V516.139H848.82C851.317 516.139 853.346 514.111 853.346 511.613V498.854C853.346 496.357 851.317 494.332 848.82 494.332Z" fill="#D4F1F1"/>
<path d="M848.82 468.166H844.304V489.97H848.82C851.317 489.97 853.346 487.945 853.346 485.447V472.689C853.346 470.195 851.317 468.166 848.82 468.166Z" fill="#D4F1F1"/>
<path d="M827.155 433.515H820.402V470.327C820.402 471.506 819.735 472.575 818.681 473.099C817.626 473.615 816.366 473.491 815.436 472.773L806.251 465.708L797.067 472.773C796.136 473.491 794.88 473.615 793.826 473.099C792.771 472.575 792.101 471.506 792.101 470.327V433.515H763.449C761.515 433.515 759.798 432.738 758.527 431.475C757.26 430.197 756.487 428.483 756.487 426.55C756.487 424.616 757.26 422.898 758.527 421.624C759.798 420.36 761.515 419.584 763.449 419.584H825.8C827.96 419.584 829.711 417.834 829.711 415.669C829.711 413.505 827.96 411.755 825.8 411.755H763.449C759.376 411.755 755.656 413.417 752.99 416.091C750.316 418.753 748.654 422.477 748.654 426.55V522.087C748.654 527.426 752.982 531.755 758.322 531.755H827.155C834.516 531.755 840.478 525.793 840.478 518.439V446.83C840.478 439.477 834.516 433.515 827.155 433.515Z" fill="#D4F1F1"/>
</g>
<g clip-path="url(#clip7_32_6303)">
<path d="M985.971 475.41C979.215 448.471 953.049 438.338 950.76 435.873L957.194 412.451C957.194 412.451 949.16 409.854 937.891 414.692C923.562 420.844 915.578 413 915.578 413L922.65 436.24C920.434 438.763 892.602 450.075 887.567 476.695C883.22 499.594 896.821 532.275 937.47 531.747C978.123 531.213 991.655 498.027 985.971 475.41ZM956.1 477.706V484.093H942.941L940.748 487.509V491.582H956.1V497.972H940.748V509.097H933.255V497.972H917.904V491.582H933.255V487.509L931.058 484.093H917.904V477.706H926.949L916.186 460.959H923.858L937.001 481.408L950.149 460.959H957.813L947.054 477.706H956.1Z" fill="#D4F1F1"/>
</g>
<g clip-path="url(#clip8_32_6303)">
<path d="M1105.5 411.755H1040.51C1034.64 411.755 1029.88 416.515 1029.88 422.382V521.127C1029.88 526.994 1034.64 531.755 1040.51 531.755H1105.5C1111.37 531.755 1116.12 526.994 1116.12 521.127V422.382C1116.12 416.515 1111.37 411.755 1105.5 411.755ZM1110.5 521.127C1110.5 523.885 1108.26 526.13 1105.5 526.13H1040.51C1037.74 526.13 1035.5 523.885 1035.5 521.127V422.382C1035.5 419.624 1037.74 417.38 1040.51 417.38H1105.5C1108.26 417.38 1110.5 419.624 1110.5 422.382V521.127Z" fill="#D4F1F1"/>
<path d="M1056.12 501.755H1044.88V513.005H1056.12V501.755Z" fill="#D4F1F1"/>
<path d="M1056.12 483.005H1044.88V494.255H1056.12V483.005Z" fill="#D4F1F1"/>
<path d="M1056.12 464.255H1044.88V475.505H1056.12V464.255Z" fill="#D4F1F1"/>
<path d="M1078.62 501.755H1067.38V513.005H1078.62V501.755Z" fill="#D4F1F1"/>
<path d="M1078.62 483.005H1067.38V494.255H1078.62V483.005Z" fill="#D4F1F1"/>
<path d="M1078.62 464.255H1067.38V475.505H1078.62V464.255Z" fill="#D4F1F1"/>
<path d="M1101.12 483.005H1089.88V513.005H1101.12V483.005Z" fill="#D4F1F1"/>
<path d="M1101.12 464.255H1089.88V475.505H1101.12V464.255Z" fill="#D4F1F1"/>
<path d="M1101.12 430.505H1044.88V449.255H1101.12V430.505Z" fill="#D4F1F1"/>
</g>
<g clip-path="url(#clip9_32_6303)">
<path d="M1200.52 504.141H1173.04V509.255H1200.52V504.141Z" fill="#D4F1F1"/>
<path d="M1210.61 483.399H1173.04V488.513H1210.61V483.399Z" fill="#D4F1F1"/>
<path d="M1226.57 462.662H1173.04V467.776H1226.57V462.662Z" fill="#D4F1F1"/>
<path d="M1226.57 441.925H1201.34V447.039H1226.57V441.925Z" fill="#D4F1F1"/>
<path d="M1241.05 520.842C1241.05 523.474 1238.91 525.619 1236.28 525.619H1163.33C1160.7 525.619 1158.55 523.474 1158.55 520.842V453.004H1187.75C1190.97 453.004 1193.6 450.377 1193.6 447.148V417.891H1236.28C1238.91 417.891 1241.05 420.032 1241.05 422.664V457.133L1247.19 450.997V422.663C1247.19 416.65 1242.3 411.755 1236.28 411.755H1192.02C1188.83 411.755 1185.79 413.015 1183.54 415.263L1155.93 442.875C1153.68 445.123 1152.42 448.173 1152.42 451.352V520.842C1152.42 526.86 1157.31 531.755 1163.33 531.755H1236.28C1242.3 531.755 1247.19 526.86 1247.19 520.842V491.496L1241.05 497.632V520.842ZM1188.15 419.335V443.864C1188.15 446.517 1187.11 447.549 1184.46 447.549H1159.93L1188.15 419.335Z" fill="#D4F1F1"/>
<path d="M1264.73 460.211L1258.23 453.704C1257.09 452.572 1255.26 452.572 1254.13 453.704L1249.91 457.923L1260.52 468.529L1264.73 464.311C1265.86 463.178 1265.86 461.343 1264.73 460.211Z" fill="#D4F1F1"/>
<path d="M1210.62 497.215L1207 511.438L1221.22 507.821L1210.62 497.215Z" fill="#D4F1F1"/>
<path d="M1212.79 495.045L1223.39 505.651L1258.59 470.458L1247.98 459.85L1212.79 495.045ZM1252.08 468.771L1221.42 499.434L1219.01 497.021L1249.67 466.358L1252.08 468.771Z" fill="#D4F1F1"/>
</g>
<g clip-path="url(#clip10_32_6303)">
<path d="M1393.97 475.41C1387.21 448.471 1361.05 438.338 1358.76 435.873L1365.19 412.451C1365.19 412.451 1357.16 409.854 1345.89 414.692C1331.56 420.844 1323.58 413 1323.58 413L1330.65 436.24C1328.43 438.763 1300.6 450.075 1295.57 476.695C1291.22 499.594 1304.82 532.275 1345.47 531.747C1386.12 531.213 1399.65 498.027 1393.97 475.41ZM1364.1 477.706V484.093H1350.94L1348.75 487.509V491.582H1364.1V497.972H1348.75V509.097H1341.26V497.972H1325.9V491.582H1341.26V487.509L1339.06 484.093H1325.9V477.706H1334.95L1324.19 460.959H1331.86L1345 481.408L1358.15 460.959H1365.81L1355.05 477.706H1364.1Z" fill="#D4F1F1"/>
</g>
<path d="M912.574 312.705H907.426V307.873C907.426 306.611 906.344 305.595 905 305.595C903.656 305.595 902.574 306.611 902.574 307.873V312.705H897.426C896.082 312.705 895 313.72 895 314.982C895 316.244 896.082 317.259 897.426 317.259H902.574V322.091C902.574 323.353 903.656 324.369 905 324.369C906.344 324.369 907.426 323.353 907.426 322.091V317.259H912.574C913.918 317.259 915 316.244 915 314.982C915 313.72 913.918 312.705 912.574 312.705Z" fill="#E5D3C6"/>
<path d="M194.574 129.665H189.426V124.834C189.426 123.572 188.344 122.556 187 122.556C185.656 122.556 184.574 123.572 184.574 124.834V129.665H179.426C178.082 129.665 177 130.681 177 131.943C177 133.205 178.082 134.22 179.426 134.22H184.574V139.052C184.574 140.314 185.656 141.329 187 141.329C188.344 141.329 189.426 140.314 189.426 139.052V134.22H194.574C195.918 134.22 197 133.205 197 131.943C197 130.681 195.918 129.665 194.574 129.665Z" fill="#E5D3C6"/>
<path d="M141.983 268.959C144.976 265.346 142.926 262.417 137.403 262.417C131.88 262.417 124.976 265.346 121.983 268.959L-149.579 596.712C-152.573 600.325 -150.523 603.254 -145 603.254C-139.477 603.254 -132.573 600.325 -129.579 596.712L141.983 268.959Z" fill="#D4F1F1"/>
<path d="M219.84 232.523C222.913 228.815 220.926 225.809 215.403 225.809C209.88 225.809 202.913 228.815 199.84 232.523L-71.4367 559.932C-74.5092 563.64 -72.5227 566.646 -66.9999 566.646C-61.477 566.646 -54.5092 563.64 -51.4367 559.932L219.84 232.523Z" fill="#E9FAFA"/>
</g>
<defs>
<clipPath id="clip0_32_6303">
<rect width="1440" height="557" fill="white"/>
</clipPath>
<clipPath id="clip1_32_6303">
<rect width="120" height="120" fill="white" transform="translate(61 411.755)"/>
</clipPath>
<clipPath id="clip2_32_6303">
<rect width="120" height="120" fill="white" transform="translate(197 411.755)"/>
</clipPath>
<clipPath id="clip3_32_6303">
<rect width="120" height="120" fill="white" transform="translate(333 411.755)"/>
</clipPath>
<clipPath id="clip4_32_6303">
<rect width="120" height="120" fill="white" transform="translate(469 411.755)"/>
</clipPath>
<clipPath id="clip5_32_6303">
<rect width="120" height="120" fill="white" transform="translate(605 411.755)"/>
</clipPath>
<clipPath id="clip6_32_6303">
<rect width="120" height="120" fill="white" transform="translate(741 411.755)"/>
</clipPath>
<clipPath id="clip7_32_6303">
<rect width="120" height="120" fill="white" transform="translate(877 411.755)"/>
</clipPath>
<clipPath id="clip8_32_6303">
<rect width="120" height="120" fill="white" transform="translate(1013 411.755)"/>
</clipPath>
<clipPath id="clip9_32_6303">
<rect width="120" height="120" fill="white" transform="translate(1149 411.755)"/>
</clipPath>
<clipPath id="clip10_32_6303">
<rect width="120" height="120" fill="white" transform="translate(1285 411.755)"/>
</clipPath>
</defs>
</svg>
