<svg width="242" height="425" viewBox="0 0 242 425" fill="none" xmlns="http://www.w3.org/2000/svg">
<g clip-path="url(#clip0_1_2331)">
<path d="M183.204 401.777L180.531 393.318C180.531 393.318 176.964 383.081 181.868 381.298L211.137 397.173L227.333 412.013C227.333 412.013 230.007 416.168 216.19 414.389L198.807 410.678L190.337 401.333C190.337 401.333 191.23 405.338 183.204 401.777Z" fill="#231815"/>
<path d="M222.082 415.885C220.414 415.885 218.414 415.73 216.056 415.425C216.03 415.425 215.998 415.415 215.971 415.409L198.588 411.698C198.374 411.65 198.176 411.538 198.032 411.378L190.786 403.384C190.706 403.475 190.615 403.56 190.519 403.64C189.156 404.756 186.696 404.468 182.782 402.732C182.509 402.61 182.301 402.38 182.21 402.092L179.536 393.633C179.387 393.206 175.708 382.425 181.515 380.321C181.798 380.219 182.108 380.241 182.37 380.385L211.64 396.26C211.715 396.303 211.784 396.351 211.848 396.41L228.044 411.25C228.109 411.308 228.167 411.378 228.216 411.452C228.52 411.928 228.868 412.996 228.232 414C227.435 415.26 225.44 415.885 222.088 415.885H222.082ZM216.367 413.359C225.104 414.475 226.344 413.06 226.456 412.894C226.51 412.814 226.499 412.723 226.478 412.654L210.528 398.039L181.836 382.473C179.162 384.069 180.723 390.68 181.525 392.982L184.065 401.013C188.108 402.738 189.086 402.113 189.193 402.033C189.38 401.889 189.321 401.547 189.321 401.542C189.241 401.082 189.471 400.612 189.888 400.41C190.305 400.207 190.808 400.292 191.123 400.634L199.363 409.733L216.372 413.364L216.367 413.359Z" fill="#231815"/>
<path d="M173.398 409.792L170.724 401.333C170.724 401.333 167.158 391.097 172.061 389.313L203.705 406.23L217.521 420.029C217.521 420.029 221.981 424.183 208.164 422.405L193.503 419.964C190.562 419.137 187.91 417.497 185.862 415.233L180.531 409.349C180.531 409.349 181.424 413.354 173.398 409.792Z" fill="#231815"/>
<path d="M213.875 423.905C212.084 423.905 210.036 423.697 208.031 423.435L193.332 420.99C193.294 420.984 193.257 420.974 193.219 420.963C190.086 420.082 187.274 418.336 185.087 415.927L180.98 411.399C180.9 411.49 180.809 411.575 180.713 411.655C179.349 412.771 176.89 412.483 172.976 410.742C172.703 410.619 172.494 410.39 172.403 410.101L169.73 401.643C169.58 401.216 165.902 390.435 171.708 388.331C171.986 388.229 172.297 388.25 172.559 388.389L204.202 405.306C204.293 405.354 204.379 405.413 204.448 405.488L218.265 419.286C218.944 419.916 219.585 421.07 219.072 422.159C218.452 423.478 216.425 423.905 213.875 423.905ZM193.733 418.939L208.335 421.369C215.516 422.293 216.933 421.476 217.153 421.289C217.11 421.144 216.928 420.899 216.81 420.792L203.079 407.079L172.029 390.483C168.826 392.352 171.687 400.901 171.714 400.992L174.254 409.023C178.296 410.748 179.28 410.123 179.381 410.043C179.568 409.899 179.51 409.557 179.51 409.551C179.429 409.092 179.659 408.622 180.076 408.419C180.494 408.217 180.996 408.302 181.312 408.644L186.643 414.528C188.551 416.638 191.006 418.159 193.738 418.939H193.733Z" fill="#231815"/>
<path d="M198.358 365.721L196.278 383.231C196.278 383.231 210.394 395.994 212.618 398.215C212.618 398.215 219.751 404.89 208.608 404.89C208.608 404.89 201.924 403.555 195.684 399.55C195.684 399.55 188.108 394.653 183.648 384.417L184.985 366.613L198.358 365.721Z" fill="white"/>
<path d="M208.613 405.942C208.544 405.942 208.474 405.937 208.41 405.92C208.127 405.867 201.459 404.5 195.123 400.431C194.802 400.223 187.225 395.241 182.696 384.833C182.627 384.678 182.6 384.507 182.611 384.336L183.948 366.533C183.985 366.015 184.402 365.604 184.921 365.567L198.294 364.675C198.604 364.653 198.909 364.771 199.122 364.995C199.336 365.22 199.438 365.529 199.401 365.839L197.363 383.007C197.732 383.584 199.026 385.378 202.635 388.689C203.063 389.078 203.09 389.741 202.7 390.162C202.309 390.584 201.646 390.616 201.224 390.226C196.374 385.778 195.422 383.861 195.331 383.653C195.251 383.482 195.225 383.29 195.246 383.098L197.176 366.838L185.969 367.585L184.718 384.224C189.011 393.9 196.187 398.615 196.256 398.664C201.817 402.236 207.838 403.646 208.71 403.833C212.592 403.726 213.19 402.77 213.281 402.476C213.784 400.848 209.811 397.083 206.967 395.048C206.496 394.712 206.389 394.061 206.726 393.591C207.063 393.121 207.715 393.014 208.186 393.35C209.571 394.338 216.409 399.443 215.286 403.09C214.725 404.911 212.549 405.84 208.64 405.926H208.619L208.613 405.942Z" fill="#231815"/>
<path d="M172.061 389.313L169.832 371.51L184.985 366.613L185.878 387.685L203.705 406.23C203.705 406.23 205.485 411.57 199.695 412.019C199.695 412.019 189.444 412.462 180.975 402.674C180.975 402.674 171.617 391.989 172.061 389.319V389.313Z" fill="white"/>
<path d="M199.465 413.065C197.598 413.065 188.172 412.585 180.183 403.352C180.162 403.331 177.798 400.623 175.515 397.628C171.462 392.298 170.917 390.349 171.002 389.319L168.789 371.638C168.719 371.067 169.126 370.543 169.698 370.474C170.265 370.405 170.794 370.81 170.863 371.382L173.093 389.185C173.104 389.287 173.104 389.388 173.088 389.484C172.911 390.691 176.884 396.415 181.755 401.98C185.942 406.823 190.572 409.007 193.722 409.99C197.149 411.058 199.62 410.977 199.646 410.972C201.004 410.865 201.967 410.438 202.464 409.696C203.138 408.687 202.892 407.288 202.764 406.764L185.118 388.406C184.942 388.224 184.84 387.978 184.83 387.727L184.552 381.197C184.53 380.62 184.974 380.134 185.552 380.107C186.15 380.086 186.616 380.529 186.642 381.106L186.904 387.241L204.459 405.504C204.566 405.616 204.646 405.75 204.699 405.899C204.737 406.011 205.619 408.735 204.218 410.844C203.346 412.152 201.855 412.9 199.775 413.06C199.737 413.06 199.63 413.06 199.465 413.06V413.065Z" fill="#231815"/>
<path d="M160.918 179.512C160.918 179.512 150.668 202.212 152.448 213.341C152.448 213.341 155.122 235.154 156.015 241.829L159.581 305.481L164.928 376.406C164.928 376.406 178.301 380.411 186.771 375.963L187.215 372.85C187.215 372.85 197.914 374.628 202.817 371.072C202.817 371.072 217.078 274.777 217.078 259.2C217.078 259.2 220.195 207.12 213.96 183.085L210.394 172.848L160.918 179.523V179.512Z" fill="#1EAEB2"/>
<path d="M176.622 379.114C170.446 379.114 164.987 377.512 164.629 377.405C164.212 377.282 163.918 376.914 163.886 376.481L158.539 305.556L154.972 241.926C154.085 235.272 151.438 213.683 151.411 213.469C149.604 202.202 159.539 180.02 159.966 179.085C160.116 178.754 160.421 178.53 160.779 178.482L210.255 171.807C210.747 171.743 211.217 172.031 211.383 172.501L214.95 182.738C214.95 182.738 214.966 182.791 214.976 182.818C221.125 206.495 218.222 257.684 218.131 259.227C218.115 274.798 204.437 367.291 203.855 371.221C203.812 371.499 203.662 371.75 203.432 371.916C199.128 375.045 191.016 374.388 188.108 374.03L187.808 376.113C187.76 376.444 187.557 376.732 187.257 376.892C184.044 378.58 180.21 379.125 176.622 379.125V379.114ZM165.918 375.59C168.645 376.289 178.884 378.569 185.814 375.269L186.183 372.695C186.22 372.418 186.375 372.167 186.6 372.001C186.83 371.836 187.113 371.771 187.391 371.814C187.493 371.83 197.203 373.395 201.849 370.458C202.913 363.26 216.035 273.971 216.035 259.19C216.035 259.168 216.035 259.147 216.035 259.126C216.067 258.608 219.072 206.992 212.955 183.373L209.683 173.98L161.635 180.463C160.132 183.918 151.914 203.398 153.48 213.17C153.513 213.426 156.17 235.091 157.052 241.685C157.052 241.712 157.058 241.739 157.058 241.765L160.624 305.417L165.918 375.584V375.59Z" fill="#1EAEB2"/>
<path d="M78.938 401.333C78.938 401.333 74.5855 391.775 83.2904 385.693L96.3425 386.563L109.394 406.55L123.126 415.799L124.527 416.744C126.473 418.058 126.542 420.909 124.644 422.293C121.415 424.647 111.303 424.172 104.609 422.629L89.3807 411.767L80.371 408.638C79.7668 408.43 79.3497 407.88 79.3069 407.239L78.938 401.339V401.333Z" fill="#231815"/>
<path d="M116.148 425C112.047 425 107.566 424.423 104.363 423.686C104.224 423.654 104.09 423.596 103.973 423.51L88.8726 412.739L80.0126 409.664C78.9914 409.311 78.2856 408.382 78.216 407.303L77.8578 401.584C77.2696 400.094 74.0507 390.819 82.6594 384.801C82.8626 384.657 83.1139 384.587 83.3599 384.603L96.4119 385.474C96.7541 385.495 97.0696 385.677 97.2567 385.965L110.186 405.765L125.136 415.831C126.35 416.648 127.093 418.015 127.12 419.478C127.146 420.931 126.462 422.314 125.286 423.168C123.452 424.503 119.965 425.005 116.148 425.005V425ZM105.063 421.598C111.838 423.12 121.297 423.361 123.997 421.395C124.607 420.952 124.943 420.263 124.933 419.51C124.917 418.747 124.548 418.063 123.912 417.636L108.78 407.448C108.657 407.367 108.555 407.261 108.475 407.138L95.7221 387.61L83.6112 386.803C76.1895 392.282 79.7827 400.522 79.9378 400.874C79.9912 400.992 80.0233 401.125 80.034 401.259L80.403 407.159C80.4137 407.357 80.542 407.528 80.7291 407.592L89.7388 410.721C89.8351 410.753 89.9313 410.801 90.0169 410.865L105.063 421.598Z" fill="#231815"/>
<path d="M13.0628 405.611C13.0628 405.611 30.4727 397.585 33.8199 392.907L61.2714 384.214C61.2714 384.214 63.5332 390.985 63.8112 398.316C63.9075 400.762 62.6456 405.365 62.143 407.704L49.2139 409.621L45.8667 404.938C45.8667 404.938 36.6217 409.055 35.285 413.065C35.285 413.065 30.5422 415.527 16.4849 416.194C16.4849 416.194 10.9614 416.686 3.98895 415.062C0.443888 414.235 0.320906 409.242 3.82319 408.243L13.0628 405.605V405.611Z" fill="#231815"/>
<path d="M14.3354 417.54C12.0415 417.54 8.17561 417.343 3.70552 416.301C1.54533 415.799 0.0588606 413.973 0.00539054 411.757C-0.0480795 409.541 1.34749 407.645 3.48094 407.036L12.6243 404.425C17.4527 402.193 30.2213 395.769 32.7932 392.175C32.9536 391.951 33.1782 391.791 33.4402 391.706L60.8917 383.012C61.5494 382.804 62.2552 383.162 62.4744 383.818C62.5707 384.101 64.795 390.846 65.0784 398.274C65.1586 400.378 64.394 403.646 63.7737 406.268C63.624 406.908 63.485 407.49 63.3834 407.976C63.2711 408.489 62.8541 408.884 62.3354 408.959L49.4063 410.876C48.9358 410.945 48.4706 410.748 48.1926 410.363L45.4549 406.535C42.0542 408.185 37.258 411.164 36.488 413.476C36.3864 413.786 36.1618 414.048 35.8731 414.197C35.6699 414.304 30.7239 416.793 16.549 417.465C16.4795 417.471 15.6828 417.54 14.3407 417.54H14.3354ZM34.5791 393.991C32.8948 396.052 28.938 398.786 22.789 402.124C18.0355 404.703 13.6349 406.737 13.5921 406.759C13.5333 406.785 13.4745 406.807 13.4103 406.828L4.17071 409.466C2.9302 409.819 2.50779 410.849 2.52918 411.698C2.55056 412.542 3.0211 413.551 4.27765 413.845C10.9721 415.404 16.3191 414.956 16.3726 414.95C27.7403 414.411 32.9162 412.681 34.3118 412.125C36.2848 407.934 44.4016 404.222 45.3587 403.795C45.9094 403.55 46.551 403.726 46.904 404.212L49.802 408.265L61.1056 406.588C61.1698 406.305 61.2393 406.006 61.3141 405.691C61.8649 403.347 62.6188 400.132 62.5493 398.37C62.3461 393.083 61.0682 388.032 60.4319 385.805L34.5791 393.991Z" fill="#231815"/>
<path d="M99.2564 379.466L101.336 387.076C98.5667 392.608 94.134 393.163 94.134 393.163C84.1565 393.163 78.0609 387.631 78.0609 387.631C78.0609 378.777 73.6282 311.254 73.6282 311.254L65.3136 257.572V301.295L63.6507 387.081C55.3361 391.508 34.2796 390.403 34.2796 390.403C35.1565 386.269 38.1295 383.792 38.7123 378.783C39.0064 376.273 37.0066 371.472 37.2365 368.835C37.3969 366.992 40.2415 364.611 40.3752 362.731C42.3108 335.326 38.7123 305.727 38.7123 305.727C38.7123 292.447 27.628 218.28 27.628 218.28C26.5211 211.088 30.3977 199.463 30.3977 199.463L38.1562 169.025L91.3589 176.218L96.8984 192.82C97.4545 198.352 96.3423 273.068 96.3423 273.068C97.9357 291.368 98.5773 332.902 99.6681 356.222L100.497 368.674L99.2511 379.466H99.2564Z" fill="white"/>
<path d="M99.2564 379.466L101.336 387.076C98.5667 392.608 94.134 393.163 94.134 393.163C84.1565 393.163 78.0609 387.631 78.0609 387.631C78.0609 378.777 73.6282 311.254 73.6282 311.254L65.3137 257.572V301.295L63.6507 387.081C55.3362 391.508 38.0226 390.403 38.0226 390.403C38.8995 386.269 41.8724 383.792 42.4552 378.783C42.7493 376.273 40.7495 371.472 40.9795 368.835C41.1399 366.992 43.9845 364.611 44.1181 362.731C46.0538 335.326 42.4552 305.727 42.4552 305.727C42.4552 292.447 31.3709 218.28 31.3709 218.28C30.2641 211.088 34.1406 199.463 34.1406 199.463L41.8991 169.025L91.3589 176.218L96.8984 192.82C97.4545 198.352 96.3423 273.068 96.3423 273.068C97.9357 291.368 98.5774 332.902 99.6682 356.222L100.497 368.674L99.2511 379.466H99.2564Z" fill="#B5B5B6"/>
<path d="M40.14 391.567C36.8302 391.567 34.5042 391.449 34.2209 391.433C33.9161 391.417 33.6327 391.268 33.4455 391.027C33.2584 390.787 33.1889 390.472 33.253 390.173C33.6701 388.192 34.531 386.574 35.3651 385.009C36.3971 383.071 37.3702 381.239 37.6697 378.649C37.798 377.565 37.3702 375.771 36.9639 374.03C36.5201 372.151 36.0602 370.201 36.1886 368.733C36.2901 367.542 37.1243 366.362 37.9317 365.219C38.5626 364.322 39.2845 363.308 39.3272 362.645C41.2308 335.652 37.7071 306.133 37.6697 305.839C37.6697 305.797 37.6643 305.754 37.6643 305.711C37.6643 294.641 29.8042 240.254 27.3927 223.85C27.3072 223.279 27.7029 222.75 28.275 222.664C28.8471 222.579 29.3765 222.974 29.462 223.546C31.8735 239.955 39.7229 294.3 39.755 305.647C39.9368 307.206 43.2894 336.202 41.4126 362.79C41.327 364.029 40.4662 365.246 39.6374 366.421C39.0225 367.291 38.322 368.284 38.2685 368.909C38.1669 370.047 38.5894 371.825 38.9957 373.55C39.4663 375.552 39.9101 377.442 39.7443 378.89C39.3968 381.869 38.2846 383.963 37.2098 385.992C36.6056 387.124 36.0281 388.213 35.6271 389.399C40.1881 389.543 55.5394 389.756 62.6081 386.419L64.1266 308.098C64.1373 307.527 64.6025 307.073 65.1747 307.073H65.196C65.7735 307.083 66.2334 307.559 66.2227 308.135L64.6934 387.086C64.6881 387.465 64.4742 387.807 64.1373 387.989C58.3947 391.049 47.0964 391.561 40.1346 391.561L40.14 391.567Z" fill="#231815"/>
<path d="M94.1286 394.204C83.8677 394.204 77.6171 388.635 77.3551 388.4C77.1359 388.202 77.0129 387.919 77.0129 387.626C77.0129 379.002 72.7192 313.449 72.5856 311.366L66.3616 271.162V301.818C66.3616 302.395 65.8911 302.865 65.3136 302.865C64.7362 302.865 64.2656 302.395 64.2656 301.818V257.566C64.2656 257.022 64.688 256.568 65.2334 256.525C65.7788 256.488 66.2654 256.867 66.3456 257.406L74.6602 311.088C74.6602 311.12 74.6655 311.147 74.6709 311.179C74.8473 313.892 78.9645 376.657 79.1036 387.129C80.4777 388.213 85.9531 392.09 94.0538 392.111C94.5297 392.031 97.8876 391.305 100.219 386.948L98.2458 379.728C98.2084 379.6 98.203 379.466 98.2137 379.333L99.4489 368.637L98.6255 356.28C98.2137 347.448 97.8662 336.191 97.5026 324.273C96.9037 304.723 96.2888 284.506 95.2996 273.143C95.2515 272.566 95.6739 272.059 96.2514 272.011C96.8235 271.963 97.3315 272.385 97.385 272.961C98.3795 284.383 98.9944 304.627 99.5933 324.209C99.9569 336.117 100.299 347.368 100.711 356.157L101.54 368.589C101.54 368.653 101.54 368.717 101.54 368.776L100.315 379.365L102.342 386.782C102.411 387.028 102.384 387.295 102.267 387.524C99.2778 393.489 94.4602 394.156 94.257 394.183C94.2142 394.183 94.1714 394.188 94.1286 394.188V394.204Z" fill="#231815"/>
<path d="M29.232 208.3L27.2108 207.675C26.5371 211.205 26.0933 215.21 26.5906 218.43C26.6761 219.001 27.2162 219.391 27.783 219.306C28.3551 219.22 28.7454 218.686 28.6599 218.115C28.2161 215.247 28.6171 211.589 29.232 208.3Z" fill="#231815"/>
<path d="M97.941 192.713C97.9356 192.638 97.9196 192.558 97.8928 192.489L95.8717 193.033C96.2192 197.236 95.8663 233.344 95.4172 265.971C95.4065 266.548 95.8717 267.023 96.4491 267.029H96.4652C97.0373 267.029 97.5025 266.569 97.5132 265.998C97.7324 249.989 98.4168 197.385 97.9463 192.713H97.941Z" fill="#231815"/>
<path d="M65.3082 258.613C64.811 258.613 64.3672 258.255 64.2816 257.748C61.0574 239.512 57.2877 233.868 57.2503 233.809L51.1494 224.95C50.8232 224.475 50.9408 223.823 51.4167 223.498C51.8926 223.172 52.5449 223.289 52.8711 223.765L58.9667 232.618C59.1271 232.842 63.0144 238.551 66.3402 257.379C66.4418 257.945 66.0622 258.49 65.49 258.592C65.4312 258.602 65.367 258.608 65.3082 258.608V258.613Z" fill="#231815"/>
<path d="M38.7124 231.497C38.1563 231.497 37.6965 231.064 37.6697 230.503L36.5629 207.814C36.5362 207.237 36.98 206.746 37.5575 206.719C38.1349 206.693 38.6269 207.136 38.6536 207.713L39.7604 230.402C39.7872 230.979 39.3434 231.47 38.7659 231.497C38.7498 231.497 38.7338 231.497 38.7124 231.497Z" fill="#231815"/>
<path d="M73.6229 232.602C73.0882 232.602 72.6337 232.196 72.5803 231.657L70.3613 208.412C70.3078 207.836 70.7302 207.328 71.3023 207.275C71.8798 207.221 72.3878 207.643 72.4412 208.215L74.6602 231.459C74.7137 232.036 74.2913 232.543 73.7192 232.597C73.6871 232.597 73.6497 232.597 73.6176 232.597L73.6229 232.602Z" fill="#231815"/>
<path d="M210.094 138.876H171.772V184.19H210.094V138.876Z" fill="#231815"/>
<path d="M210.095 185.253H171.773C171.184 185.253 170.708 184.778 170.708 184.19V138.876C170.708 138.288 171.184 137.813 171.773 137.813H210.095C210.683 137.813 211.159 138.288 211.159 138.876V184.19C211.159 184.778 210.683 185.253 210.095 185.253ZM172.837 183.128H209.03V139.938H172.837V183.128Z" fill="#231815"/>
<path d="M72.9012 5.62827C72.6819 5.49478 72.5429 5.2705 72.5215 5.00884C72.5001 4.75253 72.6017 4.51223 72.7942 4.34669L72.837 4.30931C73.222 3.96755 73.3717 3.45492 73.222 2.95831C73.0723 2.45635 72.6605 2.10926 72.1472 2.04518C69.8373 1.76216 66.7895 0.731555 66.4473 0.614077C66.4099 0.598057 66.3725 0.587377 66.3297 0.576697C58.09 -1.47384 52.8552 2.3549 50.4705 4.8166C50.3582 4.93408 50.2138 5.01418 50.0534 5.04088C46.8719 5.65497 41.033 7.52929 37.7286 13.2163C34.6594 18.4868 34.4402 25.7919 37.0655 34.9392C37.2153 34.7309 37.5093 35.1795 37.8622 35.863C38.6483 35.6227 39.4984 35.644 40.0385 35.6227L40.4876 30.2027C41.9153 22.3102 42.2361 22.2248 47.0484 17.3654C47.0484 17.3654 50.3475 15.945 52.8499 13.7557C62.544 9.38225 68.9765 15.9397 73.8422 23.437C76.8259 25.8987 78.3498 35.8256 78.3498 35.8256C79.6544 35.2756 80.6008 35.3076 81.2906 35.6494C82.4616 30.6298 83.4561 24.6545 83.4722 24.4195V24.3501C83.8465 13.5047 76.2003 7.64143 72.9012 5.62827Z" fill="#1EAEB2"/>
<path d="M41.2956 47.7875C41.2956 47.7875 41.2902 47.7552 41.2848 47.7444C41.15 47.8252 41.2255 47.8145 41.2956 47.7875Z" fill="white"/>
<path d="M78.3443 35.831C78.3443 35.831 76.8204 25.9041 73.8368 23.4424C68.971 15.9451 62.5439 9.38769 52.8445 13.7611C50.3421 15.9451 47.043 17.3709 47.043 17.3709C42.2307 22.2302 41.9098 22.3157 40.4822 30.2081L40.033 35.6281C38.8353 35.6762 36.1297 35.5106 35.9051 38.4316C35.9051 38.4316 35.579 42.1215 37.5681 45.5764C37.5681 45.5764 38.3862 46.9541 39.7871 47.5148C40.2897 47.7391 40.7923 47.8139 41.2789 47.7391C41.2789 47.7551 41.2896 47.7658 41.2949 47.7818C41.851 49.9872 43.1396 54.2057 47.4386 58.1626C48.5134 59.2306 49.7378 60.2452 51.1495 61.1477C51.2404 65.0885 49.9464 67.7318 49.9464 67.7318L43.6209 73.0504L42.4018 85.9036C42.498 85.1186 43.4925 109.939 43.6102 109.255L54.5288 100.252L67.5754 75.8485C67.8802 75.5441 77.2268 65.6973 77.5476 65.3876L74.6923 59.6578L73.8582 60.4802L73.5748 54.9961C75.2858 52.9028 75.9702 51.1994 76.8364 47.8779C77.0236 47.958 77.2161 48.0221 77.4193 48.0595C78.3122 48.2037 79.7826 47.4774 80.5633 46.356C82.007 44.5832 82.8786 43.8036 83.1138 40.0389C83.1138 40.0389 83.3277 33.7324 78.3443 35.831Z" fill="white"/>
<path d="M44.3586 126.209L42.7866 100.749L47.2674 87.3027L45.8879 82.689L51.5183 77.7976L55.3414 81.6691L52.3685 87.9275L54.5286 100.257L44.3586 126.209Z" fill="#1EAEB2"/>
<path d="M52.4488 75.6295C52.3579 75.6295 52.2616 75.6188 52.1707 75.5921C51.8927 75.512 51.6681 75.3091 51.5505 75.0421L49.1657 69.4245L47.2729 71.8809C46.9467 72.3027 46.3371 72.3828 45.9094 72.0571C45.487 71.7314 45.4068 71.1226 45.7329 70.6954L48.6364 66.9254C48.8449 66.6531 49.1871 66.5089 49.5293 66.557C49.8715 66.5997 50.1656 66.824 50.2993 67.139L52.8765 73.1998L73.5534 58.8568C73.794 58.6966 74.1041 58.5844 74.3875 58.5417C74.7832 58.4776 75.4623 59.0063 75.5746 59.2679L76.6279 61.6496C76.8418 62.1408 76.6226 62.7122 76.1306 62.9258C75.6387 63.1447 75.0666 62.9205 74.8527 62.4292L74.2699 61.1102L52.9835 75.4586C52.8231 75.5654 52.6306 75.6242 52.4381 75.6242L52.4488 75.6295Z" fill="#231815"/>
<path d="M57.9134 86.2026C57.9134 86.2026 57.876 86.2026 57.86 86.2026C57.5819 86.1866 57.3253 86.0531 57.1542 85.8395L51.5024 78.732L45.9843 83.5273C45.5779 83.8797 44.9684 83.837 44.6155 83.4312C44.2626 83.0253 44.3053 82.4166 44.7117 82.0641L50.9944 76.6014C51.1923 76.4252 51.4543 76.3451 51.7216 76.3664C51.9836 76.3931 52.2296 76.5213 52.3953 76.7295L57.999 83.7782L63.7149 78.0058C64.0946 77.6266 64.7041 77.6213 65.0891 78.0004C65.4688 78.3796 65.4741 78.9883 65.0945 79.3728L58.6086 85.9249C58.4268 86.1118 58.1755 86.2133 57.9188 86.2133L57.9134 86.2026Z" fill="#231815"/>
<path d="M51.1441 66.0604C50.6094 66.0604 50.1709 65.6279 50.1709 65.0886V61.9487C50.1709 61.4147 50.604 60.9768 51.1441 60.9768C51.6841 60.9768 52.1172 61.4093 52.1172 61.9487V65.0886C52.1172 65.6225 51.6841 66.0604 51.1441 66.0604Z" fill="#231815"/>
<path d="M67.4364 33.3853C66.5595 33.3853 65.8484 34.0955 65.8484 34.9659C65.8484 35.8363 66.5595 36.5518 67.4364 36.5518C68.3134 36.5518 69.0192 35.8416 69.0192 34.9659C69.0192 34.0901 68.308 33.3853 67.4364 33.3853Z" fill="#231815"/>
<path d="M50.7643 33.3853C49.8874 33.3853 49.1763 34.0955 49.1763 34.9659C49.1763 35.8363 49.8874 36.5518 50.7643 36.5518C51.6412 36.5518 52.347 35.8416 52.347 34.9659C52.347 34.0901 51.6359 33.3853 50.7643 33.3853Z" fill="#231815"/>
<path d="M53.9245 29.4496C53.8496 29.1933 53.6785 28.9797 53.4433 28.8462C53.3256 28.7821 50.5719 27.287 47.2942 27.4952C46.7381 27.5326 46.3157 28.0079 46.3531 28.5632C46.3906 29.1186 46.8718 29.5351 47.4225 29.503C50.0853 29.3322 52.4487 30.5977 52.4701 30.6084C52.561 30.6565 52.6573 30.6938 52.7588 30.7152C52.823 30.7259 52.8925 30.7366 52.9567 30.7366C53.3203 30.7366 53.6571 30.5443 53.8389 30.2132C53.9673 29.9783 53.9994 29.706 53.9245 29.4496Z" fill="#231815"/>
<path d="M58.0523 46.7512C57.4962 46.7512 57.0417 47.2051 57.0417 47.7605C57.0417 48.3158 57.4962 48.7697 58.0523 48.7697H59.8168C60.3729 48.7697 60.8274 48.3158 60.8274 47.7605C60.8274 47.2051 60.3729 46.7512 59.8168 46.7512H58.0523Z" fill="#231815"/>
<path d="M52.5183 14.717C52.6252 14.7544 52.7375 14.7704 52.8498 14.7704C53.2829 14.7704 53.6679 14.4927 53.8123 14.0869C54.7961 11.2193 56.4216 9.24354 58.6406 8.2076C62.6829 6.3226 67.4525 8.12216 67.5006 8.14352C68.0246 8.34643 68.6128 8.08478 68.8106 7.5668C69.0138 7.04349 68.7518 6.4561 68.2331 6.25318C68.0086 6.1624 62.6348 4.11721 57.7958 6.36532C55.0528 7.63622 53.0637 10.0178 51.8927 13.4301C51.7109 13.9587 51.9943 14.5354 52.5236 14.717H52.5183Z" fill="#231815"/>
<path d="M74.4143 12.7038C74.302 12.4582 74.0988 12.2713 73.8422 12.1805C73.5374 12.0683 66.335 9.51586 62.175 13.3232C61.7633 13.7024 61.7365 14.3432 62.1108 14.7543C62.3033 14.9626 62.576 15.0854 62.8594 15.0854C63.1161 15.0854 63.3567 14.9893 63.5438 14.8184C66.7734 11.8654 73.0829 14.0655 73.147 14.0868C73.671 14.2791 74.2539 14.0067 74.4464 13.4781C74.5373 13.2218 74.5266 12.9494 74.4143 12.7038Z" fill="#231815"/>
<path d="M65.7734 51.1834C58.3839 53.2767 52.3739 51.349 52.3043 51.3276C51.7964 51.1621 51.251 51.4344 51.0852 51.9364C50.9141 52.4437 51.1922 52.9883 51.6948 53.1592C51.8659 53.218 54.5929 54.0991 58.6619 54.0991C60.8756 54.0991 63.4849 53.8374 66.2975 53.0417C66.8108 52.8976 67.1102 52.3636 66.9658 51.8509C66.8215 51.3383 66.2868 51.0393 65.7734 51.1834Z" fill="#231815"/>
<path d="M77.4193 48.978C76.9327 48.978 76.5263 48.5989 76.4996 48.1076C76.4729 47.6003 76.8632 47.1678 77.3711 47.1411C78.3229 47.0877 79.1998 46.3508 79.7773 45.7367C81.0125 44.423 81.7931 42.7143 82.0337 40.8026C82.2102 39.4195 82.0016 38.5171 81.7931 37.887C81.6381 37.4064 81.2584 36.568 80.4831 36.3224C79.2961 35.9539 78.3015 36.9525 78.2587 36.9952C77.9058 37.3583 77.323 37.369 76.9594 37.0166C76.5958 36.6641 76.5798 36.0874 76.9273 35.7243C77.0022 35.6495 78.74 33.85 81.0338 34.5655C82.6059 35.0568 83.2849 36.5039 83.5469 37.3209C83.9319 38.5117 84.0335 39.6919 83.8624 41.0375C83.5683 43.3337 82.6219 45.3949 81.1194 46.9969C79.9484 48.2464 78.7239 48.9086 77.4727 48.978C77.4567 48.978 77.4407 48.978 77.4193 48.978Z" fill="#231815"/>
<path d="M77.4192 49.0793C76.8738 49.0793 76.4246 48.6521 76.3979 48.1128C76.3658 47.5468 76.8043 47.0662 77.3657 47.0341C78.28 46.9861 79.1409 46.2599 79.697 45.6671C80.9161 44.3695 81.6861 42.6821 81.9267 40.7918C82.1031 39.4247 81.8946 38.5383 81.6914 37.9189C81.5417 37.4596 81.1835 36.6533 80.4456 36.4237C79.3174 36.0713 78.3709 37.0271 78.3282 37.0698C77.9378 37.4703 77.2855 37.4863 76.8791 37.0965C76.4727 36.7067 76.4567 36.0606 76.8417 35.6547C76.9166 35.5746 78.6918 33.7324 81.0551 34.4693C82.6699 34.9766 83.365 36.4557 83.6377 37.2941C84.0281 38.5009 84.1297 39.6971 83.9532 41.0534C83.6591 43.3709 82.6967 45.4535 81.1835 47.0715C79.9964 48.3371 78.7452 49.0153 77.4619 49.0847C77.4406 49.0847 77.4245 49.0847 77.4031 49.0847L77.4192 49.0793ZM79.943 36.13C80.1248 36.13 80.3172 36.1567 80.5097 36.2154C81.3332 36.4718 81.7289 37.3475 81.8893 37.8495C82.0978 38.4902 82.3117 39.4034 82.1299 40.8131C81.8839 42.7462 81.0926 44.471 79.8414 45.806C79.2532 46.4307 78.3495 47.189 77.3657 47.2424C76.9166 47.2691 76.569 47.6536 76.5957 48.1021C76.6225 48.5507 77.0021 48.8978 77.4566 48.8711C78.6811 48.807 79.8841 48.1502 81.0337 46.922C82.5202 45.336 83.4559 43.2962 83.75 41.0214C83.9211 39.6917 83.8195 38.5276 83.4399 37.3528C83.1832 36.5518 82.5202 35.1421 80.991 34.6669C78.7506 33.9673 77.0609 35.7242 76.9914 35.7989C76.6866 36.1193 76.6973 36.6373 77.0181 36.947C77.339 37.2567 77.8576 37.246 78.1731 36.9256C78.2105 36.8883 78.9538 36.1407 79.9323 36.1407L79.943 36.13Z" fill="#231815"/>
<path d="M78.0982 36.6109C78.0982 36.6109 78.0715 36.6109 78.0608 36.6109C77.5528 36.5895 77.1572 36.1623 77.1785 35.655C77.339 31.5593 75.0451 26.748 75.0237 26.7C74.8045 26.2407 74.997 25.6907 75.4515 25.4718C75.9113 25.2528 76.4621 25.4397 76.6813 25.899C76.7829 26.1126 79.1997 31.1641 79.0179 35.7244C78.9965 36.2211 78.5902 36.6109 78.0982 36.6109Z" fill="#231815"/>
<path d="M78.0983 36.7175H78.0555C77.4887 36.6961 77.0503 36.2155 77.0717 35.6495C77.2321 31.6125 74.9489 26.7959 74.9275 26.7478C74.6816 26.2405 74.8955 25.6264 75.4034 25.3808C75.6494 25.2633 75.9274 25.2473 76.1894 25.3381C76.4461 25.4289 76.6546 25.6158 76.7776 25.8614C76.8792 26.075 79.3067 31.1426 79.1249 35.7349C79.1035 36.2849 78.6544 36.7175 78.0983 36.7175ZM75.8526 25.4876C75.7296 25.4876 75.6119 25.5143 75.4997 25.5677C75.0933 25.7653 74.9222 26.2512 75.12 26.657C75.1414 26.7051 77.4513 31.5057 77.2856 35.6602C77.2695 36.1087 77.6171 36.4879 78.0716 36.5092H78.1037C78.5421 36.5092 78.9004 36.1675 78.9164 35.7242C79.0982 31.1853 76.692 26.1604 76.5905 25.9468C76.4942 25.7492 76.3284 25.6051 76.1253 25.5303C76.0397 25.4983 75.9488 25.4823 75.8579 25.4823L75.8526 25.4876Z" fill="#231815"/>
<path d="M58.0362 64.9926C53.7747 64.9926 51.0691 63.0009 50.6788 62.6911C39.7923 55.4395 39.172 41.2246 39.1506 40.6212C39.1346 40.1139 39.5303 39.6867 40.0382 39.6707C40.5462 39.644 40.9739 40.0498 40.99 40.5571C40.99 40.6959 41.6102 54.4676 51.7268 61.1799C51.7535 61.196 51.7749 61.2173 51.8016 61.2333C52.0262 61.4149 57.4427 65.6441 65.5648 60.8969C65.5755 60.8916 65.5915 60.8809 65.6022 60.8756C65.6664 60.8435 72.286 57.3031 74.3018 50.9433C74.4569 50.4573 74.9755 50.1903 75.4568 50.3452C75.9433 50.5001 76.2107 51.018 76.0556 51.4986C73.842 58.4726 66.9818 62.2266 66.4738 62.4936C63.2603 64.3679 60.405 64.982 58.0309 64.982L58.0362 64.9926Z" fill="#231815"/>
<path d="M58.0309 65.0992C53.7801 65.0992 51.1012 63.1661 50.6093 62.7763C39.6854 55.5033 39.0651 41.2297 39.0437 40.6263C39.0223 40.0602 39.4661 39.585 40.0329 39.569C40.3003 39.5583 40.5623 39.6491 40.7601 39.8306C40.9633 40.0175 41.0809 40.2738 41.0916 40.5515C41.0916 40.6903 41.7119 54.4086 51.7856 61.0942C51.8124 61.1103 51.8391 61.1316 51.8658 61.153C52.0904 61.3345 57.4428 65.521 65.506 60.8112L65.5488 60.7899C65.613 60.7525 72.1951 57.2388 74.2003 50.9163C74.2858 50.6547 74.4623 50.4411 74.7082 50.3182C74.9488 50.1901 75.2269 50.1687 75.4889 50.2488C75.7509 50.3289 75.9648 50.5105 76.0877 50.7561C76.2161 51.0018 76.2375 51.2794 76.1573 51.5358C73.9489 58.483 67.2759 62.1943 66.522 62.5948C63.6774 64.2555 60.8167 65.0992 58.0256 65.0992H58.0309ZM40.081 39.7772C40.081 39.7772 40.0543 39.7772 40.0436 39.7772C39.5945 39.7932 39.2362 40.1724 39.2522 40.6209C39.2736 41.219 39.8885 55.3858 50.7323 62.6054C51.037 62.8457 53.7587 64.8856 58.0309 64.8856C60.7793 64.8856 63.6025 64.0526 66.4257 62.4079C66.7251 62.2477 73.7458 58.4563 75.9594 51.4717C76.0931 51.0445 75.8578 50.5852 75.4301 50.4464C75.2215 50.3823 75.0023 50.3983 74.8098 50.4998C74.6173 50.6013 74.473 50.7721 74.4088 50.9751C72.3769 57.3723 65.7253 60.934 65.6557 60.9661L65.6237 60.9874C57.4374 65.772 51.9728 61.4947 51.7428 61.3132C51.7215 61.2972 51.7001 61.2811 51.6787 61.2651C41.5194 54.5261 40.8991 40.6957 40.8938 40.5568C40.8884 40.3326 40.7922 40.1297 40.6264 39.9801C40.4767 39.8413 40.2896 39.7719 40.0864 39.7719L40.081 39.7772Z" fill="#231815"/>
<path d="M41.2735 49.2928C38.6374 49.2928 36.5093 45.4747 36.2633 45.0155C36.258 45.0048 36.2526 44.9888 36.2473 44.9781C34.7608 41.8863 34.825 39.0401 34.9961 37.6197C35.119 36.5997 35.5682 35.6599 36.258 34.9764C37.2097 34.0366 38.3968 33.8123 39.5143 34.357C39.9741 34.5812 40.1613 35.1313 39.942 35.5851C39.7175 36.0444 39.1667 36.2313 38.7122 36.0123C38.4182 35.8735 38.0546 35.7934 37.5519 36.29C37.1563 36.6798 36.8943 37.2352 36.8247 37.8439C36.6804 39.0614 36.6216 41.5071 37.8995 44.1718C38.6748 45.6082 40.327 47.632 41.4178 47.4505C41.9204 47.365 42.3963 47.7068 42.4765 48.2087C42.5621 48.7107 42.2199 49.186 41.7173 49.2661C41.5675 49.2928 41.4178 49.3034 41.2735 49.3034V49.2928Z" fill="#231815"/>
<path d="M41.2735 49.3996C38.5732 49.3996 36.4077 45.5121 36.1724 45.0689L36.151 45.0262C34.6539 41.913 34.718 39.0401 34.8892 37.609C35.0175 36.5624 35.472 35.6012 36.1831 34.9017C37.167 33.9298 38.3968 33.6949 39.5624 34.2609C39.8084 34.3784 39.9955 34.5866 40.0864 34.8483C40.1773 35.1099 40.1613 35.3823 40.0383 35.6333C39.9207 35.8789 39.7121 36.0658 39.4501 36.1566C39.1935 36.2473 38.9154 36.2313 38.6641 36.1085C38.3914 35.975 38.076 35.9163 37.6268 36.3648C37.2472 36.7386 36.9959 37.2673 36.9264 37.8547C36.782 39.0615 36.7285 41.4805 37.9904 44.1237C38.7818 45.5762 40.4019 47.5093 41.3965 47.3437C41.6691 47.2957 41.9365 47.3597 42.1611 47.5199C42.3856 47.6801 42.53 47.9151 42.5781 48.1874C42.6209 48.4598 42.5621 48.7268 42.4017 48.951C42.2413 49.1753 42.006 49.3195 41.7333 49.3676C41.5783 49.3943 41.4232 49.4049 41.2681 49.4049L41.2735 49.3996ZM38.3005 34.1701C37.6001 34.1701 36.9157 34.4691 36.3275 35.0512C35.6538 35.7187 35.2153 36.6318 35.0923 37.6304C34.9212 39.0401 34.8571 41.865 36.3328 44.9354L36.3489 44.9675C36.5788 45.4 38.6909 49.1913 41.2681 49.1913C41.4125 49.1913 41.5569 49.1807 41.6959 49.154C41.9098 49.1166 42.0969 48.9991 42.2252 48.8229C42.3536 48.6467 42.4017 48.4277 42.3643 48.2141C42.3268 48.0005 42.2092 47.8083 42.0327 47.6855C41.8563 47.5573 41.6371 47.5093 41.4232 47.5466C40.2736 47.7389 38.6053 45.7151 37.7926 44.2145C36.5039 41.5232 36.5574 39.0562 36.7071 37.828C36.782 37.1925 37.0547 36.6211 37.4664 36.21C38.0171 35.6653 38.4396 35.7668 38.7443 35.9163C38.9422 36.0124 39.1614 36.0231 39.3699 35.9537C39.5785 35.8842 39.7442 35.7347 39.8351 35.5371C39.9314 35.3396 39.9421 35.1206 39.8726 34.9124C39.803 34.7041 39.6533 34.5386 39.4555 34.4478C39.0705 34.2609 38.6748 34.1701 38.2898 34.1701H38.3005Z" fill="#231815"/>
<path d="M77.5955 44.0063C77.5687 44.0063 77.5367 44.0063 77.5099 44.0063C77.002 43.9583 76.6277 43.5151 76.6758 43.0078C76.6918 42.8316 77.0929 38.7412 79.6327 37.8975C80.1139 37.7373 80.6379 37.9989 80.7983 38.4795C80.9588 38.9548 80.7074 39.4674 80.2369 39.6383C80.146 39.6757 78.7772 40.2844 78.5152 43.1787C78.4724 43.6539 78.0714 44.017 77.6008 44.017L77.5955 44.0063Z" fill="#231815"/>
<path d="M77.5956 44.1131C77.5635 44.1131 77.5314 44.1131 77.4993 44.1131C76.9379 44.0597 76.5208 43.5631 76.569 42.9971C76.585 42.8209 76.9914 38.6611 79.5954 37.796C79.8574 37.7106 80.1301 37.7266 80.376 37.8494C80.622 37.9722 80.8038 38.1805 80.8893 38.4421C81.0658 38.9654 80.7824 39.5422 80.2637 39.7291C80.2103 39.7504 78.8682 40.3325 78.6115 43.1787C78.5634 43.7073 78.1249 44.1131 77.5902 44.1131H77.5956ZM79.9269 37.9509C79.8413 37.9509 79.7504 37.9669 79.6649 37.9936C77.1892 38.8159 76.7935 42.8422 76.7775 43.0131C76.7347 43.4617 77.0662 43.8568 77.5154 43.8995C77.9699 43.9423 78.3602 43.6112 78.403 43.1626C78.6703 40.2417 80.0338 39.6009 80.1889 39.5368C80.606 39.3873 80.8305 38.9281 80.6915 38.5116C80.622 38.3033 80.4776 38.1378 80.2798 38.0416C80.1675 37.9829 80.0392 37.9562 79.9162 37.9562L79.9269 37.9509Z" fill="#231815"/>
<path d="M40.4875 31.2494C40.4501 31.2494 40.4073 31.2494 40.3699 31.244C39.7978 31.18 39.3807 30.662 39.4502 30.0853C40.7549 18.6899 46.4441 16.4738 46.69 16.383C47.2354 16.1854 47.8343 16.4631 48.0321 17.0024C48.23 17.5418 47.9573 18.1398 47.4226 18.3428C47.3263 18.3801 42.6691 20.3826 41.5302 30.3202C41.4714 30.8542 41.0169 31.2494 40.4929 31.2494H40.4875Z" fill="#231815"/>
<path d="M44.3587 126.209C44.3587 126.209 62.0787 78.4384 78.5582 62.7336L83.3009 68.6236L98.7752 76.516C98.7752 76.516 104.015 76.0194 105.266 83.7463C105.266 83.7463 109.512 111.914 98.0266 147.313L95.7809 164.844L105.063 204.215L57.9775 208.594C52.684 209.085 47.984 205.235 47.4279 199.954L44.8132 175L40.4821 201.401C39.6587 206.431 34.932 209.865 29.8844 209.101L24.7406 206.874L31.8735 162.596L32.8734 144.648C32.8734 144.648 7.66225 144.397 5.1652 137.92C5.1652 137.92 1.42229 132.687 5.91378 120.223C5.91378 120.223 20.6394 94.047 22.6392 89.3105C22.6392 89.3105 29.6277 77.0981 34.8678 76.3451L39.3593 75.3466L44.6475 70.4552C44.6475 70.4552 41.605 82.8278 44.3534 126.204L44.3587 126.209Z" fill="white"/>
<path d="M44.3587 126.209C44.3587 126.209 62.0787 78.4384 78.5581 62.7336L83.3009 68.6236L98.7751 76.516C98.7751 76.516 104.015 76.0194 105.266 83.7463C105.266 83.7463 109.512 111.914 98.0266 147.313L95.7808 164.844L105.063 204.215L56.8172 208.482C52.3097 208.882 48.3101 205.62 47.7915 201.134L44.471 172.304L39.7228 202.384C39.0865 206.426 35.2367 209.149 31.2104 208.407L28.0129 207.724L35.2902 162.601L36.2901 144.654C36.2901 144.654 14.6561 144.568 11.3302 141.247C11.3302 141.247 4.50747 136.094 8.99895 123.63C8.99895 123.63 22.313 98.1214 24.3074 93.3849C24.3074 93.3849 29.633 81.5035 34.8731 80.7559L39.3646 79.6666L44.6528 74.7752C44.6528 74.7752 41.6103 82.8332 44.3587 126.209Z" fill="#B5B5B6"/>
<path d="M13.9663 143.73C13.8861 143.73 13.8059 143.719 13.7257 143.703C8.29849 142.453 5.18654 140.723 4.22407 138.416C3.65195 137.503 0.609501 131.822 4.91918 119.865C4.94057 119.812 4.96196 119.759 4.99404 119.705C5.13841 119.444 19.7143 93.5288 21.666 88.9045C21.8959 88.3651 22.5162 88.1088 23.0616 88.3384C23.6016 88.568 23.8583 89.1875 23.6283 89.7321C21.666 94.3886 7.94559 118.808 6.89223 120.672C2.73226 132.275 6.00997 137.268 6.04206 137.322C6.09018 137.391 6.13295 137.471 6.16504 137.551C6.51794 138.47 8.03114 140.216 14.2016 141.642C14.7737 141.775 15.132 142.347 14.9983 142.918C14.886 143.409 14.4475 143.74 13.961 143.74L13.9663 143.73Z" fill="#231815"/>
<path d="M29.3016 183.651C29.2588 183.651 29.2107 183.651 29.1625 183.64C28.5797 183.566 28.168 183.032 28.2429 182.45L30.8148 162.505L31.7505 145.689C29.3818 145.62 23.6177 145.374 18.0515 144.52C17.4686 144.429 17.073 143.89 17.1639 143.308C17.2548 142.726 17.8002 142.331 18.3776 142.421C25.425 143.505 32.8145 143.591 32.8841 143.591C33.1728 143.591 33.4508 143.714 33.6487 143.927C33.8465 144.141 33.9481 144.424 33.9321 144.712L32.9322 162.66C32.9322 162.66 32.9322 162.713 32.9268 162.735L30.3496 182.717C30.2801 183.251 29.8202 183.64 29.2962 183.64L29.3016 183.651Z" fill="#231815"/>
<path d="M98.0265 148.376C97.9196 148.376 97.8073 148.36 97.7003 148.322C97.1389 148.141 96.8341 147.542 97.0159 146.982C99.9087 138.069 102.042 128.831 103.368 119.513C103.448 118.931 103.988 118.525 104.571 118.611C105.154 118.691 105.555 119.23 105.475 119.812C104.133 129.253 101.967 138.614 99.0371 147.639C98.8927 148.087 98.4757 148.376 98.0265 148.376Z" fill="#231815"/>
<path d="M104.967 116.523C104.924 116.523 104.887 116.523 104.844 116.517C104.261 116.448 103.844 115.925 103.908 115.337C106.074 96.6849 104.229 84.0346 104.213 83.9064C103.154 77.3383 99.0371 77.5679 98.866 77.5786C98.6575 77.5946 98.4382 77.5466 98.2564 77.4451L86.6534 70.9304C86.1401 70.6421 85.9583 69.9959 86.2471 69.4833C86.5358 68.9706 87.1828 68.7891 87.6961 69.0775L99.0585 75.4533C100.438 75.5014 105.127 76.2116 106.32 83.5754C106.341 83.7142 108.229 96.6208 106.026 115.578C105.961 116.117 105.502 116.517 104.972 116.517L104.967 116.523Z" fill="#231815"/>
<path d="M48.5883 116.63C48.4546 116.63 48.3156 116.603 48.1819 116.55C47.6419 116.325 47.3799 115.7 47.6044 115.161C53.8658 100.081 66.1211 73.1145 77.8203 61.9647C78.0342 61.7618 78.3283 61.655 78.6224 61.671C78.9218 61.6924 79.1945 61.8312 79.3817 62.0662L84.1245 67.9561C84.4934 68.4153 84.4186 69.0828 83.9641 69.4513C83.5042 69.8197 82.8358 69.745 82.4669 69.2911L78.462 64.3143C67.2921 75.6616 55.6196 101.411 49.5668 115.973C49.3957 116.384 49 116.63 48.5829 116.63H48.5883Z" fill="#231815"/>
<path d="M43.7437 116.047C43.177 116.047 42.7064 115.604 42.6797 115.033C41.8562 97.2509 42.1503 86.0477 42.5407 79.784C42.7171 76.9485 42.931 74.8392 43.1181 73.3334L40.0917 76.1315C39.9527 76.2596 39.7816 76.3504 39.5998 76.3878L35.1083 77.3864C35.1083 77.3864 35.0549 77.397 35.0281 77.4024C32.7877 77.7228 29.4031 81.0015 25.7457 86.4002C25.4142 86.8861 24.7565 87.0143 24.27 86.6832C23.7834 86.3521 23.655 85.6953 23.9866 85.2094C28.1358 79.0845 31.7344 75.7523 34.6859 75.3038L38.8619 74.3746L43.9362 69.6755C44.2784 69.3551 44.7917 69.3017 45.1981 69.5367C45.6045 69.777 45.8023 70.2522 45.69 70.7061C45.6847 70.7275 45.0698 73.3334 44.6527 80.067C44.2731 86.272 43.9897 97.3524 44.8024 114.931C44.8292 115.519 44.3747 116.015 43.7865 116.042C43.7705 116.042 43.7544 116.042 43.7384 116.042L43.7437 116.047Z" fill="#231815"/>
<path d="M55.3415 118.295C55.1116 118.295 54.8764 118.221 54.6785 118.066C54.2187 117.697 54.1438 117.03 54.5128 116.571L70.5003 96.5512L64.501 92.7011C64.132 92.4662 63.9449 92.0283 64.0304 91.6011C64.116 91.1739 64.4528 90.8428 64.8859 90.7627L74.024 89.1234L81.0499 70.4923C81.2585 69.9423 81.868 69.6647 82.4188 69.8729C82.9695 70.0812 83.2476 70.6899 83.039 71.2399L75.7992 90.437C75.6655 90.7894 75.3607 91.0404 74.9918 91.1098L67.923 92.3754L72.6338 95.4031C72.8851 95.5633 73.0615 95.8303 73.1096 96.124C73.1578 96.4231 73.0776 96.7221 72.8904 96.9571L56.165 117.895C55.9565 118.157 55.6463 118.295 55.3309 118.295H55.3415Z" fill="#231815"/>
<path d="M39.3699 118.546C38.9208 118.546 38.4984 118.258 38.354 117.804C36.8569 113.073 33.0017 94.7944 32.8359 94.0201C32.745 93.5822 32.9322 93.139 33.3118 92.8987L37.1135 90.5278L34.1406 89.8496C33.8305 89.7802 33.5738 89.5773 33.4294 89.2943C33.2851 89.0113 33.2744 88.6855 33.3973 88.3918L37.8888 77.9202C38.1187 77.3809 38.7443 77.1299 39.2844 77.3595C39.8244 77.5891 40.0757 78.2139 39.8458 78.7532L35.857 88.0501L40.1025 89.0113C40.5249 89.1074 40.8457 89.4438 40.9152 89.871C40.9847 90.2928 40.7976 90.72 40.4287 90.9497L35.071 94.2925C35.8195 97.8061 39.0812 113.036 40.3805 117.147C40.557 117.708 40.2469 118.306 39.6854 118.482C39.5785 118.514 39.4715 118.53 39.3646 118.53L39.3699 118.546Z" fill="#231815"/>
<path d="M85.2527 159.984C60.8329 159.984 37.1511 148.717 36.9104 148.605C36.3811 148.349 36.1565 147.713 36.4132 147.184C36.6698 146.656 37.3061 146.432 37.8355 146.688C38.0707 146.8 61.3355 157.859 85.2473 157.859C85.5307 157.859 85.8141 157.859 86.0975 157.859C90.1452 157.816 93.8186 155.477 95.4548 151.9C96.1445 150.394 96.6579 148.786 96.984 147.115C97.0963 146.538 97.6577 146.165 98.2299 146.277C98.8074 146.389 99.1816 146.944 99.0694 147.521C98.7111 149.358 98.1443 151.125 97.385 152.786C95.4067 157.106 90.9847 159.931 86.1136 159.99C85.8248 159.99 85.5361 159.99 85.2473 159.99L85.2527 159.984Z" fill="#231815"/>
<path d="M80.0554 141.481C79.6597 141.481 79.2801 141.257 79.0983 140.878C76.1521 134.764 70.3987 133.776 70.1581 133.739L60.9452 132.494C60.3624 132.414 59.956 131.88 60.0362 131.298C60.1164 130.716 60.6511 130.31 61.2339 130.385L70.4682 131.629C70.773 131.677 77.569 132.799 81.0179 139.949C81.2745 140.478 81.0499 141.113 80.5206 141.369C80.3709 141.439 80.2158 141.476 80.0607 141.476L80.0554 141.481Z" fill="#231815"/>
<path d="M75.2324 123.534C75.1308 123.534 75.0292 123.518 74.9222 123.486C74.3608 123.315 74.04 122.722 74.2111 122.162C76.013 116.192 79.1143 104.326 80.7986 97.7795C80.943 97.2135 81.5258 96.8717 82.0926 97.0159C82.6594 97.1601 83.0016 97.7421 82.8572 98.3082C81.1676 104.866 78.0609 116.768 76.243 122.77C76.1039 123.23 75.6815 123.529 75.227 123.529L75.2324 123.534Z" fill="#231815"/>
<path d="M83.301 93.3687C83.1834 93.3687 83.0658 93.3473 82.9535 93.3099C82.3974 93.1177 82.1033 92.5143 82.2958 91.9589C84.7447 84.8889 89.5784 81.6529 93.1983 80.1897C97.107 78.6091 100.422 78.6945 100.561 78.6999C101.149 78.7212 101.609 79.2125 101.588 79.7946C101.566 80.3819 101.08 80.8359 100.492 80.8198C99.9997 80.8092 88.4769 80.6169 84.3063 92.6531C84.1566 93.091 83.7395 93.3687 83.301 93.3687Z" fill="#231815"/>
<path d="M77.5583 102.591C77.5262 102.591 77.4941 102.591 77.462 102.591L68.9763 101.843C68.3935 101.79 67.9604 101.277 68.0085 100.69C68.062 100.108 68.5753 99.6753 69.1635 99.7234L77.6492 100.471C78.232 100.524 78.6651 101.037 78.617 101.624C78.5689 102.174 78.1037 102.591 77.5583 102.591Z" fill="#231815"/>
<path d="M27.0827 107.343L33.6275 112.496L37.4559 120.805L20.816 121.969L18.6505 120.474C18.6505 120.474 14.8809 115.546 18.1532 114.99C18.1532 114.99 15.3247 112.662 16.7684 110.446C16.7684 110.446 17.3244 109.447 18.9874 110.003C18.9874 110.003 18.4901 107.509 20.3188 107.343C20.3188 107.343 21.6502 107.343 22.6501 108.006C22.6501 108.006 22.1528 106.623 23.6499 106.121C23.6499 106.121 25.3129 105.677 27.0881 107.338L27.0827 107.343Z" fill="white"/>
<path d="M20.816 123.032C20.6021 123.032 20.3882 122.968 20.2118 122.845L18.0462 121.35C17.9553 121.286 17.8751 121.211 17.8056 121.12C15.223 117.746 15.7898 115.802 15.9288 115.449C16.0251 115.209 16.1748 114.942 16.4154 114.696C16.2764 114.515 16.1373 114.323 16.009 114.109C15.1107 112.641 15.0573 111.151 15.854 109.896C16.132 109.426 16.8057 108.828 17.8858 108.78C17.9446 108.273 18.0944 107.712 18.4419 107.247C18.859 106.692 19.4739 106.361 20.2171 106.291C20.2492 106.291 20.2813 106.291 20.3134 106.291C20.415 106.291 20.9978 106.302 21.7143 106.484C21.725 106.462 21.7303 106.441 21.741 106.425C21.9442 106.003 22.3826 105.437 23.3077 105.133C23.3291 105.127 23.3505 105.122 23.3718 105.117C24.1953 104.898 26.0453 104.956 27.7778 106.553L34.2904 111.679C34.4241 111.786 34.5257 111.92 34.6005 112.069L38.429 120.378C38.5734 120.693 38.5573 121.062 38.3755 121.366C38.1991 121.665 37.8836 121.863 37.5361 121.884L20.8962 123.048C20.8962 123.048 20.8481 123.048 20.8213 123.048L20.816 123.032ZM19.399 119.7L21.1154 120.885L35.8464 119.855L32.7665 113.175L26.4196 108.182C26.4196 108.182 26.3715 108.144 26.3501 108.123C25.1631 107.012 24.1097 107.124 23.9226 107.156C23.7354 107.221 23.5429 107.322 23.6499 107.674C23.8049 108.107 23.6606 108.577 23.3023 108.86C22.9387 109.143 22.4361 109.154 22.0511 108.897C21.495 108.529 20.6876 108.427 20.3615 108.411C20.2118 108.433 20.169 108.486 20.1476 108.518C19.9551 108.769 19.9551 109.431 20.0246 109.805C20.0941 110.174 19.9658 110.558 19.6824 110.804C19.399 111.049 19.0033 111.135 18.6451 111.012C18.0837 110.825 17.7896 110.905 17.6826 110.996C17.6826 110.996 17.6719 111.007 17.6666 111.012C17.6666 111.012 17.6666 111.017 17.6559 111.023C16.7523 112.411 18.8108 114.152 18.8322 114.168C19.1531 114.435 19.2867 114.862 19.1798 115.262C19.0729 115.663 18.7413 115.967 18.3296 116.031C18.2173 116.053 17.9553 116.106 17.9072 116.218C17.688 116.774 18.4954 118.472 19.399 119.689V119.7Z" fill="#231815"/>
<path d="M31.9644 118.488C31.6222 118.488 31.2907 118.322 31.0821 118.023L28.6118 114.381L21.9602 108.828C21.511 108.454 21.4522 107.781 21.8265 107.333C22.2008 106.884 22.8745 106.82 23.3236 107.199L30.0929 112.849C30.1678 112.913 30.2373 112.988 30.2908 113.068L32.8413 116.832C33.1728 117.318 33.0445 117.981 32.5579 118.306C32.3761 118.429 32.1676 118.488 31.9644 118.488Z" fill="#231815"/>
<path d="M27.3017 119.043C27.0076 119.043 26.7136 118.92 26.505 118.685L23.9973 115.855L18.276 110.804C17.8375 110.414 17.7948 109.741 18.1851 109.303C18.5754 108.865 19.2438 108.823 19.6876 109.212L25.457 114.307C25.4891 114.333 25.5212 114.365 25.5479 114.397L28.0984 117.276C28.4888 117.713 28.446 118.386 28.0075 118.776C27.8043 118.952 27.553 119.043 27.3017 119.043Z" fill="#231815"/>
<path d="M22.0884 118.931C21.8157 118.931 21.543 118.83 21.3344 118.621C19.3293 116.619 17.7733 115.983 17.7573 115.978C17.2119 115.759 16.9445 115.145 17.1584 114.6C17.3723 114.056 17.9819 113.789 18.5272 113.997C18.6075 114.029 20.4842 114.771 22.8316 117.115C23.2487 117.532 23.2487 118.205 22.8316 118.616C22.6231 118.824 22.3504 118.926 22.0777 118.926L22.0884 118.931Z" fill="#231815"/>
<path d="M57.4214 118.483C41.6959 117.986 13.2712 118.37 13.2712 118.37L32.8734 144.659L55.7532 143.911C59.4961 138.678 57.4161 118.483 57.4161 118.483H57.4214Z" fill="#B5B5B6"/>
<path d="M32.8786 145.716C32.3065 145.716 31.836 145.262 31.8146 144.691C31.7932 144.104 32.2584 143.612 32.8412 143.596L55.1596 142.865C57.5818 138.534 56.9883 125.419 56.4536 119.513C40.8671 119.059 16.4152 119.289 16.1639 119.294C15.5918 119.3 15.0945 118.83 15.0892 118.242C15.0838 117.655 15.5543 117.174 16.1425 117.169C16.3992 117.169 41.8883 116.923 57.4588 117.42C57.9935 117.436 58.4266 117.842 58.4854 118.37C58.4854 118.424 59.0094 123.534 59.0629 129.221C59.1324 137.017 58.3143 142.165 56.63 144.525C56.4375 144.792 56.1327 144.958 55.8012 144.969L32.9214 145.716C32.9214 145.716 32.9 145.716 32.884 145.716H32.8786Z" fill="#231815"/>
<path d="M54.3736 141.978C53.9458 141.978 53.5448 141.722 53.379 141.295C53.3362 141.183 52.3417 138.539 52.2775 134.059C52.2668 133.472 52.7374 132.991 53.3255 132.98H53.3416C53.9244 132.98 54.3949 133.445 54.4056 134.027C54.4644 138.096 55.3574 140.51 55.3681 140.531C55.5766 141.081 55.2986 141.69 54.7532 141.898C54.6302 141.946 54.5019 141.968 54.3736 141.968V141.978Z" fill="#231815"/>
<path d="M56.2612 120.309C56.2612 120.309 52.9353 124.073 53.3791 134.048L58.5925 134.102C58.5925 134.102 60.9238 130.278 59.9239 120.474L56.2612 120.309Z" fill="white"/>
<path d="M58.587 135.164H58.5763L53.363 135.111C52.7962 135.106 52.3364 134.657 52.3096 134.096C51.8498 123.817 55.3093 119.775 55.459 119.609C55.6729 119.369 55.983 119.235 56.3038 119.251L59.9665 119.417C60.4959 119.438 60.9237 119.844 60.9771 120.373C61.9984 130.417 59.5976 134.491 59.496 134.662C59.3035 134.977 58.956 135.175 58.587 135.175V135.164ZM54.4057 132.996L57.9186 133.034C58.4213 131.784 59.5067 128.201 58.9506 121.494L56.7904 121.398C56.0846 122.509 54.272 126.044 54.4057 132.996Z" fill="#231815"/>
<path d="M75.2323 122.471H66.5808L58.9239 122.14C58.9239 122.14 56.4269 126.129 58.2609 131.944L71.0723 132.943C71.0723 132.943 73.5694 132.281 75.2323 122.471Z" fill="white"/>
<path d="M71.0723 134C71.0455 134 71.0188 134 70.9921 134L58.1806 133.002C57.7475 132.97 57.3786 132.676 57.2503 132.259C55.2933 126.049 57.9186 121.75 58.0309 121.574C58.2341 121.248 58.5977 121.062 58.9773 121.078L66.6075 121.409H75.2376C75.5531 121.409 75.8471 121.548 76.0503 121.788C76.2535 122.028 76.3391 122.343 76.2856 122.653C74.6334 132.377 72.0935 133.776 71.3503 133.974C71.2594 133.995 71.1685 134.011 71.0776 134.011L71.0723 134ZM59.0736 130.94L70.8156 131.854C71.2594 131.474 72.7512 129.782 73.9543 123.529H66.5754C66.5754 123.529 66.5433 123.529 66.5273 123.529L59.5548 123.224C59.0522 124.351 58.0951 127.192 59.0682 130.935L59.0736 130.94Z" fill="#231815"/>
<path d="M29.1358 107.076C28.5958 107.076 28.1359 106.665 28.0771 106.121C27.5745 101.117 28.0504 89.9886 28.0771 89.5134C28.1038 88.926 28.5958 88.4774 29.1839 88.4988C29.7721 88.5255 30.2266 89.0221 30.1999 89.6041C30.1999 89.7163 29.7079 101.053 30.1999 105.907C30.2587 106.489 29.8309 107.012 29.2481 107.071C29.2107 107.071 29.1786 107.071 29.1412 107.071L29.1358 107.076Z" fill="#231815"/>
<path d="M67.9069 170.232C67.3615 170.232 66.8963 169.815 66.8482 169.265C66.7947 168.683 67.2279 168.165 67.816 168.112L90.4499 166.12C91.0327 166.072 91.5514 166.499 91.6048 167.086C91.6583 167.668 91.2252 168.186 90.637 168.24L68.0032 170.232C67.9711 170.232 67.939 170.232 67.9069 170.232Z" fill="#231815"/>
<path d="M55.8975 37.2086C55.6783 37.2086 55.459 37.1285 55.2879 36.9683C54.9243 36.6319 54.9083 36.0605 55.2452 35.7027C55.3414 35.5959 57.6994 33.1289 62.2925 35.5158C62.731 35.7454 62.9021 36.2848 62.6721 36.7227C62.4422 37.1605 61.9022 37.3314 61.4637 37.1018C58.1432 35.377 56.6086 36.8615 56.5445 36.9256C56.368 37.1125 56.1328 37.2086 55.8975 37.2086Z" fill="#231815"/>
<path d="M53.1386 41.7155H46.8131C44.5138 41.7155 42.5675 39.9213 42.3857 37.6358L42.2307 35.7241L39.1989 35.6387C38.707 35.6227 38.3167 35.2115 38.3274 34.7202C38.3434 34.229 38.7605 33.8391 39.247 33.8498L43.0808 33.9566C43.5353 33.9673 43.9096 34.3251 43.9471 34.779L44.1663 37.4917C44.2786 38.8587 45.4389 39.9267 46.8131 39.9267H53.1386C54.347 39.9267 55.3308 38.9441 55.3308 37.7373C55.3308 37.7106 55.3308 37.6892 55.3308 37.6625L55.5768 34.7736C55.6196 34.2824 56.0527 33.9192 56.5446 33.9566C57.0365 33.9993 57.4001 34.4319 57.3627 34.9232L57.1221 37.7747C57.1007 39.948 55.3255 41.7102 53.1439 41.7102L53.1386 41.7155Z" fill="#231815"/>
<path d="M70.7623 41.7156H64.4368C62.2552 41.7156 60.48 39.9534 60.4586 37.78L60.218 34.9232C60.1752 34.4319 60.5441 33.9994 61.0361 33.9567C61.528 33.9139 61.9611 34.2824 62.0039 34.7737L62.2498 37.6626C62.2498 37.6626 62.2498 37.7106 62.2498 37.7373C62.2498 38.9441 63.2337 39.9267 64.4421 39.9267H70.7676C72.1418 39.9267 73.3021 38.8587 73.4144 37.4917L73.6336 34.779C73.671 34.3251 74.0453 33.9727 74.4998 33.9567L78.3336 33.8499C78.3336 33.8499 78.3497 33.8499 78.3604 33.8499C78.8416 33.8499 79.2426 34.2343 79.2533 34.7203C79.2693 35.2115 78.879 35.6227 78.3871 35.6387L75.3553 35.7242L75.2003 37.6359C75.0131 39.9214 73.0722 41.7156 70.773 41.7156H70.7623Z" fill="#231815"/>
<path d="M153.138 89.7217C153.138 89.7217 141.535 96.7437 140.482 103.066C140.482 103.066 141.182 120.971 153.491 146.25L158.416 164.507L149.877 195.356L188.097 196.259C188.097 196.259 191.466 165.122 191.466 151.43L205.881 144.584L207.806 196.814H222.574L216.431 159.595L217.484 141.167C217.484 141.167 235.455 144.253 237.359 141.492C237.498 141.295 237.626 141.086 237.787 140.905C238.514 140.067 240.417 137.498 240.872 133.162C241.219 129.819 238.444 123.513 236.92 120.517L226.275 99.5632C226.275 99.5632 219.329 82.972 211.506 84.1147L199.379 80.4302L197.796 81.6584L166.329 82.9773L164.923 82.0108L153.144 89.7323L153.138 89.7217Z" fill="white"/>
<path d="M153.138 89.7217C153.138 89.7217 141.535 96.7437 140.482 103.066C140.482 103.066 141.182 120.971 153.491 146.25L158.416 164.507L149.877 195.356L179.686 201.155C183.68 201.876 187.445 199.057 187.867 195.025C188.803 186.054 191.466 160.561 191.466 151.43L205.881 144.584L208.202 196.296C208.228 199.03 210.939 200.92 213.517 200.013L222.569 196.814L216.425 159.595L217.479 141.167C217.479 141.167 235.45 144.253 237.354 141.492C237.493 141.295 237.621 141.086 237.781 140.905C238.509 140.067 240.412 137.498 240.867 133.162C241.214 129.819 238.439 123.513 236.915 120.517L226.269 99.5632C226.269 99.5632 219.323 82.972 211.501 84.1147L199.374 80.4302L197.791 81.6584L166.324 82.9773L164.918 82.0108L153.138 89.7323V89.7217Z" fill="white"/>
<path d="M188.091 197.321C188.054 197.321 188.017 197.321 187.985 197.316C187.402 197.257 186.974 196.734 187.033 196.152C187.054 195.943 190.396 164.913 190.396 151.43C190.396 151.019 190.631 150.645 191 150.469L205.416 143.623C205.747 143.468 206.132 143.489 206.442 143.682C206.752 143.874 206.94 144.216 206.94 144.579L208.865 196.809C208.865 197.396 208.389 197.871 207.801 197.871C207.212 197.871 206.736 197.396 206.736 196.809L204.812 146.261L192.524 152.097C192.46 165.682 189.172 196.157 189.15 196.36C189.097 196.905 188.631 197.316 188.091 197.316V197.321Z" fill="#231815"/>
<path d="M217.372 167.252C216.853 167.252 216.399 166.868 216.318 166.339L215.367 159.739C215.356 159.664 215.351 159.589 215.356 159.515L216.409 141.086C216.452 140.499 216.965 140.067 217.543 140.099C218.131 140.141 218.569 140.649 218.532 141.231L217.484 159.547L218.42 166.035C218.505 166.617 218.099 167.156 217.516 167.236C217.463 167.241 217.414 167.247 217.361 167.247L217.372 167.252Z" fill="#231815"/>
<path d="M222.569 197.871C222.05 197.871 221.596 197.492 221.516 196.958L216.971 170.867C216.885 170.285 217.291 169.746 217.874 169.666C218.457 169.58 218.997 169.986 219.077 170.568L223.622 196.659C223.708 197.241 223.301 197.78 222.719 197.861C222.665 197.866 222.617 197.871 222.564 197.871H222.569Z" fill="#231815"/>
<path d="M170.81 160.556C169.249 160.556 167.693 160.38 166.169 160.027C162.731 159.231 154.224 149.144 152.625 146.859C152.288 146.378 152.406 145.716 152.887 145.38C153.368 145.043 154.031 145.161 154.368 145.641C156.587 148.808 164.367 157.427 166.65 157.961C170.986 158.97 175.654 158.356 179.788 156.23L190.979 150.485C191.503 150.218 192.144 150.421 192.412 150.944C192.679 151.467 192.476 152.108 191.952 152.375L180.761 158.121C177.622 159.733 174.205 160.556 170.81 160.556Z" fill="#231815"/>
<path d="M177.397 135.026C177.007 135.026 176.633 134.812 176.446 134.438L163.089 107.754C159.56 100.391 148.048 100.962 147.93 100.967C147.337 100.999 146.839 100.551 146.807 99.9689C146.775 99.3815 147.224 98.8795 147.807 98.8475C147.941 98.8368 151.08 98.6712 154.748 99.531C159.731 100.7 163.276 103.221 165.003 106.82L178.355 133.488C178.617 134.011 178.403 134.652 177.879 134.913C177.724 134.988 177.563 135.026 177.403 135.026H177.397Z" fill="#231815"/>
<path d="M149.876 196.419C149.802 196.419 149.727 196.414 149.652 196.392C149.08 196.269 148.711 195.703 148.834 195.132L157.314 164.555L153.988 153.908C153.828 153.4 154.031 152.824 154.502 152.589C155.106 152.284 155.806 152.605 155.999 153.219L159.426 164.192C159.48 164.369 159.49 164.555 159.453 164.732L150.914 195.581C150.807 196.077 150.363 196.419 149.876 196.419Z" fill="#231815"/>
<path d="M153.491 147.313C153.095 147.313 152.716 147.094 152.534 146.715C151.058 143.676 149.668 140.59 148.417 137.541C140.065 117.238 139.444 103.675 139.423 103.109C139.423 103.034 139.423 102.965 139.439 102.895C140.551 96.2363 151.882 89.2516 152.577 88.8298L164.34 81.1136C164.704 80.8786 165.169 80.8839 165.527 81.1242L166.639 81.8879L197.411 80.6009L198.727 79.581C198.999 79.3674 199.358 79.3033 199.689 79.4048L211.602 83.0253C219.933 82.1388 226.788 98.0358 227.242 99.1145L228.28 101.192C228.542 101.715 228.328 102.356 227.804 102.617C227.28 102.879 226.638 102.666 226.376 102.142L225.323 100.033C225.323 100.033 225.301 99.9902 225.291 99.9689C223.446 95.5688 217.398 84.3229 211.661 85.1612C211.506 85.1826 211.346 85.1719 211.196 85.1238L199.593 81.5995L198.449 82.4913C198.272 82.6248 198.064 82.7049 197.839 82.7155L166.372 84.0345C166.137 84.0452 165.912 83.9811 165.725 83.8476L164.907 83.2869L153.726 90.6186C153.726 90.6186 153.705 90.6347 153.694 90.64C153.668 90.656 150.812 92.3968 147.871 94.8639C144.171 97.9717 141.99 100.834 141.551 103.141C141.589 103.766 141.808 107.066 142.856 112.331C143.925 117.719 146.102 126.332 150.384 136.74C151.625 139.751 152.988 142.795 154.448 145.791C154.705 146.319 154.486 146.955 153.956 147.211C153.807 147.286 153.646 147.318 153.491 147.318V147.313Z" fill="#231815"/>
<path d="M240.353 136.702C240.273 136.702 240.187 136.692 240.102 136.67C239.53 136.531 239.182 135.96 239.316 135.389C239.487 134.673 239.658 133.861 239.818 132.97C240.032 131.752 239.818 128.58 235.963 120.992L231.659 113.057C231.381 112.539 231.573 111.898 232.087 111.615C232.605 111.338 233.247 111.53 233.53 112.042L237.851 120.004C241.021 126.241 242.385 130.716 241.914 133.343C241.749 134.278 241.572 135.132 241.385 135.891C241.267 136.377 240.834 136.702 240.353 136.702Z" fill="#231815"/>
<path d="M231.049 144.119C229.723 144.119 228.226 144.029 226.563 143.847C222.029 143.35 217.848 142.347 217.275 142.208C207.982 140.974 186.076 135.928 185.856 135.88C185.284 135.746 184.926 135.175 185.06 134.604C185.193 134.032 185.766 133.674 186.338 133.808C186.557 133.861 208.453 138.902 217.612 140.109C217.65 140.109 217.692 140.12 217.73 140.13C224.777 141.887 235.364 143.132 236.84 140.392C237.118 139.874 237.765 139.682 238.278 139.96C238.797 140.237 238.99 140.883 238.712 141.396C237.733 143.217 235.209 144.114 231.044 144.114L231.049 144.119Z" fill="#231815"/>
<path d="M205.876 145.647C205.459 145.647 205.063 145.401 204.892 144.995C204.667 144.456 204.919 143.831 205.464 143.607L209.747 141.813C210.287 141.583 210.913 141.839 211.137 142.384C211.362 142.923 211.11 143.548 210.565 143.772L206.282 145.567C206.148 145.625 206.009 145.652 205.87 145.652L205.876 145.647Z" fill="#231815"/>
<path d="M170.281 144.066C170.077 144.066 169.874 144.007 169.692 143.885C169.206 143.559 169.072 142.902 169.398 142.411C169.559 142.17 173.36 136.542 177.943 135.645L182.376 134.342C182.942 134.177 183.53 134.497 183.696 135.063C183.862 135.624 183.541 136.216 182.974 136.382L178.494 137.701C178.462 137.712 178.424 137.717 178.392 137.728C174.67 138.427 171.206 143.543 171.168 143.591C170.965 143.895 170.628 144.061 170.281 144.061V144.066Z" fill="#231815"/>
<path d="M180.825 134.059C180.285 134.059 179.825 133.648 179.766 133.103C179.52 130.636 178.515 127.859 178.504 127.833C178.317 127.309 178.558 126.733 179.066 126.503C186.407 123.171 197.978 121.852 206.047 121.147C206.635 121.094 207.148 121.526 207.202 122.114C207.255 122.696 206.822 123.214 206.234 123.267C198.647 123.929 187.904 125.141 180.825 128.062C181.173 129.168 181.702 131.079 181.884 132.9C181.942 133.482 181.515 134.006 180.932 134.064C180.894 134.064 180.862 134.064 180.825 134.064V134.059Z" fill="#231815"/>
<path d="M206.138 122.199L209.827 113.677C210.18 112.865 210.656 112.117 211.239 111.455L213.752 108.614C214.126 108.187 214.57 107.835 215.067 107.563C216.832 106.596 221.125 104.294 221.959 104.294C221.959 104.294 224.596 104.033 222.489 106.927C222.489 106.927 225.563 104.588 226.446 105.608C226.446 105.608 227.499 106.398 225.916 108.769C225.916 108.769 228.552 106.927 229.082 109.56C229.082 109.56 228.964 111.14 227.761 112.983C227.761 112.983 229.868 112.983 228.552 116.144C228.552 116.144 227.793 117.692 226.97 118.776L225.125 120.886C225.125 120.886 209.57 121.676 206.138 122.205V122.199Z" fill="white"/>
<path d="M206.138 123.262C205.812 123.262 205.501 123.112 205.298 122.851C205.063 122.546 205.01 122.135 205.165 121.777L208.854 113.255C209.25 112.342 209.784 111.498 210.442 110.75L212.955 107.909C213.415 107.392 213.955 106.959 214.559 106.628C220.494 103.376 221.521 103.237 221.911 103.226C222.655 103.162 223.66 103.387 224.13 104.204C224.211 104.337 224.264 104.476 224.301 104.62C225.36 104.198 226.472 104.07 227.2 104.86C227.467 105.117 228.023 105.816 227.804 107.082C228.06 107.098 228.322 107.146 228.579 107.247C229.135 107.472 229.852 108.016 230.119 109.346C230.14 109.442 230.146 109.538 230.135 109.634C230.135 109.698 230.028 110.921 229.258 112.486C229.397 112.609 229.526 112.747 229.638 112.918C230.21 113.778 230.172 114.996 229.531 116.544C229.52 116.566 229.515 116.582 229.504 116.603C229.472 116.672 228.686 118.258 227.814 119.412C227.798 119.433 227.782 119.449 227.766 119.47L225.922 121.574C225.734 121.793 225.462 121.921 225.173 121.937C225.018 121.943 209.629 122.733 206.298 123.24C206.245 123.251 206.191 123.251 206.138 123.251V123.262ZM222.002 105.357C221.623 105.421 219.853 106.153 215.581 108.497C215.19 108.71 214.843 108.988 214.549 109.319L212.035 112.16C211.522 112.737 211.11 113.394 210.8 114.098L207.843 120.934C212.565 120.48 222.361 119.962 224.617 119.844L226.141 118.103C226.825 117.19 227.478 115.903 227.579 115.7C227.98 114.723 227.948 114.227 227.868 114.104C227.847 114.066 227.772 114.05 227.734 114.045C227.339 114.061 227.002 113.864 226.799 113.522C226.595 113.175 226.643 112.737 226.863 112.4C227.697 111.119 227.932 109.992 227.996 109.613C227.932 109.378 227.847 109.244 227.788 109.218C227.552 109.122 226.916 109.367 226.52 109.64C226.098 109.928 225.531 109.88 225.168 109.522C224.804 109.164 224.745 108.604 225.029 108.176C225.697 107.178 225.756 106.607 225.713 106.409C225.243 106.452 224.05 107.066 223.13 107.765C222.708 108.086 222.12 108.048 221.74 107.68C221.366 107.311 221.313 106.724 221.623 106.297C221.959 105.832 222.115 105.528 222.179 105.346C222.131 105.346 222.088 105.346 222.05 105.346C222.034 105.346 222.018 105.346 221.997 105.346L222.002 105.357ZM221.997 105.357C221.997 105.357 221.976 105.357 221.965 105.357C221.976 105.357 221.986 105.357 221.997 105.357Z" fill="#231815"/>
<path d="M211.677 118.52C211.463 118.52 211.244 118.456 211.057 118.317C210.581 117.975 210.474 117.308 210.816 116.832L215.564 110.28C215.639 110.173 215.735 110.088 215.842 110.013L221.906 106.035C222.398 105.715 223.055 105.848 223.382 106.339C223.702 106.831 223.569 107.487 223.077 107.813L217.174 111.685L212.543 118.082C212.335 118.37 212.009 118.52 211.682 118.52H211.677Z" fill="#231815"/>
<path d="M214.843 120.362C214.602 120.362 214.361 120.282 214.164 120.116C213.714 119.743 213.65 119.07 214.03 118.621L219.478 112.096C219.537 112.026 219.601 111.962 219.676 111.914L225.301 107.904C225.777 107.562 226.446 107.674 226.782 108.15C227.125 108.625 227.012 109.292 226.537 109.629L221.024 113.559L215.661 119.978C215.452 120.229 215.147 120.357 214.843 120.357V120.362Z" fill="#231815"/>
<path d="M219.35 121.446C219.088 121.446 218.826 121.35 218.623 121.158C218.195 120.757 218.174 120.084 218.575 119.657L222.323 115.679C222.366 115.631 222.414 115.588 222.467 115.551L227.125 112.128C227.595 111.781 228.264 111.882 228.611 112.352C228.959 112.822 228.857 113.49 228.387 113.837L223.804 117.201L220.12 121.11C219.912 121.334 219.628 121.446 219.345 121.446H219.35Z" fill="#231815"/>
<path d="M158.063 70.3217C156.988 69.8838 156.769 68.442 157.694 67.7372C158.918 66.808 160.49 63.4812 161.025 59.754C161.218 58.3976 161.223 57.0253 161.105 55.6582C160.72 51.3062 158.833 43.5953 160.683 38.5918L183.889 49.1275L181.034 70.4819C181.034 70.4819 172.494 76.1956 158.068 70.3217H158.063Z" fill="#1EAEB2"/>
<path d="M209.041 69.2643C210.116 68.8264 210.335 67.3847 209.41 66.6798C208.186 65.7506 206.614 62.4239 206.079 58.6966C205.886 57.3402 205.881 55.9679 205.999 54.6009C206.384 50.2488 208.271 42.5379 206.421 37.5344L183.215 48.0701L186.07 69.4245C186.07 69.4245 194.61 75.1382 209.036 69.2643H209.041Z" fill="#1EAEB2"/>
<path d="M160.913 34.5709C162.57 27.111 165.698 23.4745 166.089 23.0419C175.43 10.7814 186.723 14.9359 188.632 15.7583C190.134 15.5767 195.032 13.948 201.111 18.9355C201.261 19.069 215.896 32.6752 205.469 50.8416C205.427 50.911 207.405 52.0965 207.346 52.1553C207.132 52.3689 201.962 57.4151 194.075 60.2025C191.268 61.1958 187.904 61.954 184.194 61.954C178.221 61.954 171.339 59.9836 164.415 53.848C164.399 53.832 164.383 53.8213 164.372 53.8053C164.116 53.5436 158.095 47.2692 160.913 34.5762V34.5709Z" fill="#1EAEB2"/>
<path d="M204.566 57.7624C204.566 57.7624 204.571 57.7354 204.576 57.7192C204.706 57.8001 204.636 57.7893 204.566 57.7624Z" fill="white"/>
<path d="M195.064 81.1188L195.438 70.6686L195.011 70.722C196.374 69.8462 197.566 68.869 198.609 67.8277C202.78 63.9883 204.026 59.8979 204.566 57.7566C204.566 57.7406 204.576 57.7299 204.582 57.7139C205.052 57.7887 205.544 57.7139 206.031 57.495C207.389 56.9503 208.18 55.6153 208.18 55.6153C210.111 52.2618 209.795 48.6841 209.795 48.6841C209.576 45.8486 205.913 45.3626 204.753 45.3146C204.812 23.3995 187.322 25.418 187.322 25.418C176.777 25.1563 174.136 32.5254 174.136 32.5254L173.238 35.0352C172.377 37.4435 171.773 39.9373 171.355 42.463C171.147 43.7179 170.81 44.9087 169.869 46.1957L168.645 46.1583C163.811 44.1238 164.019 50.2433 164.019 50.2433C164.249 53.8905 165.094 54.6488 166.495 56.3682C167.254 57.4522 168.677 58.1571 169.543 58.0183C169.741 57.9862 169.928 57.9222 170.11 57.8421C170.949 61.062 172.056 62.7762 173.714 64.8053L171.837 78.0163L178.194 102.441C178.194 102.441 190.059 100.337 197.705 100.861L195.069 81.1135L195.064 81.1188Z" fill="white"/>
<path d="M194.321 80.6918C194.845 80.6437 195.23 80.1845 195.187 79.6611L195.545 72.2333C195.497 71.71 195.037 71.3255 194.513 71.3682C193.989 71.4163 193.604 71.8755 193.647 72.3988L193.289 79.8267C193.337 80.35 193.797 80.7345 194.321 80.6918Z" fill="#231815"/>
<path d="M169.538 58.9155C170.008 58.9155 170.404 58.547 170.43 58.0718C170.457 57.5805 170.078 57.1586 169.586 57.1319C168.666 57.0839 167.81 56.363 167.254 55.7703C166.057 54.494 165.303 52.8386 165.062 50.9857C164.891 49.6453 165.094 48.7696 165.292 48.1555C165.442 47.6909 165.811 46.8739 166.565 46.639C167.714 46.2812 168.682 47.2531 168.719 47.2904C169.062 47.6429 169.628 47.6536 169.981 47.3118C170.334 46.97 170.35 46.4147 170.013 46.0569C169.944 45.9822 168.254 44.236 166.03 44.9355C164.506 45.4108 163.848 46.8152 163.592 47.6055C163.217 48.7589 163.121 49.907 163.287 51.2099C163.57 53.4367 164.49 55.4392 165.944 56.9878C167.078 58.1946 168.27 58.8461 169.484 58.9101C169.5 58.9101 169.516 58.9101 169.532 58.9101L169.538 58.9155Z" fill="#231815"/>
<path d="M168.794 47.2211C169.099 47.5308 169.602 47.5415 169.912 47.2424C170.222 46.9434 170.238 46.4414 169.939 46.1317C169.869 46.057 168.233 44.3589 166.062 45.037C164.581 45.5016 163.939 46.8686 163.688 47.6429C163.319 48.7803 163.223 49.9124 163.389 51.1993C163.672 53.4047 164.581 55.3858 166.019 56.9237C167.137 58.1145 168.303 58.75 169.49 58.8141C169.928 58.8354 170.297 58.499 170.324 58.0665C170.345 57.6286 170.014 57.2548 169.575 57.2334C168.623 57.18 167.746 56.4485 167.174 55.8397C165.966 54.5474 165.196 52.8761 164.955 50.9964C164.784 49.6347 164.987 48.7429 165.191 48.1235C165.346 47.6376 165.731 46.7885 166.527 46.5375C166.714 46.4788 166.902 46.4521 167.078 46.4521C168.03 46.4521 168.752 47.1783 168.784 47.2157L168.794 47.2211Z" fill="#231815"/>
<path d="M169.49 58.9157C168.276 58.8516 167.084 58.2001 165.95 56.9933C164.496 55.4394 163.576 53.4422 163.293 51.2155C163.127 49.9125 163.223 48.7645 163.597 47.611C163.854 46.8154 164.512 45.4163 166.036 44.9357C168.265 44.2415 169.95 45.9877 170.019 46.0625C170.356 46.4149 170.34 46.9809 169.987 47.3173C169.634 47.6591 169.067 47.6484 168.725 47.296C168.693 47.2639 167.998 46.5644 167.089 46.5644C166.912 46.5644 166.736 46.5911 166.57 46.6445C165.816 46.8795 165.447 47.6965 165.298 48.161C165.1 48.7698 164.897 49.6456 165.068 50.9859C165.303 52.8388 166.062 54.4942 167.26 55.7705C167.816 56.3632 168.672 57.0787 169.591 57.1321C169.832 57.1428 170.051 57.2496 170.206 57.4258C170.367 57.6021 170.447 57.8317 170.436 58.072C170.409 58.5472 170.014 58.9157 169.543 58.9157C169.527 58.9157 169.511 58.9157 169.495 58.9157H169.49ZM168.869 47.1518C169.137 47.4241 169.57 47.4295 169.843 47.1678C170.115 46.9062 170.126 46.4736 169.864 46.2013C169.794 46.1319 168.196 44.4765 166.094 45.1333C164.661 45.5819 164.036 46.9168 163.79 47.6751C163.426 48.8018 163.33 49.9179 163.496 51.1888C163.774 53.3728 164.677 55.3326 166.1 56.8545C167.196 58.0239 168.34 58.6487 169.5 58.7128C169.875 58.7341 170.206 58.4404 170.228 58.0613C170.238 57.8797 170.174 57.7035 170.051 57.5647C169.928 57.4258 169.757 57.3457 169.575 57.3351C168.586 57.2817 167.688 56.5287 167.105 55.9093C165.88 54.601 165.105 52.9082 164.859 51.0126C164.683 49.6295 164.897 48.7271 165.1 48.097C165.26 47.595 165.661 46.7086 166.506 46.4469C166.693 46.3882 166.891 46.3561 167.089 46.3561C168.062 46.3561 168.789 47.0717 168.869 47.1518Z" fill="#231815"/>
<path d="M188.337 74.4493C192.471 74.4493 195.096 72.5162 195.47 72.2172C206.025 65.1845 206.629 51.3968 206.646 50.8147C206.662 50.3235 206.277 49.9069 205.785 49.8909C205.293 49.8642 204.876 50.2594 204.86 50.7507C204.86 50.8842 204.261 64.2393 194.444 70.7487C194.417 70.7647 194.396 70.7807 194.374 70.8021C194.155 70.9783 188.904 75.0794 181.028 70.4764C181.017 70.471 181.007 70.4604 180.991 70.455C180.926 70.423 174.51 66.9894 172.553 60.8218C172.403 60.3519 171.901 60.0902 171.43 60.2397C170.96 60.3892 170.698 60.8912 170.847 61.3611C172.997 68.1268 179.648 71.7633 180.14 72.025C183.252 73.8405 186.027 74.4386 188.332 74.4386L188.337 74.4493Z" fill="#231815"/>
<path d="M205.223 50.1954C205.063 50.3396 204.972 50.5371 204.967 50.7561C204.967 50.8896 204.362 64.2981 194.508 70.8396C194.486 70.8556 194.465 70.8716 194.444 70.8876C194.224 71.0638 188.926 75.2076 180.985 70.5726L180.953 70.5566C180.889 70.5245 174.435 67.0696 172.468 60.8646C172.403 60.6617 172.264 60.4961 172.077 60.4C171.89 60.3039 171.676 60.2825 171.473 60.3466C171.056 60.4801 170.826 60.9233 170.96 61.3398C173.109 68.1162 179.916 71.7901 180.205 71.9449C182.937 73.5362 185.675 74.3479 188.343 74.3479C192.481 74.3479 195.128 72.3668 195.422 72.1372C205.934 65.1365 206.533 51.3969 206.555 50.8148C206.571 50.3769 206.228 50.0138 205.79 49.9978C205.779 49.9978 205.763 49.9978 205.753 49.9978C205.56 49.9978 205.378 50.0672 205.234 50.2007L205.223 50.1954Z" fill="#231815"/>
<path d="M180.151 72.0356C179.862 71.8807 173.018 68.1802 170.853 61.3718C170.783 61.1421 170.799 60.9018 170.912 60.6882C171.024 60.4746 171.206 60.3198 171.436 60.245C171.66 60.1703 171.906 60.1916 172.12 60.3038C172.334 60.4159 172.489 60.5975 172.564 60.8271C174.526 67.0107 180.937 70.4229 181.001 70.4603L181.033 70.4817C188.91 75.0847 194.155 70.9836 194.374 70.8074C194.396 70.7861 194.422 70.77 194.449 70.754C204.266 64.2393 204.86 50.8895 204.86 50.756C204.87 50.5103 204.972 50.2914 205.148 50.1259C205.309 49.9763 205.523 49.8962 205.742 49.8962H205.785C206.025 49.9069 206.245 50.0084 206.41 50.1793C206.576 50.3555 206.662 50.5797 206.651 50.82C206.629 51.4021 206.031 65.1898 195.481 72.2172C195.187 72.4468 192.513 74.4493 188.337 74.4493C185.653 74.4493 182.894 73.6376 180.151 72.0356ZM205.293 50.2754C205.154 50.4035 205.074 50.5744 205.068 50.7613C205.068 50.8948 204.469 64.3514 194.561 70.9249C194.54 70.9356 194.524 70.9516 194.502 70.9676C194.278 71.1492 188.926 75.3303 180.926 70.6632L180.894 70.6472C180.83 70.6152 174.344 67.1602 172.355 60.8965C172.302 60.7203 172.179 60.5761 172.013 60.4907C171.847 60.4052 171.66 60.3892 171.489 60.4479C171.313 60.5013 171.168 60.6242 171.088 60.7897C171.002 60.9552 170.986 61.1368 171.045 61.313C173.184 68.0413 179.953 71.7045 180.247 71.8594C182.964 73.4454 185.685 74.2463 188.332 74.2463C192.433 74.2463 195.059 72.2812 195.353 72.0516C205.822 65.0777 206.421 51.3914 206.437 50.8147C206.442 50.6332 206.378 50.4569 206.25 50.3234C206.122 50.1899 205.95 50.1098 205.769 50.1045H205.737C205.571 50.1045 205.41 50.1686 205.287 50.2807L205.293 50.2754Z" fill="#231815"/>
<path d="M188.338 74.5721C185.632 74.5721 182.857 73.7551 180.092 72.1424C179.772 71.9715 172.911 68.2496 170.741 61.4092C170.66 61.1528 170.682 60.8752 170.81 60.6349C170.933 60.3946 171.147 60.2183 171.404 60.1329C171.66 60.0528 171.938 60.0742 172.179 60.197C172.419 60.3198 172.596 60.5334 172.681 60.7897C174.628 66.92 180.996 70.3162 181.06 70.3535L181.098 70.3749C188.904 74.9352 194.086 70.8875 194.305 70.7113C194.332 70.69 194.358 70.6686 194.385 70.6526C204.143 64.1752 204.742 50.8841 204.747 50.7506C204.758 50.473 204.876 50.222 205.079 50.0351C205.266 49.8642 205.501 49.7734 205.753 49.7734H205.795C206.068 49.7841 206.319 49.8963 206.507 50.0992C206.694 50.2968 206.79 50.5531 206.779 50.8254C206.758 51.4128 206.159 65.2539 195.556 72.3186C195.267 72.5429 192.562 74.5721 188.348 74.5721H188.338ZM171.708 60.5334C171.65 60.5334 171.591 60.5441 171.537 60.5601C171.393 60.6082 171.275 60.7043 171.206 60.8378C171.136 60.9713 171.12 61.1261 171.168 61.2703C173.291 67.9506 180.023 71.5977 180.312 71.7473C183.017 73.3225 185.717 74.1182 188.343 74.1182C192.407 74.1182 195.005 72.1691 195.289 71.9502C205.715 65.0029 206.309 51.3808 206.33 50.804C206.33 50.6545 206.282 50.5103 206.18 50.3982C206.079 50.2861 205.934 50.222 205.779 50.2167H205.747C205.614 50.2167 205.48 50.2701 205.378 50.3608C205.266 50.4676 205.197 50.6065 205.191 50.7613C205.191 50.8948 204.614 64.3995 194.631 71.021C194.615 71.0317 194.599 71.0424 194.583 71.0531C194.353 71.2346 188.942 75.4745 180.868 70.7594L180.841 70.7434C180.777 70.7113 174.243 67.219 172.248 60.9232C172.2 60.779 172.104 60.6616 171.97 60.5921C171.89 60.5494 171.799 60.5281 171.708 60.5281V60.5334Z" fill="#231815"/>
<path d="M204.587 59.2198C207.143 59.2198 209.207 55.5193 209.448 55.0707C209.453 55.06 209.458 55.0494 209.464 55.0333C210.907 52.0376 210.843 49.2716 210.677 47.8938C210.56 46.9006 210.121 45.9928 209.453 45.3307C208.533 44.4229 207.378 44.1986 206.293 44.7273C205.849 44.9409 205.662 45.4749 205.881 45.9181C206.095 46.3613 206.63 46.5482 207.074 46.3292C207.357 46.1904 207.71 46.1156 208.196 46.5962C208.581 46.9754 208.833 47.5094 208.902 48.1021C209.047 49.2876 209.095 51.6532 207.86 54.2377C207.106 55.6314 205.507 57.5965 204.448 57.4149C203.962 57.3348 203.502 57.6606 203.422 58.1465C203.341 58.6325 203.668 59.0917 204.154 59.1718C204.298 59.1985 204.443 59.2092 204.587 59.2092V59.2198Z" fill="#231815"/>
<path d="M206.341 44.8235C206.148 44.9143 206.009 45.0745 205.94 45.2774C205.87 45.475 205.881 45.694 205.977 45.8808C206.068 46.0731 206.228 46.2119 206.432 46.2813C206.629 46.3508 206.849 46.3401 207.036 46.244C207.33 46.0998 207.742 46.0037 208.276 46.5323C208.677 46.9275 208.939 47.4828 209.014 48.0969C209.159 49.2877 209.212 51.68 207.961 54.2912C207.175 55.7437 205.555 57.7088 204.443 57.5219C204.234 57.4845 204.025 57.5326 203.854 57.6554C203.683 57.7782 203.566 57.9598 203.534 58.168C203.496 58.3763 203.55 58.5845 203.667 58.7554C203.79 58.9263 203.972 59.0438 204.181 59.0758C204.32 59.0972 204.459 59.1079 204.598 59.1079C207.1 59.1079 209.143 55.434 209.367 55.0121L209.383 54.9801C210.811 52.0058 210.752 49.2664 210.586 47.8993C210.469 46.9328 210.046 46.041 209.389 45.3949C208.816 44.8289 208.153 44.5405 207.474 44.5405C207.1 44.5405 206.715 44.6313 206.341 44.8129V44.8235Z" fill="#231815"/>
<path d="M204.154 59.188C203.919 59.1506 203.71 59.0224 203.571 58.8248C203.432 58.6326 203.378 58.3923 203.416 58.1573C203.453 57.9224 203.587 57.7141 203.779 57.5753C203.977 57.4365 204.213 57.3831 204.448 57.4204C205.507 57.5967 207.111 55.6316 207.859 54.2485C209.1 51.664 209.046 49.2931 208.902 48.1076C208.832 47.5149 208.581 46.9809 208.196 46.6017C207.71 46.1211 207.357 46.1959 207.073 46.3347C206.859 46.4362 206.613 46.4522 206.389 46.3775C206.164 46.2974 205.982 46.1372 205.876 45.9236C205.769 45.71 205.758 45.4643 205.833 45.24C205.913 45.0158 206.073 44.8342 206.287 44.7274C207.362 44.2041 208.538 44.4337 209.447 45.3308C210.121 45.993 210.554 46.9061 210.672 47.894C210.838 49.2717 210.902 52.0324 209.458 55.0335L209.442 55.0655C209.212 55.4927 207.143 59.2147 204.582 59.2147C204.437 59.2147 204.293 59.204 204.148 59.1773L204.154 59.188ZM206.383 44.9197C206.218 44.9998 206.095 45.1386 206.036 45.3148C205.977 45.4857 205.988 45.6726 206.068 45.8381C206.148 46.0037 206.287 46.1265 206.464 46.1906C206.64 46.2493 206.827 46.2386 206.988 46.1585C207.287 46.0143 207.758 45.8862 208.346 46.4629C208.763 46.8741 209.036 47.4508 209.11 48.0916C209.255 49.2931 209.308 51.7067 208.046 54.35C207.298 55.7277 205.651 57.8423 204.421 57.634C204.239 57.602 204.058 57.6447 203.908 57.7515C203.758 57.8583 203.657 58.0185 203.63 58.2001C203.598 58.3816 203.64 58.5632 203.747 58.7127C203.854 58.8622 204.015 58.9637 204.197 58.9904C204.33 59.0117 204.464 59.0224 204.598 59.0224C207.041 59.0224 209.057 55.3966 209.276 54.9854L209.292 54.9587C210.709 52.0057 210.65 49.2877 210.485 47.9314C210.372 46.9862 209.955 46.1211 209.319 45.491C208.774 44.9517 208.137 44.6687 207.48 44.6687C207.116 44.6687 206.747 44.7541 206.394 44.9303L206.383 44.9197Z" fill="#231815"/>
<path d="M169.366 54.0939C169.393 54.0939 169.42 54.0939 169.446 54.0939C169.938 54.0512 170.302 53.6133 170.254 53.122C170.238 52.9511 169.847 48.9836 167.388 48.1666C166.917 48.0117 166.415 48.2627 166.26 48.7326C166.105 49.1918 166.35 49.6938 166.805 49.854C166.896 49.8914 168.222 50.4788 168.479 53.2876C168.521 53.7521 168.912 54.0992 169.366 54.0992V54.0939Z" fill="#231815"/>
<path d="M166.752 48.3052C166.564 48.4013 166.42 48.5615 166.356 48.7644C166.222 49.1702 166.436 49.6134 166.842 49.763C166.992 49.827 168.318 50.4465 168.575 53.2766C168.612 53.7092 168.992 54.0349 169.436 53.9922C169.869 53.9548 170.195 53.565 170.152 53.1325C170.136 52.9669 169.751 49.0634 167.356 48.2624C167.276 48.2357 167.19 48.2197 167.104 48.2197C166.981 48.2197 166.864 48.2464 166.752 48.3052Z" fill="#231815"/>
<path d="M168.473 53.2819C168.222 50.5105 166.95 49.9124 166.811 49.8537C166.356 49.6881 166.105 49.1862 166.26 48.727C166.335 48.5027 166.495 48.3158 166.709 48.209C166.923 48.1022 167.169 48.0862 167.393 48.1609C169.858 48.9833 170.243 52.9508 170.259 53.1164C170.302 53.6077 169.939 54.0455 169.447 54.0882C169.42 54.0882 169.393 54.0882 169.366 54.0882C168.912 54.0882 168.516 53.7411 168.473 53.2766V53.2819ZM166.8 48.3959C166.634 48.476 166.511 48.6202 166.452 48.7964C166.335 49.1488 166.527 49.5386 166.88 49.6668C167.035 49.7309 168.415 50.3717 168.677 53.2659C168.709 53.645 169.046 53.9227 169.425 53.8907C169.805 53.8586 170.083 53.5222 170.051 53.1431C170.035 52.9775 169.66 49.1435 167.324 48.3638C167.254 48.3425 167.179 48.3265 167.105 48.3265C166.998 48.3265 166.896 48.3532 166.8 48.4012V48.3959Z" fill="#231815"/>
<path d="M176.895 42.0786C176.991 42.084 177.087 42.0786 177.184 42.0573C177.226 42.0466 179.777 41.4966 182.253 42.383C182.744 42.5592 183.285 42.3029 183.456 41.8116C183.632 41.3203 183.375 40.781 182.883 40.6101C179.868 39.5315 176.884 40.1936 176.761 40.2257C176.253 40.3431 175.938 40.8451 176.05 41.3524C176.146 41.7636 176.494 42.0466 176.889 42.0786H176.895Z" fill="#231815"/>
<path d="M178.488 47.2371C178.488 48.0914 179.183 48.7856 180.039 48.7856C180.894 48.7856 181.59 48.0914 181.59 47.2371C181.59 46.3827 180.894 45.6885 180.039 45.6885C179.183 45.6885 178.488 46.3827 178.488 47.2371Z" fill="#231815"/>
<path d="M194.791 47.2371C194.791 48.0914 195.486 48.7856 196.342 48.7856C197.197 48.7856 197.893 48.0914 197.893 47.2371C197.893 46.3827 197.197 45.6885 196.342 45.6885C195.486 45.6885 194.791 46.3827 194.791 47.2371Z" fill="#231815"/>
<path d="M189.166 57.9919C189.68 57.9919 190.091 58.4085 190.091 58.9158C190.091 59.423 189.674 59.8396 189.166 59.8396H187.546C187.033 59.8396 186.621 59.423 186.621 58.9158C186.621 58.4085 187.038 57.9919 187.546 57.9919H189.166Z" fill="#231815"/>
<path d="M186.514 58.9207C186.514 58.3547 186.974 57.8901 187.546 57.8901H189.166C189.733 57.8901 190.198 58.3494 190.198 58.9207C190.198 59.4921 189.738 59.9513 189.166 59.9513H187.546C186.979 59.9513 186.514 59.4921 186.514 58.9207ZM187.546 58.0984C187.092 58.0984 186.723 58.4668 186.723 58.9207C186.723 59.3746 187.092 59.7431 187.546 59.7431H189.166C189.621 59.7431 189.99 59.3746 189.99 58.9207C189.99 58.4668 189.621 58.0984 189.166 58.0984H187.546Z" fill="#231815"/>
<path d="M188.038 65.2541C184.819 65.2541 182.413 64.373 182.258 64.3196C181.755 64.1327 181.499 63.572 181.686 63.07C181.873 62.5681 182.434 62.3118 182.937 62.4987C183.012 62.5254 188.295 64.4317 193.348 62.2797C193.839 62.0715 194.412 62.3011 194.625 62.7924C194.834 63.2836 194.604 63.855 194.112 64.0686C192 64.9657 189.883 65.2541 188.038 65.2541Z" fill="#231815"/>
<path d="M168.34 59.9034C169.317 59.9034 170.11 59.1121 170.11 58.1359C170.11 57.1598 169.317 56.3684 168.34 56.3684C167.362 56.3684 166.57 57.1598 166.57 58.1359C166.57 59.1121 167.362 59.9034 168.34 59.9034Z" fill="white"/>
<path d="M168.34 60.8219C166.859 60.8219 165.65 59.6151 165.65 58.1359C165.65 56.6568 166.859 55.45 168.34 55.45C169.821 55.45 171.029 56.6568 171.029 58.1359C171.029 59.6151 169.821 60.8219 168.34 60.8219ZM168.34 57.2869C167.874 57.2869 167.49 57.666 167.49 58.1359C167.49 58.6059 167.869 58.985 168.34 58.985C168.81 58.985 169.19 58.6059 169.19 58.1359C169.19 57.666 168.81 57.2869 168.34 57.2869Z" fill="#231815"/>
<path d="M207.817 58.9101C207.817 59.8873 207.025 60.6776 206.047 60.6776C205.068 60.6776 204.277 59.8873 204.277 58.9101C204.277 57.9329 205.068 57.1426 206.047 57.1426C207.025 57.1426 207.817 57.9329 207.817 58.9101Z" fill="white"/>
<path d="M206.047 61.5961C204.566 61.5961 203.357 60.3893 203.357 58.9101C203.357 57.4309 204.566 56.2241 206.047 56.2241C207.528 56.2241 208.736 57.4309 208.736 58.9101C208.736 60.3893 207.528 61.5961 206.047 61.5961ZM206.047 58.0611C205.582 58.0611 205.197 58.4402 205.197 58.9101C205.197 59.38 205.576 59.7592 206.047 59.7592C206.517 59.7592 206.897 59.38 206.897 58.9101C206.897 58.4402 206.517 58.0611 206.047 58.0611Z" fill="#231815"/>
<path d="M204.806 47.6376C204.806 47.6376 204.785 47.6376 204.78 47.6376C204.245 47.6216 203.828 47.1784 203.839 46.6444C204.047 39.3341 202.138 33.6737 198.171 29.8236C195.214 26.9561 192.139 26.2032 192.107 26.1978C191.589 26.075 191.268 25.557 191.385 25.039C191.508 24.5211 192.022 24.1953 192.54 24.3182C192.685 24.3502 196.091 25.1619 199.433 28.3605C202.48 31.2761 206.058 36.8296 205.774 46.7085C205.758 47.2318 205.33 47.6483 204.806 47.6483V47.6376Z" fill="#231815"/>
<path d="M171.072 84.8142C170.992 84.8142 170.911 84.8035 170.831 84.7875C170.259 84.654 169.901 84.0826 170.035 83.5112C170.051 83.4418 171.596 76.6547 171.853 68.1803C171.869 67.6036 172.344 67.1497 172.917 67.1497C172.927 67.1497 172.938 67.1497 172.949 67.1497C173.537 67.1657 173.997 67.657 173.981 68.2443C173.719 76.9378 172.173 83.7035 172.109 83.9865C171.997 84.4777 171.558 84.8088 171.072 84.8088V84.8142Z" fill="#231815"/>
<path d="M169.415 74.8337C169.415 74.8337 186.012 79.7144 196.647 75.592L197.791 81.6475C197.791 81.6475 204.469 103.589 203.416 122.023C203.416 122.023 190.321 123.513 185.573 124.303C185.573 124.303 169.751 86.384 166.324 82.9611L168.431 81.3805L169.409 74.8337H169.415Z" fill="#231815"/>
<path d="M185.573 125.366C185.151 125.366 184.76 125.115 184.589 124.714C178.264 109.549 167.976 86.1171 165.57 83.7142C165.351 83.4952 165.239 83.1962 165.26 82.8865C165.281 82.5767 165.436 82.2991 165.682 82.1122L167.441 80.7932L168.356 74.6736C168.404 74.3693 168.575 74.1023 168.837 73.9367C169.094 73.7712 169.415 73.7285 169.709 73.8139C169.869 73.862 186.086 78.5451 196.256 74.5989C196.551 74.4867 196.882 74.5081 197.16 74.663C197.438 74.8178 197.631 75.0848 197.689 75.3945L198.823 81.3966C199.203 82.6675 205.501 104.139 204.475 122.087C204.448 122.605 204.047 123.021 203.534 123.08C203.405 123.096 190.412 124.581 185.744 125.355C185.685 125.366 185.627 125.371 185.568 125.371L185.573 125.366ZM167.826 83.1641C172.024 89.3852 183.734 117.153 186.236 123.118C190.674 122.434 199.54 121.393 202.4 121.062C203.175 103.216 196.839 82.1602 196.775 81.9466C196.764 81.9093 196.754 81.8719 196.748 81.8345L195.834 76.9965C191.407 78.4116 185.723 78.6839 178.911 77.8028C175.082 77.3116 171.917 76.58 170.291 76.1635L169.489 81.5301C169.447 81.8078 169.297 82.0534 169.078 82.2243L167.826 83.1588V83.1641Z" fill="#231815"/>
<path d="M215.367 104.567C214.869 104.567 214.425 104.219 214.324 103.712C213.549 99.83 211.196 90.4264 211.169 90.3303C211.025 89.7589 211.372 89.1822 211.944 89.0434C212.517 88.8992 213.094 89.2463 213.233 89.8177C213.329 90.2075 215.623 99.3655 216.409 103.296C216.527 103.872 216.153 104.433 215.575 104.545C215.506 104.561 215.436 104.567 215.367 104.567Z" fill="#231815"/>
<path d="M175.553 131.427C175.088 131.427 174.665 131.122 174.532 130.658C174.371 130.092 174.697 129.504 175.264 129.344L178.954 128.292C179.515 128.132 180.108 128.458 180.269 129.024C180.429 129.59 180.103 130.177 179.536 130.337L175.847 131.389C175.751 131.416 175.649 131.432 175.553 131.432V131.427Z" fill="#231815"/>
<path d="M184.252 84.8088C174.526 84.8088 170.414 82.6888 170.222 82.582C169.703 82.3043 169.505 81.6636 169.783 81.1456C170.062 80.6276 170.703 80.4354 171.216 80.7077C171.286 80.7451 176.51 83.3563 189.108 82.5179C189.696 82.4752 190.198 82.9238 190.241 83.5058C190.279 84.0932 189.835 84.5952 189.252 84.6379C187.445 84.7607 185.782 84.8088 184.258 84.8088H184.252Z" fill="#727171"/>
<path d="M233.033 122.21C233.033 122.21 233.012 122.21 232.996 122.21L225.087 121.948C224.499 121.927 224.039 121.435 224.061 120.853C224.082 120.271 224.558 119.817 225.157 119.828L233.065 120.09C233.653 120.111 234.113 120.602 234.092 121.184C234.07 121.761 233.6 122.21 233.028 122.21H233.033Z" fill="#231815"/>
<path d="M178.451 176.453C178.312 176.453 178.173 176.426 178.039 176.367C178.007 176.351 174.532 174.883 170.847 172.976C165.693 170.312 162.704 168.171 161.709 166.44C161.415 165.933 161.597 165.282 162.105 164.993C162.613 164.705 163.265 164.881 163.554 165.388C163.987 166.147 165.639 167.898 171.821 171.091C175.435 172.96 178.831 174.402 178.868 174.413C179.408 174.643 179.665 175.267 179.435 175.807C179.264 176.212 178.868 176.453 178.456 176.453H178.451Z" fill="#231815"/>
<path d="M180.542 202.239C180.189 202.239 179.863 202.223 179.568 202.197C179.547 202.197 179.531 202.197 179.51 202.191L153.555 197.465C152.673 196.387 153.491 195.34 154.395 195.484L179.814 200.119C180.344 200.162 186.049 200.52 187.065 196.072C187.183 195.554 187.669 195.164 188.199 195.217C188.83 195.281 189.247 195.879 189.113 196.483C188.097 201.075 183.504 202.239 180.542 202.239Z" fill="#231815"/>
<path d="M57.0953 209.929C50.3099 209.929 47.6204 205.331 47.1445 202.747C47.1445 202.72 47.1338 202.688 47.1338 202.661L42.514 156.359C42.4552 155.782 42.8776 155.275 43.4497 155.216C44.0272 155.162 44.5352 155.579 44.594 156.15L49.2085 202.405C49.3261 202.939 50.6896 208.418 58.2449 207.793L103.775 203.302L94.7649 165.089C94.7435 164.999 94.7328 164.902 94.7382 164.812L95.0269 157.266C95.0483 156.69 95.5402 156.236 96.1124 156.262C96.6898 156.284 97.139 156.77 97.1176 157.346L96.8342 164.748L106.085 203.985C106.154 204.279 106.095 204.589 105.919 204.834C105.742 205.08 105.47 205.235 105.17 205.267L58.432 209.881C57.9669 209.918 57.523 209.939 57.0953 209.939V209.929Z" fill="#231815"/>
<path d="M33.2049 210.062C33.1461 210.062 33.0872 210.062 33.0338 210.046L24.1684 208.573C23.8904 208.525 23.6444 208.37 23.484 208.14C23.3236 207.91 23.2595 207.622 23.3129 207.344L27.3766 186.129C27.4836 185.563 28.029 185.189 28.6011 185.301C29.1679 185.408 29.5422 185.958 29.4299 186.524L25.5694 206.688L33.2102 207.959C35.3009 207.59 36.9585 206.287 38.1455 204.082C39.1026 202.298 39.3753 200.573 39.3807 200.557L44.0005 170.851C44.0914 170.28 44.6261 169.89 45.1929 169.981C45.765 170.072 46.1553 170.606 46.0644 171.172L41.4446 200.872C41.3965 201.198 40.1453 209.021 33.3653 210.046C33.3118 210.052 33.2637 210.057 33.2102 210.057L33.2049 210.062Z" fill="#231815"/>
<path d="M43.9737 378.436C43.4177 378.436 42.9578 378.003 42.9311 377.442C42.9043 376.866 43.3481 376.375 43.9203 376.348C44.0005 376.348 51.8766 375.878 56.5071 370.869C56.8974 370.447 57.5605 370.42 57.9829 370.81C58.4053 371.2 58.432 371.862 58.0417 372.284C52.823 377.928 44.3801 378.414 44.0272 378.43C44.0112 378.43 43.9898 378.43 43.9737 378.43V378.436Z" fill="#231815"/>
<path d="M90.2841 382.708C86.8513 382.708 84.0121 381.319 83.8249 381.228C83.3063 380.972 83.0977 380.342 83.3597 379.829C83.6164 379.311 84.2473 379.103 84.7607 379.365C84.8195 379.397 90.9044 382.345 95.3049 379.05C95.7701 378.703 96.4225 378.799 96.77 379.258C97.1176 379.717 97.0213 380.374 96.5615 380.721C94.5457 382.232 92.3106 382.713 90.2895 382.713L90.2841 382.708Z" fill="#231815"/>
<path d="M188.257 370.33C188.257 370.33 188.22 370.33 188.204 370.33C187.626 370.303 187.182 369.812 187.209 369.235C191.177 290.311 196.684 217.111 196.738 216.385C196.78 215.808 197.272 215.381 197.86 215.424C198.438 215.466 198.866 215.968 198.823 216.545C198.769 217.277 193.262 290.444 189.294 369.342C189.268 369.903 188.803 370.335 188.252 370.335L188.257 370.33Z" fill="#231815"/>
<path d="M212.57 201.064C210.827 201.064 209.437 200.68 208.41 199.906C206.79 198.683 206.737 197.001 206.737 196.814C206.737 196.226 207.207 195.751 207.795 195.751C208.373 195.751 208.843 196.216 208.854 196.793C208.854 196.851 208.913 197.652 209.72 198.24C211.025 199.185 213.65 199.174 217.115 198.202L219.19 197.465C219.74 197.268 220.35 197.556 220.548 198.106C220.746 198.656 220.457 199.265 219.906 199.462L217.8 200.215C217.8 200.215 217.751 200.231 217.73 200.237C215.762 200.792 214.035 201.064 212.565 201.064H212.57Z" fill="#231815"/>
</g>
<defs>
<clipPath id="clip0_1_2331">
<rect width="242" height="425" fill="white"/>
</clipPath>
</defs>
</svg>
