<svg width="38" height="38" viewBox="0 0 38 38" fill="none" xmlns="http://www.w3.org/2000/svg">
<g clip-path="url(#clip0_74_564)">
<path d="M29.6424 0.481934H8.81409V31.3318L29.6424 31.5518V0.481934Z" fill="white"/>
<path d="M8.81208 22.852C8.54466 22.852 8.32751 22.636 8.32751 22.3701V0.481873C8.32751 0.215943 8.54466 0 8.81208 0H12.7731C13.0405 0 13.2576 0.215943 13.2576 0.481873C13.2576 0.747803 13.0405 0.963746 12.7731 0.963746H9.29665V22.3721C9.29665 22.638 9.0795 22.854 8.81208 22.854V22.852Z" fill="#231815"/>
<path d="M29.6423 28.1946C29.3749 28.1946 29.1578 27.9786 29.1578 27.7127V0.963746H15.1516C14.8841 0.963746 14.667 0.747803 14.667 0.481873C14.667 0.215943 14.8841 0 15.1516 0H29.6403C29.9077 0 30.1249 0.215943 30.1249 0.481873V27.7127C30.1249 27.9786 29.9077 28.1946 29.6403 28.1946H29.6423Z" fill="#231815"/>
<path d="M4.71231 17.8792C4.94957 18.1151 4.96163 18.499 4.73242 18.7489L3.74921 19.8207C3.51396 20.0766 3.11385 20.0946 2.85447 19.8606C2.59711 19.6307 2.577 19.2288 2.81426 18.9709L3.79747 17.8992C4.03271 17.6432 4.43283 17.6252 4.69221 17.8592C4.70025 17.8652 4.70628 17.8732 4.71432 17.8792H4.71231Z" fill="#282828"/>
<path d="M3.68277 15.1819C3.73907 15.2379 3.78732 15.3079 3.81949 15.3859C3.9522 15.7078 3.79939 16.0757 3.47567 16.2077L2.3477 16.6715C2.02398 16.8035 1.65402 16.6515 1.52132 16.3296C1.38862 16.0077 1.54143 15.6398 1.86514 15.5078L2.99312 15.044C3.2364 14.944 3.50784 15.006 3.68277 15.1799V15.1819Z" fill="#282828"/>
<path d="M3.59642 8.32978C3.59642 8.32978 3.60245 8.33577 3.60647 8.33977L4.61582 9.3875C4.85709 9.63743 4.84905 10.0373 4.59772 10.2773C4.3484 10.5152 3.95431 10.5092 3.71303 10.2673C3.70901 10.2633 3.707 10.2613 3.70298 10.2573L2.69363 9.20955C2.45235 8.95961 2.4604 8.55972 2.71173 8.31978C2.96105 8.08184 3.35514 8.08784 3.59642 8.32978Z" fill="#282828"/>
<path d="M3.64461 12.0968C3.81552 12.2668 3.87986 12.5287 3.78737 12.7686C3.66271 13.0926 3.29476 13.2545 2.96903 13.1305L1.831 12.6947C1.50528 12.5707 1.34242 12.2048 1.46708 11.8809C1.59375 11.557 1.95969 11.395 2.28541 11.519L3.42545 11.9549C3.5099 11.9868 3.58429 12.0368 3.64461 12.0968Z" fill="#282828"/>
<path d="M33.5591 17.8792C33.3218 18.1151 33.3098 18.499 33.539 18.7489L34.5222 19.8207C34.7574 20.0766 35.1576 20.0946 35.4169 19.8606C35.6743 19.6307 35.6944 19.2288 35.4571 18.9709L34.4739 17.8992C34.2387 17.6432 33.8386 17.6252 33.5792 17.8592C33.5712 17.8652 33.5651 17.8732 33.5571 17.8792H33.5591Z" fill="#282828"/>
<path d="M34.5905 15.1819C34.5342 15.2379 34.486 15.3079 34.4538 15.3859C34.3211 15.7078 34.4739 16.0757 34.7976 16.2077L35.9256 16.6715C36.2493 16.8035 36.6193 16.6515 36.752 16.3296C36.8847 16.0077 36.7319 15.6398 36.4082 15.5078L35.2802 15.044C35.0369 14.944 34.7655 15.006 34.5905 15.1799V15.1819Z" fill="#282828"/>
<path d="M34.6749 8.32978C34.6749 8.32978 34.6689 8.33577 34.6649 8.33977L33.6555 9.3875C33.4143 9.63743 33.4223 10.0373 33.6736 10.2773C33.923 10.5152 34.3171 10.5092 34.5583 10.2673C34.5624 10.2633 34.5644 10.2613 34.5684 10.2573L35.5777 9.20955C35.819 8.95961 35.811 8.55972 35.5596 8.31978C35.3103 8.08184 34.9162 8.08784 34.6749 8.32978Z" fill="#282828"/>
<path d="M34.6288 12.0968C34.4579 12.2668 34.3935 12.5287 34.486 12.7686C34.6107 13.0926 34.9786 13.2545 35.3044 13.1305L36.4444 12.6947C36.7721 12.5707 36.933 12.2048 36.8083 11.8809C36.6817 11.557 36.3157 11.395 35.99 11.519L34.85 11.9549C34.7655 11.9868 34.6911 12.0368 34.6308 12.0968H34.6288Z" fill="#282828"/>
<path d="M35.6281 29.4043C35.2762 29.3023 34.9003 29.3063 34.5403 29.3763L22.5307 31.4477C24.4871 30.532 23.9221 28.9284 22.6695 27.9767C22.2452 27.6527 21.7747 27.3948 21.2701 27.2189L15.0471 24.7535C13.0344 24.0777 10.8448 24.1337 8.87037 24.9115L6.158 25.9772H1.04089V34.5189H6.158L14.8802 37.1442C17.0014 37.5381 18.4109 37.5821 20.0838 37.3862C21.4028 37.2322 22.6996 36.9323 23.9623 36.5244L35.5135 32.9074C36.0383 32.5814 36.9551 32.3275 36.9551 31.3438C37.0074 30.276 36.4223 29.6362 35.6281 29.4043Z" fill="white"/>
<path d="M17.876 38.0001C17.2326 38.0001 16.5892 37.9561 15.9519 37.8661C15.5839 37.8141 15.1999 37.7521 14.7796 37.6742C14.7595 37.6702 14.7414 37.6662 14.7213 37.6602L6.07554 35.0589H1.04087C0.741278 35.0589 0.5 34.8169 0.5 34.521C0.5 34.2251 0.743289 33.9831 1.04087 33.9831H6.15797C6.21025 33.9831 6.26454 33.9911 6.3148 34.0071L15.0089 36.6244C15.4009 36.6964 15.7588 36.7564 16.1027 36.8044C17.9243 37.0603 19.7781 36.9184 21.6078 36.3865L34.7012 32.4615C34.9887 32.3756 35.2903 32.5375 35.3768 32.8214C35.4632 33.1054 35.3004 33.4073 35.0148 33.4933L21.9175 37.4182C20.5743 37.8101 19.2232 38.0041 17.876 38.0041V38.0001Z" fill="#231815"/>
<path d="M34.858 33.5112C34.6248 33.5112 34.4097 33.3612 34.3393 33.1273C34.2528 32.8433 34.4157 32.5414 34.7032 32.4575C36.1147 32.0356 36.3801 31.3877 36.4163 31.2738C36.4424 30.392 35.9217 30.0501 35.4753 29.9201C35.232 29.8481 34.9525 29.8441 34.6469 29.9041L26.4515 31.3178C26.1579 31.3677 25.8765 31.1718 25.8262 30.8799C25.7759 30.5879 25.973 30.308 26.2665 30.258L34.4479 28.8464C34.9143 28.7544 35.3667 28.7664 35.7809 28.8884C36.9149 29.2203 37.5563 30.1481 37.496 31.3717C37.496 31.3857 37.496 31.3997 37.492 31.4117C37.4739 31.5537 37.2527 32.8214 35.0129 33.4892C34.9606 33.5052 34.9083 33.5112 34.858 33.5112Z" fill="#231815"/>
<path d="M21.7083 32.1335H21.7003C20.9061 32.1335 20.2024 31.9296 20.0998 31.8976L13.9352 30.232C13.6456 30.154 13.4767 29.8581 13.5552 29.5722C13.6336 29.2843 13.9311 29.1163 14.2187 29.1943L20.3914 30.8618C20.3914 30.8618 20.4054 30.8658 20.4115 30.8678C20.4336 30.8738 22.6714 31.5497 23.1741 30.336C23.1862 30.304 23.2023 30.274 23.2224 30.246C23.2626 30.176 23.6406 29.4702 22.5991 28.5764C22.0924 28.2565 15.5035 25.4833 14.8681 25.2613C12.5016 24.4095 10.9494 24.6715 9.06939 25.4113L6.35703 26.477C6.29269 26.501 6.22633 26.515 6.15797 26.515H1.04087C0.741278 26.515 0.5 26.273 0.5 25.9771C0.5 25.6812 0.743289 25.4393 1.04087 25.4393H6.05543L8.67129 24.4115C10.7402 23.5978 12.5599 23.2878 15.232 24.2476C15.2903 24.2676 22.6996 27.2968 23.2626 27.7247C23.2706 27.7307 23.2787 27.7367 23.2847 27.7427C24.7062 28.9463 24.4911 30.234 24.1593 30.7899C23.8859 31.4157 23.2385 32.1375 21.7104 32.1375L21.7083 32.1335Z" fill="#231815"/>
<path d="M12.4634 6.76425H26.2142V4.59082H12.4634V6.76425Z" fill="#282828"/>
<path d="M12.4634 11.523H26.2142V9.34961H12.4634V11.523Z" fill="#282828"/>
<path d="M12.4634 16.2818H26.2142V14.1084H12.4634V16.2818Z" fill="#282828"/>
<path d="M12.4634 21.0426H26.2142V18.8691H12.4634V21.0426Z" fill="#282828"/>
</g>
<defs>
<clipPath id="clip0_74_564">
<rect width="37" height="38" fill="white" transform="translate(0.5)"/>
</clipPath>
</defs>
</svg>
