<svg width="50" height="59" viewBox="0 0 50 59" fill="none" xmlns="http://www.w3.org/2000/svg">
<mask id="mask0_5_1282" style="mask-type:luminance" maskUnits="userSpaceOnUse" x="0" y="0" width="50" height="59">
<path d="M50 33.7295C50 47.5363 38.8068 58.7295 25 58.7295C11.1932 58.7295 0 47.5363 0 33.7295C0 19.9227 11.1932 0 25 0C38.8068 0 50 19.9227 50 33.7295Z" fill="white"/>
</mask>
<g mask="url(#mask0_5_1282)">
<path d="M42.6771 51.4062C52.4402 41.6431 52.4402 25.814 42.6771 16.0508C32.9139 6.28774 17.0848 6.28774 7.32171 16.0508C-2.4414 25.814 -2.4414 41.6431 7.32171 51.4062C17.0848 61.1693 32.9139 61.1693 42.6771 51.4062Z" fill="#DCDDDD"/>
<path d="M46.8221 61.0402C46.8221 61.0309 46.8252 61.0139 46.8252 60.983L45.8499 40.2937C45.8499 40.2937 45.6969 36.7527 42.6196 35.4482L34.2858 32.2427L34.2811 32.2396L34.3043 32.2133L34.2255 32.2071L31.938 30.252L25.108 30.8609L18.278 30.252L15.9906 32.2071L15.9117 32.2133L15.9349 32.2396L15.9303 32.2427L7.59643 35.4482C4.51761 36.7543 4.36614 40.2937 4.36614 40.2937L3.39087 60.983C3.39087 61.0139 3.39087 61.0325 3.39396 61.0402C3.38932 61.0989 3.39087 61.0866 3.39396 61.0402C3.40014 61.0758 3.4156 60.9104 3.43105 60.7326C3.43105 60.7898 3.42796 60.8903 3.42178 61.0479C3.4156 61.1654 3.40632 61.3014 3.3986 61.4575H46.8175C46.8082 61.3014 46.8005 61.1669 46.7943 61.0479C46.7881 60.8903 46.785 60.7898 46.785 60.7326C46.7989 60.9104 46.8144 61.0773 46.8221 61.0402C46.8267 61.0989 46.8252 61.085 46.8221 61.0402Z" fill="#D4E1FF"/>
<path d="M24.8053 28.8232L20.1933 28.4075L18.929 30.2838L25.0201 54.0953L31.7203 30.2869L30.98 28.8232H24.8053Z" fill="white"/>
<path d="M20.2795 30.4236L20.0647 24.1825H30.3939L30.6087 30.2088C30.6087 30.2088 27.8112 33.759 25.2285 35.266C25.2285 35.266 22.431 33.2211 20.2795 30.4236Z" fill="white"/>
<path d="M25.2302 35.6983C25.1406 35.6983 25.0509 35.6704 24.9752 35.6148C24.8593 35.5298 22.1035 33.502 19.9381 30.6874C19.8825 30.6163 19.8516 30.5282 19.8485 30.4386L19.6336 24.1975C19.629 24.08 19.6738 23.9657 19.7557 23.8822C19.8376 23.7972 19.9505 23.7493 20.0679 23.7493H30.3972C30.6305 23.7493 30.8222 23.9347 30.8299 24.1666L31.0448 30.1913C31.0478 30.2933 31.0154 30.3938 30.952 30.4757C30.8361 30.6225 28.0726 34.1094 25.4497 35.6395C25.3817 35.6797 25.306 35.6983 25.2318 35.6983H25.2302ZM20.7094 30.2686C22.4312 32.4742 24.5656 34.2052 25.258 34.7415C27.4033 33.3876 29.6769 30.6689 30.1715 30.0615L29.9768 24.6148H20.5131L20.7078 30.267L20.7094 30.2686Z" fill="#231815"/>
<path d="M31.332 6.50219C30.2563 5.75412 28.839 5.16525 27.5515 4.96432C24.8235 4.53774 22.7849 5.76185 22.366 6.17298C21.5778 6.51301 21.5793 6.68457 20.9178 6.93341C20.9178 6.93341 18.2362 7.56556 16.5979 10.4218C15.604 12.1544 15.74 14.2193 16.1697 16.1776L16.6751 18.4775C16.8127 18.3662 16.9672 18.292 17.1388 18.2642C17.3212 18.2348 17.5067 18.2626 17.6844 18.3337L17.9379 16.3925C18.4928 13.2704 18.4649 12.547 20.7339 11.3384C20.7339 11.3384 22.0167 10.7758 22.9889 9.91023C26.757 8.17916 29.4835 10.7758 31.3753 13.7418C31.3753 13.7418 32.5036 15.0014 32.1589 15.1436C32.2656 15.3878 32.5237 16.2765 32.7277 17.0756C32.8637 17.6073 32.975 18.0988 32.9997 18.3337C33.1774 18.2611 33.3614 18.2348 33.5438 18.2642C33.856 18.3152 34.1156 18.5192 34.3042 18.8237L35.1682 15.1297C35.6009 11.6676 33.3614 7.91332 31.3336 6.50374L31.332 6.50219Z" fill="#93B3FF"/>
<path d="M22.9858 9.90864C26.754 8.17758 29.4804 10.7742 31.3722 13.7402C31.3722 13.7402 32.5005 14.9998 32.1559 15.142C32.2625 15.3862 32.5206 16.2749 32.7246 17.074C32.8607 17.6057 32.9719 18.0972 32.9967 18.3321C33.1744 18.2595 33.3583 18.2332 33.5407 18.2626C34.329 18.3924 34.7957 19.4991 34.5809 20.734C34.3661 21.9689 33.5531 23.6103 32.7633 23.4821C32.6396 23.462 32.5237 23.4141 32.4171 23.3491C32.1404 24.4666 31.1528 27.3476 28.043 29.1729C25.1806 30.768 22.6365 29.1729 22.6365 29.1729C19.5268 27.3476 18.5376 24.4651 18.2625 23.3491C18.1559 23.4156 18.0399 23.462 17.9163 23.4821C17.1265 23.6103 16.3135 21.9705 16.0987 20.734C15.8838 19.4991 16.3506 18.3924 17.1389 18.2626C17.3212 18.2332 17.5067 18.261 17.6845 18.3321L17.9379 16.3909C18.4928 13.2688 18.465 12.5454 20.7339 11.3368C20.7339 11.3368 22.0168 10.7742 22.9889 9.90864H22.9858Z" fill="white"/>
<path d="M33.6026 17.9039C33.5083 17.8885 33.4125 17.8838 33.3166 17.89C33.1713 16.9255 32.8715 15.8529 32.5006 15.0013C32.4202 14.8158 32.2007 14.7293 32.0091 14.8081C31.8189 14.8869 31.7293 15.1002 31.8097 15.2841C32.2023 16.1868 32.5098 17.3537 32.6196 18.3398L32.4805 19.9843C32.4635 20.1852 32.6165 20.3599 32.8236 20.3769C32.8344 20.3769 32.8437 20.3769 32.8545 20.3769C33.0477 20.3769 33.2115 20.2331 33.227 20.043L33.3475 18.618C33.3924 18.6149 33.4356 18.6149 33.4774 18.6211C33.9781 18.703 34.4032 19.567 34.21 20.6736C33.9859 21.9642 33.2146 23.1852 32.8251 23.1234C32.7556 23.111 32.6876 23.0847 32.6149 23.0415C32.5129 22.9796 32.3862 22.9673 32.2734 23.0121C32.1621 23.0569 32.0786 23.1497 32.0508 23.264C31.7788 24.3645 30.8236 27.1141 27.8545 28.8575C25.2347 30.3166 22.9333 28.9271 22.8282 28.8622C19.8514 27.1141 18.8962 24.366 18.6242 23.264C18.5964 23.1497 18.5129 23.0554 18.4001 23.0121C18.2888 22.9673 18.1605 22.9796 18.0585 23.0415C17.9874 23.0847 17.9179 23.1126 17.8499 23.1234C17.4588 23.1883 16.6891 21.9642 16.465 20.6736C16.2734 19.567 16.6968 18.703 17.1976 18.6211C17.2409 18.6149 17.2842 18.6133 17.329 18.618L17.4496 20.043C17.465 20.2331 17.6288 20.3769 17.822 20.3769C17.8329 20.3769 17.8421 20.3769 17.853 20.3769C18.0585 20.3599 18.2131 20.1852 18.1961 19.9843L18.0539 18.3119L17.989 16.9858C17.9797 16.7849 17.805 16.6303 17.5964 16.6396C17.3893 16.6489 17.2301 16.8189 17.2394 17.0198L17.2826 17.8885C17.2115 17.8885 17.142 17.8946 17.0724 17.9055C16.0647 18.0708 15.4727 19.3398 15.7247 20.7957C15.9256 21.9534 16.7896 24.0337 17.9751 23.8421C17.9843 23.8405 17.9951 23.839 18.0044 23.8374C18.414 25.2022 19.5376 27.7834 22.4295 29.4804C22.5036 29.5268 23.6891 30.2517 25.3584 30.2517C26.2162 30.2517 27.2038 30.06 28.2332 29.4866C31.1342 27.7834 32.2594 25.2022 32.6675 23.8374C32.6783 23.839 32.6876 23.8405 32.6984 23.8436C32.7494 23.8514 32.8004 23.856 32.8514 23.856C33.9534 23.856 34.7556 21.9039 34.9472 20.7973C35.1992 19.3413 34.6072 18.0724 33.5995 17.907L33.6026 17.9039Z" fill="#231815"/>
<path d="M25.3615 30.3165C23.6598 30.3165 22.4481 29.5669 22.3971 29.5345C19.5316 27.8528 18.3894 25.3134 17.9597 23.91C16.7449 24.077 15.8639 21.9765 15.6614 20.8049C15.5068 19.9147 15.6552 19.0708 16.0663 18.4912C16.326 18.1264 16.6707 17.9008 17.0648 17.8358C17.1142 17.8281 17.1653 17.8219 17.2147 17.8204L17.1761 17.0213C17.1699 16.9085 17.2101 16.7987 17.2874 16.7137C17.3677 16.6256 17.4775 16.5746 17.598 16.5685C17.8422 16.553 18.0493 16.7416 18.0617 16.978L18.1266 18.3042L18.2688 19.9749C18.2781 20.0878 18.2425 20.1975 18.1683 20.2856C18.0911 20.3753 17.9829 20.4309 17.8639 20.4402C17.8515 20.4402 17.8391 20.4402 17.8268 20.4402C17.598 20.4402 17.4048 20.2671 17.3863 20.0445L17.2704 18.6797C17.2487 18.6797 17.2302 18.6813 17.2116 18.6844C17.0632 18.7091 16.9211 18.8127 16.7989 18.9827C16.5238 19.3691 16.4234 20.0105 16.5362 20.6581C16.7588 21.9409 17.5269 23.1032 17.8438 23.0522C17.904 23.0414 17.9643 23.0182 18.0277 22.9796C18.1483 22.9054 18.2982 22.893 18.4295 22.944C18.5609 22.9966 18.6598 23.1079 18.6938 23.2423C18.9643 24.3351 19.9118 27.063 22.867 28.7972C22.9643 28.8575 25.2425 30.2315 27.8268 28.7926C30.7727 27.063 31.7201 24.3351 31.9906 23.2423C32.0231 23.1079 32.122 22.995 32.2549 22.944C32.3863 22.8915 32.5362 22.9054 32.6568 22.978C32.7201 23.0167 32.7819 23.0414 32.8422 23.0507C33.1637 23.1048 33.9257 21.9363 34.1483 20.6566C34.2611 20.0105 34.1591 19.3675 33.8855 18.9827C33.7634 18.8111 33.6212 18.7076 33.4713 18.6828C33.4527 18.6797 33.4342 18.6782 33.4141 18.6782L33.2982 20.043C33.2781 20.2763 33.0648 20.4587 32.8206 20.4371C32.7016 20.4278 32.5934 20.3722 32.5161 20.2825C32.4419 20.1944 32.4064 20.0847 32.4156 19.9719L32.5547 18.3273C32.4466 17.3629 32.139 16.1991 31.751 15.3057C31.7062 15.2006 31.7047 15.0847 31.7479 14.978C31.7928 14.8698 31.8778 14.7848 31.9875 14.7385C32.2116 14.6457 32.4713 14.7493 32.5656 14.9688C32.9257 15.7972 33.2271 16.8559 33.377 17.8142C33.4574 17.8111 33.5377 17.8188 33.6166 17.8312C34.0107 17.8961 34.3554 18.1233 34.615 18.4881C35.0277 19.0677 35.1745 19.91 35.02 20.8003C34.85 21.7756 34.0694 23.9147 32.8577 23.9147C32.8113 23.9131 32.7665 23.9116 32.7217 23.9054C32.2904 25.3088 31.1483 27.8498 28.2734 29.536C27.3507 30.0507 26.3724 30.3103 25.3646 30.3103L25.3615 30.3165ZM18.0061 23.7678C18.0354 23.7678 18.0632 23.7864 18.0725 23.8158C18.4836 25.1867 19.6011 27.7369 22.4682 29.4201C22.5192 29.4525 23.7 30.1821 25.3631 30.1821C26.3476 30.1821 27.3044 29.927 28.2054 29.4247C31.0787 27.7385 32.1977 25.1867 32.6088 23.8158C32.6181 23.7817 32.6521 23.7617 32.6877 23.7694L32.7155 23.774C32.7634 23.7817 32.8159 23.7848 32.8577 23.7848C33.9226 23.7848 34.7047 21.8297 34.887 20.7833C35.0339 19.9409 34.8901 19.1141 34.5053 18.5715C34.2673 18.2377 33.9535 18.029 33.5949 17.9703C33.5053 17.9564 33.4141 17.9518 33.3245 17.9564C33.2889 17.961 33.258 17.9332 33.2534 17.8992C33.1081 16.9363 32.8051 15.8637 32.4419 15.0275C32.377 14.876 32.1962 14.8049 32.0385 14.8698C31.9612 14.9008 31.9025 14.9595 31.8731 15.0337C31.8438 15.1063 31.8453 15.1851 31.8762 15.2562C32.2688 16.162 32.581 17.3397 32.6908 18.3304L32.5517 19.9889C32.5455 20.0661 32.5687 20.1403 32.6197 20.2006C32.6722 20.264 32.7479 20.3011 32.8314 20.3088C32.8407 20.3088 32.8484 20.3088 32.8577 20.3088C33.0169 20.3088 33.1498 20.1898 33.1637 20.0368L33.2843 18.6117C33.2874 18.5793 33.3136 18.553 33.3461 18.5499C33.4002 18.5453 33.4496 18.5468 33.4929 18.5545C33.6784 18.5855 33.8515 18.7076 33.9952 18.9085C34.2951 19.3289 34.4017 19.9935 34.2812 20.6844C34.0648 21.9286 33.2889 23.2671 32.819 23.1898C32.7402 23.1774 32.6629 23.1465 32.5841 23.0986C32.5006 23.0476 32.3955 23.0383 32.3028 23.0754C32.2116 23.111 32.1436 23.1882 32.1204 23.281C31.8453 24.3907 30.884 27.1604 27.8917 28.9162C25.2394 30.3953 22.8932 28.9811 22.7959 28.9193C19.7974 27.1589 18.836 24.3892 18.5625 23.2794C18.5393 23.1867 18.4713 23.1094 18.3801 23.0739C18.2874 23.0368 18.1823 23.046 18.0988 23.0986C18.02 23.1465 17.9442 23.1774 17.8654 23.1898C17.3955 23.2671 16.6197 21.9332 16.4017 20.6859C16.2812 19.995 16.3894 19.3304 16.6877 18.91C16.8314 18.7091 17.0045 18.587 17.19 18.5561C17.2348 18.5499 17.2827 18.5484 17.3384 18.5515C17.3708 18.5545 17.3971 18.5808 17.4002 18.6133L17.5207 20.0383C17.5347 20.1991 17.683 20.3243 17.8515 20.3088C17.9365 20.3026 18.0122 20.264 18.0648 20.2006C18.1158 20.1403 18.139 20.0661 18.1328 19.9889L17.9906 18.3165L17.9257 16.9873C17.918 16.8219 17.7742 16.6983 17.6042 16.706C17.5207 16.7107 17.4435 16.7462 17.3878 16.8065C17.3353 16.8637 17.309 16.9379 17.3121 17.0151L17.3554 17.8838C17.3554 17.9023 17.3492 17.9209 17.3368 17.9332C17.3244 17.9471 17.3059 17.9549 17.2874 17.9549C17.2209 17.9549 17.1529 17.9595 17.088 17.9703C16.7309 18.029 16.4156 18.2362 16.1792 18.57C15.7943 19.1125 15.6506 19.9394 15.7974 20.7817C15.9952 21.9162 16.8345 23.9564 17.969 23.7725L17.9952 23.7678C17.9952 23.7678 18.0045 23.7678 18.0076 23.7678H18.0061Z" fill="#231815"/>
<path d="M22.9859 10.2917C22.9457 10.2917 22.9039 10.2855 22.8638 10.2716C22.6675 10.2036 22.5624 9.98411 22.6288 9.78472C23.0832 8.43851 23.8514 7.50033 24.9132 6.99956C26.7834 6.11548 28.8684 6.92074 28.9549 6.95629C29.1497 7.03356 29.2455 7.25613 29.1698 7.45242C29.094 7.65026 28.8761 7.74763 28.6814 7.6719C28.6628 7.66417 26.8004 6.95165 25.2254 7.69817C24.3583 8.1093 23.7247 8.89446 23.3413 10.0351C23.2872 10.1943 23.1404 10.2948 22.9843 10.2948L22.9859 10.2917Z" fill="#231815"/>
<path d="M22.9875 10.3601C22.938 10.3601 22.8901 10.3524 22.8422 10.3354C22.6103 10.255 22.4867 9.99846 22.5655 9.76198C23.0261 8.39722 23.8066 7.44668 24.8854 6.93664C26.7834 6.04019 28.8932 6.85627 28.9813 6.89181C29.21 6.98146 29.3229 7.24421 29.2348 7.47605C29.1915 7.58888 29.1065 7.67852 28.9967 7.72644C28.8885 7.77435 28.768 7.77589 28.6582 7.73262C28.6397 7.72489 26.802 7.02474 25.2564 7.75735C24.4079 8.16075 23.785 8.93355 23.4079 10.0541C23.346 10.2365 23.1776 10.3601 22.9875 10.3601ZM26.8731 6.65225C26.2672 6.65225 25.5933 6.75271 24.9442 7.05874C23.8994 7.55178 23.142 8.47605 22.6938 9.80526C22.6382 9.97064 22.7247 10.1499 22.887 10.2071C23.0462 10.2628 23.2255 10.1716 23.2796 10.0108C23.6691 8.85317 24.3151 8.0541 25.1992 7.63525C26.802 6.87636 28.6907 7.5997 28.7093 7.60742C28.785 7.63834 28.8684 7.63525 28.9426 7.60279C29.0199 7.56878 29.0786 7.50696 29.108 7.42814C29.1698 7.26585 29.091 7.08192 28.9318 7.01855C28.8762 6.99691 27.9905 6.65379 26.8715 6.65379L26.8731 6.65225Z" fill="#231815"/>
<path d="M26.8761 10.4159C26.7741 10.4159 26.6721 10.3742 26.5979 10.2922C26.4573 10.1361 26.4681 9.89348 26.6211 9.74973C28.2301 8.25051 31.0199 9.25824 31.1373 9.30151C31.3336 9.37415 31.4341 9.59363 31.363 9.79301C31.2919 9.99239 31.0755 10.0944 30.8792 10.0233C30.8545 10.014 28.4016 9.1315 27.1312 10.317C27.0585 10.385 26.9673 10.4174 26.8761 10.4174V10.4159Z" fill="#231815"/>
<path d="M26.8762 10.4838C26.751 10.4838 26.632 10.4297 26.547 10.3369C26.3816 10.153 26.394 9.86708 26.5748 9.70015C28.2116 8.17465 31.0416 9.1932 31.1606 9.23802C31.3909 9.32303 31.5099 9.58269 31.4265 9.81607C31.3863 9.93045 31.3028 10.0216 31.1946 10.0726C31.088 10.1236 30.9674 10.1283 30.8561 10.0866C30.8314 10.0773 28.4095 9.21638 27.1776 10.3648C27.0957 10.442 26.9891 10.4838 26.8762 10.4838ZM29.003 8.99691C28.2054 8.99691 27.3306 9.17929 26.666 9.79907C26.5393 9.91654 26.5316 10.1175 26.6475 10.2457C26.7588 10.3678 26.9628 10.3787 27.0833 10.2658C28.377 9.06028 30.8762 9.94899 30.901 9.95827C30.9782 9.98609 31.0602 9.983 31.1343 9.94899C31.2101 9.91344 31.2673 9.85007 31.2966 9.7697C31.3554 9.60587 31.2719 9.42349 31.1112 9.36476C31.0447 9.34003 30.0942 8.99845 29.0014 8.99845L29.003 8.99691Z" fill="#231815"/>
<path d="M26.354 39.9738L26.3695 39.5055L27.541 37.9445L26.4638 36.6523H23.8795L22.8022 37.9445L23.9738 39.5055L23.9893 39.9738L22.9104 45.1933L24.2319 51.0805L24.5905 52.2289C24.5967 52.4081 24.6971 53.7358 24.878 53.7358L25.0217 54.0944L25.524 53.8795L26.1701 52.2289L26.0805 53.0758L27.4344 45.1918L26.3556 39.9723L26.354 39.9738Z" fill="#93B3FF"/>
<path d="M22.0773 39.5056C21.9676 39.5056 21.8578 39.4669 21.7713 39.3866C21.5873 39.2181 21.575 38.9322 21.745 38.7482L24.2226 36.0558C24.391 35.8719 24.677 35.8595 24.8609 36.0295C25.0448 36.198 25.0572 36.4839 24.8872 36.6679L22.4096 39.3603C22.3199 39.4577 22.1994 39.5056 22.0773 39.5056Z" fill="#231815"/>
<path d="M28.4498 39.5056C28.3277 39.5056 28.2056 39.4561 28.1175 39.3603L25.6399 36.6679C25.4714 36.4839 25.4822 36.198 25.6662 36.0295C25.8501 35.8611 26.136 35.8719 26.3045 36.0558L28.7821 38.7482C28.9505 38.9322 28.9397 39.2181 28.7558 39.3866C28.6693 39.4669 28.5595 39.5056 28.4498 39.5056Z" fill="#231815"/>
<path d="M27.4621 54.0447C27.3864 54.0447 27.3106 54.0261 27.2395 53.986C27.0231 53.8623 26.9459 53.5872 27.0695 53.3708L33.2534 42.4697L31.1267 40.3445C31.0247 40.2425 30.9783 40.0972 31 39.955C31.0216 39.8128 31.1112 39.6892 31.2395 39.6227L34.3075 38.0385L33.5517 33.0107C33.5286 32.7618 33.7125 32.5424 33.9598 32.5192C34.2071 32.4945 34.4281 32.6799 34.4513 32.9272L35.2349 38.258C35.2519 38.4419 35.1561 38.6166 34.9922 38.7L32.204 40.139L34.136 42.071C34.2797 42.2147 34.3091 42.4373 34.2102 42.6135L27.8562 53.8128C27.7728 53.9597 27.6197 54.0416 27.4636 54.0416L27.4621 54.0447Z" fill="#231815"/>
<path d="M24.9845 56.3055C24.9382 56.3055 24.8918 56.2978 24.8454 56.2839C24.6074 56.2082 24.4776 55.9531 24.5533 55.7151L25.051 54.1711L31.5178 30.287C31.5827 30.0459 31.8315 29.9037 32.0711 29.9686C32.3122 30.0335 32.4544 30.2823 32.3895 30.5219L25.9196 54.4168C25.9196 54.4168 25.9165 54.4307 25.9134 54.4369L25.4127 55.9902C25.3508 56.1819 25.1731 56.304 24.983 56.304L24.9845 56.3055Z" fill="#231815"/>
<path d="M22.694 52.9705C22.5441 52.9705 22.3973 52.8963 22.3123 52.7603L15.9877 42.7418C15.8764 42.5656 15.8996 42.3384 16.0434 42.1885L18.1438 40.0014L15.4653 39.0509C15.269 38.9813 15.1454 38.7866 15.167 38.5795L15.5534 34.7681L15.7837 33.0401C15.8053 32.7912 16.0248 32.6089 16.2721 32.629C16.5209 32.6506 16.7049 32.8701 16.6832 33.1189L16.4529 34.8531L16.1021 38.3183L19.1067 39.3848C19.252 39.4358 19.3602 39.5563 19.3957 39.7062C19.4313 39.8562 19.388 40.0123 19.2814 40.1235L16.9413 42.5609L23.0774 52.2796C23.2103 52.4899 23.1469 52.7696 22.9367 52.9025C22.8625 52.9504 22.7791 52.9721 22.6956 52.9721L22.694 52.9705Z" fill="#231815"/>
<path d="M24.5904 52.6798C24.3926 52.6798 24.2118 52.5485 24.1561 52.3491L18.0603 30.5253C17.9938 30.2857 18.1329 30.0353 18.374 29.9689C18.6136 29.9024 18.864 30.0415 18.9305 30.2826L25.0263 52.1064C25.0927 52.346 24.9536 52.5964 24.7125 52.6628C24.6723 52.6736 24.6306 52.6798 24.5904 52.6798Z" fill="#231815"/>
<path d="M32.1283 46.363C31.8903 46.363 31.6909 46.176 31.677 45.9348C31.6631 45.686 31.8547 45.4727 32.1036 45.4603L37.5595 45.1729C37.8084 45.1574 38.0216 45.3506 38.034 45.5994C38.0479 45.8483 37.8563 46.0616 37.6074 46.0739L32.1515 46.3614C32.1438 46.3614 32.136 46.3614 32.1268 46.3614L32.1283 46.363Z" fill="#231815"/>
<path d="M28.0122 18.3414C28.0153 18.6783 28.2904 18.9488 28.6274 18.9457C28.9643 18.9426 29.2348 18.6675 29.2317 18.3305C29.2286 17.9936 28.9535 17.7231 28.6181 17.7262C28.2811 17.7293 28.0107 18.0044 28.0122 18.3398V18.3414Z" fill="#231815"/>
<path d="M21.5037 18.392C21.5068 18.729 21.7819 18.9994 22.1188 18.9964C22.4557 18.9933 22.7262 18.7181 22.7231 18.3812C22.72 18.0443 22.4449 17.7738 22.1095 17.7769C21.7726 17.78 21.5021 18.0551 21.5052 18.3905L21.5037 18.392Z" fill="#231815"/>
<path d="M25.7092 23.7585C25.9148 23.757 26.0786 23.59 26.0771 23.3845C26.0755 23.1789 25.9086 23.0151 25.703 23.0166L25.0261 23.0212C24.8205 23.0228 24.6567 23.1897 24.6582 23.3953C24.6598 23.6008 24.8267 23.7647 25.0323 23.7631L25.7092 23.7585Z" fill="#231815"/>
<path d="M24.8685 23.7846C24.819 23.7645 24.7726 23.7336 24.7325 23.695C24.6521 23.6161 24.6073 23.5095 24.6057 23.3967C24.6057 23.2838 24.6474 23.1772 24.7278 23.0968C24.8066 23.0165 24.9133 22.9716 25.0261 22.9701L25.7031 22.9655C25.8159 22.9655 25.9226 23.0072 26.0029 23.0876C26.0833 23.1664 26.1281 23.273 26.1297 23.3859C26.1297 23.4987 26.0879 23.6053 26.0076 23.6857C25.9287 23.7661 25.8221 23.8109 25.7093 23.8124L25.0323 23.8171C24.9751 23.8171 24.9195 23.8063 24.8685 23.7862V23.7846ZM25.8267 23.0922C25.7881 23.0767 25.7464 23.069 25.7031 23.069L25.0261 23.0736C24.9411 23.0736 24.8607 23.1076 24.8005 23.1695C24.7402 23.2298 24.7077 23.3101 24.7093 23.3951C24.7093 23.4801 24.7433 23.5605 24.8051 23.6208C24.8654 23.6811 24.9457 23.7135 25.0308 23.712L25.7077 23.7073C25.7927 23.7073 25.8731 23.6733 25.9334 23.6115C25.9937 23.5512 26.0261 23.4709 26.0246 23.3859C26.0246 23.3008 25.9906 23.2205 25.9287 23.1602C25.8994 23.1308 25.8638 23.1076 25.8252 23.0922H25.8267Z" fill="#231815"/>
<path d="M20.983 16.7094C20.83 16.7094 20.6831 16.6275 20.6058 16.4822C20.4961 16.2751 20.5749 16.0169 20.7836 15.9072C21.9227 15.3044 22.9892 15.8237 23.034 15.8469C23.2442 15.952 23.3292 16.2071 23.2241 16.4188C23.119 16.629 22.8655 16.714 22.6553 16.6105C22.6213 16.5934 21.9227 16.2689 21.1824 16.6615C21.119 16.6955 21.051 16.7109 20.983 16.7109V16.7094Z" fill="#231815"/>
<path d="M25.3755 25.9999C24.0741 25.9999 23.1035 25.5517 23.0417 25.5223C22.8299 25.4219 22.7388 25.1684 22.8392 24.9551C22.9397 24.7434 23.1932 24.6522 23.4049 24.7526C23.425 24.7619 25.3956 25.663 27.3184 24.7001C27.5286 24.595 27.7851 24.68 27.8902 24.8902C27.9953 25.1004 27.9103 25.357 27.7001 25.4621C26.8887 25.867 26.0834 25.9999 25.3755 25.9999Z" fill="#231815"/>
<path d="M10.7202 61.3134C10.5038 61.3134 10.3184 61.1496 10.2967 60.9301L8.72639 45.0012L5.49764 39.1001C5.38481 38.8945 5.46055 38.6349 5.66611 38.5221C5.87167 38.4092 6.13134 38.485 6.24416 38.6905L9.51464 44.6673C9.54246 44.7183 9.55946 44.7724 9.56565 44.8296L11.1452 60.8435C11.1684 61.0769 10.9969 61.2856 10.7635 61.3088C10.7496 61.3088 10.7357 61.3103 10.7218 61.3103L10.7202 61.3134Z" fill="#231815"/>
<path d="M39.1407 61.3134C39.1268 61.3134 39.1129 61.3134 39.0989 61.3119C38.8656 61.2887 38.694 61.0801 38.7172 60.8467L40.2968 44.8328C40.303 44.7756 40.32 44.7199 40.3478 44.6705L43.6183 38.6937C43.7311 38.4881 43.9892 38.4108 44.1963 38.5252C44.4019 38.638 44.4776 38.8961 44.3648 39.1032L41.136 45.0043L39.5657 60.9332C39.5441 61.1527 39.3586 61.3165 39.1422 61.3165L39.1407 61.3134Z" fill="#231815"/>
<path d="M3.62134 54.7049C3.61361 54.7049 3.60588 54.7049 3.59815 54.7049C3.35704 54.6926 3.17157 54.4855 3.18393 54.2443L3.92736 40.2706C3.92736 40.2706 3.92736 40.2567 3.92736 40.2505C4.33695 36.147 7.1963 35.1176 7.44978 35.0341L14.6059 32.3587C14.8331 32.2737 15.085 32.3896 15.17 32.6153C15.255 32.8425 15.1391 33.0944 14.9135 33.1794L7.74808 35.8579C7.74808 35.8579 7.73262 35.8641 7.72489 35.8657C7.62288 35.8981 5.16384 36.7297 4.80063 40.3263L4.05719 54.2892C4.04483 54.5225 3.85163 54.7034 3.61979 54.7034L3.62134 54.7049Z" fill="#231815"/>
<path d="M46.4421 54.7051C46.2102 54.7051 46.017 54.5243 46.0047 54.2909L45.2613 40.328C44.898 36.7314 42.4405 35.8999 42.3354 35.8659C42.3293 35.8643 42.32 35.8612 42.3138 35.8581L35.1484 33.1796C34.9212 33.0946 34.8068 32.8427 34.8919 32.6155C34.9769 32.3883 35.2288 32.2739 35.456 32.3589L42.6121 35.0343C42.8656 35.1178 45.7249 36.1472 46.1345 40.2507C46.1345 40.2569 46.1345 40.2646 46.1345 40.2708L46.8779 54.2445C46.8903 54.4856 46.7048 54.6927 46.4637 54.7051C46.456 54.7051 46.4483 54.7051 46.4405 54.7051H46.4421Z" fill="#231815"/>
</g>
</svg>
