<svg width="28" height="27" viewBox="0 0 28 27" fill="none" xmlns="http://www.w3.org/2000/svg">
<path d="M12.2478 5.76203C11.3116 6.15031 10.4748 6.71114 9.75 7.4316C9.0296 8.15632 8.46439 8.99327 8.08049 9.92941C7.8001 10.6024 8.11935 11.3703 8.79224 11.6507C8.95624 11.7197 9.12884 11.7499 9.29707 11.7499C9.81481 11.7499 10.3022 11.4436 10.5136 10.9346C10.7682 10.3263 11.1392 9.77411 11.6137 9.29523C12.0926 8.82073 12.6404 8.44969 13.253 8.19514C13.926 7.91907 14.2453 7.14688 13.9692 6.47389C13.6887 5.80084 12.9165 5.48596 12.2478 5.76203Z" fill="white"/>
<path d="M10.9319 24.7696H17.1571L17.4634 23.1691H10.6213L10.9319 24.7696Z" fill="white"/>
<path d="M13.9655 27C15.0886 27 15.9991 26.3236 15.9991 25.4893H11.9319C11.9319 26.3236 12.8423 27 13.9655 27Z" fill="white"/>
<path d="M5.17749 19.8109C5.35784 20.0053 5.54573 20.1951 5.73911 20.3781L7.059 18.9324C6.91409 18.7947 6.77297 18.652 6.63639 18.5059L5.17749 19.8109Z" fill="white"/>
<path d="M1.9828 11.1841C1.97727 11.3324 1.97437 11.4811 1.97437 11.6304C1.97437 11.7494 1.97605 11.8689 1.9798 11.9885L3.37604 11.916H3.93545C3.93292 11.8206 3.93129 11.7254 3.93129 11.6304C3.93129 11.5177 3.93297 11.4054 3.93672 11.2938L1.9828 11.1841Z" fill="white"/>
<path d="M7.12582 4.28182L5.81816 2.8252C5.62231 3.0076 5.4331 3.1955 5.25195 3.38719L6.69909 4.70544C6.83768 4.55989 6.98006 4.41835 7.12582 4.28182Z" fill="white"/>
<path d="M14.008 1.95708C14.118 1.95708 14.2276 1.95877 14.3366 1.96214L14.4402 0.00754102C14.2957 0.00253125 14.1496 0 14.0054 0C13.882 0 13.7594 0.00189844 13.6406 0.00548438L13.762 1.95987C13.8441 1.95797 13.9262 1.95708 14.008 1.95708Z" fill="white"/>
<path d="M26.0191 11.2666L24.0643 11.3671C24.0668 11.4609 24.068 11.5546 24.068 11.6477C24.068 11.7671 24.0659 11.8863 24.0618 12.0049L26.0161 12.118C26.0225 11.9619 26.0254 11.8052 26.0254 11.6477C26.0254 11.5222 26.0234 11.396 26.0191 11.2666Z" fill="white"/>
<path d="M20.926 4.33181C21.0719 4.46998 21.213 4.61194 21.3486 4.7567L22.8058 3.44962C22.6247 3.25498 22.436 3.06519 22.2421 2.88257L20.926 4.33181Z" fill="white"/>
<path d="M20.8596 19.0098L22.1626 20.4704C22.3573 20.2905 22.5472 20.1025 22.7309 19.9084L21.2859 18.5881C21.1481 18.7328 21.0053 18.874 20.8596 19.0098Z" fill="white"/>
<path d="M19.4264 6.59042C18.0373 5.20129 16.1176 4.34277 13.9994 4.34277C11.8813 4.34277 9.96155 5.20129 8.57669 6.59042C7.18756 7.97955 6.3291 9.89929 6.3291 12.0174C6.3291 14.2434 7.44211 16.8577 8.83557 18.2124C9.98734 19.334 10.5871 20.1364 10.8976 20.6972H10.0737L10.4187 22.4789H17.6706L18.0115 20.6972H17.1012C17.4118 20.1364 18.0115 19.334 19.1633 18.2124C20.5567 16.8577 21.6697 14.2435 21.6697 12.0174C21.6697 9.89929 20.8112 7.97955 19.4264 6.59042ZM13.288 19.6521C13.2634 19.662 13.238 19.6684 13.2127 19.6715C13.1103 19.6842 13.0085 19.6436 12.9646 19.5652L10.946 15.9732C10.891 15.8755 10.9468 15.7559 11.0706 15.7062C11.1943 15.6564 11.3391 15.6953 11.3941 15.793L13.4126 19.385C13.4676 19.4828 13.4118 19.6024 13.288 19.6521ZM13.2531 8.19518C12.6405 8.44973 12.0926 8.82071 11.6137 9.29527C11.1392 9.77415 10.7682 10.3263 10.5136 10.9346C10.3022 11.4437 9.81484 11.7499 9.2971 11.7499C9.12888 11.7499 8.95633 11.7198 8.79227 11.6507C8.11938 11.3703 7.80013 10.6024 8.08052 9.92945C8.46442 8.99331 9.02963 8.15637 9.75003 7.43164C10.4749 6.71118 11.3117 6.15035 12.2478 5.76207C12.9165 5.486 13.6888 5.80088 13.9692 6.47388C14.2453 7.14692 13.9261 7.91911 13.2531 8.19518ZM17.049 15.8282L14.8165 19.5213C14.7679 19.6018 14.6635 19.6472 14.5617 19.6394C14.5365 19.6375 14.5115 19.6324 14.4874 19.6236C14.3666 19.5797 14.3177 19.4626 14.3785 19.3622L16.6108 15.6691C16.6716 15.5686 16.8189 15.5227 16.9398 15.5667C17.0608 15.6106 17.1097 15.7277 17.049 15.8282Z" fill="white"/>
</svg>
