<svg width="50" height="59" viewBox="0 0 50 59" fill="none" xmlns="http://www.w3.org/2000/svg">
<mask id="mask0_5_1221" style="mask-type:luminance" maskUnits="userSpaceOnUse" x="0" y="0" width="50" height="59">
<path d="M50 33.7295C50 47.5363 38.8068 58.7295 25 58.7295C11.1932 58.7295 0 47.5363 0 33.7295C0 19.9227 11.1932 0 25 0C38.8068 0 50 19.9227 50 33.7295Z" fill="white"/>
</mask>
<g mask="url(#mask0_5_1221)">
<path d="M42.6778 51.4084C52.4409 41.6453 52.4409 25.8162 42.6778 16.053C32.9147 6.28994 17.0856 6.28993 7.32244 16.053C-2.44066 25.8162 -2.44066 41.6453 7.32245 51.4084C17.0856 61.1715 32.9147 61.1715 42.6778 51.4084Z" fill="#DCDDDD"/>
<path d="M46.8084 61.0525C46.8084 61.0433 46.8115 61.0263 46.8115 60.9954L45.8362 40.306C45.8362 40.306 45.6832 36.7651 42.6059 35.4606L34.2721 32.255L34.2675 32.2519L34.2906 32.2256L34.2118 32.2195L31.9243 30.2643L25.0944 30.8732L18.2644 30.2643L15.9769 32.2195L15.8981 32.2256L15.9212 32.2519L15.9166 32.255L7.58276 35.4606C4.50393 36.7666 4.35247 40.306 4.35247 40.306L3.3772 60.9954C3.3772 61.0263 3.3772 61.0448 3.38029 61.0525C3.37565 61.1113 3.3772 61.0989 3.38029 61.0525C3.38647 61.0881 3.40193 60.9227 3.41738 60.745C3.41738 60.8022 3.41429 60.9026 3.40811 61.0603C3.40193 61.1777 3.39266 61.3137 3.38493 61.4699H46.8084C46.7991 61.3137 46.7914 61.1793 46.7852 61.0603C46.7791 60.9026 46.776 60.8022 46.776 60.745C46.7899 60.9227 46.8053 61.0896 46.8131 61.0525C46.8161 61.0989 46.8177 61.1113 46.8131 61.0525H46.8084Z" fill="#65ABAF"/>
<path d="M24.7914 28.8348L20.1793 28.4191L18.915 30.2954L25.0078 54.1069L31.7064 30.3001L30.966 28.8348H24.7914Z" fill="white"/>
<path d="M20.2673 30.4341L20.0525 24.193H30.3817L30.5965 30.2193C30.5965 30.2193 27.799 33.7695 25.2163 35.2765C25.2163 35.2765 22.4188 33.2316 20.2673 30.4341Z" fill="white"/>
<path d="M25.2163 35.7111C25.1267 35.7111 25.037 35.6833 24.9613 35.6276C24.8454 35.5426 22.0896 33.5148 19.9242 30.7003C19.8686 30.6292 19.8376 30.5411 19.8346 30.4514L19.6197 24.2103C19.6151 24.0928 19.6599 23.9785 19.7418 23.895C19.8237 23.81 19.9366 23.7621 20.054 23.7621H30.3832C30.6166 23.7621 30.8083 23.9476 30.816 24.1794L31.0308 30.2041C31.0339 30.3061 31.0015 30.4066 30.9381 30.4885C30.8222 30.6353 28.0587 34.1222 25.4358 35.6524C25.3678 35.6925 25.2921 35.7111 25.2179 35.7111H25.2163ZM20.6954 30.2814C22.4172 32.487 24.5517 34.218 25.2441 34.7544C27.3894 33.4004 29.663 30.6817 30.1576 30.0743L29.9628 24.6276H20.4992L20.6939 30.2799L20.6954 30.2814Z" fill="#231815"/>
<path d="M22.0634 39.5179C21.9536 39.5179 21.8439 39.4793 21.7573 39.3989C21.5734 39.2304 21.5611 38.9445 21.7311 38.7606L24.2087 36.0681C24.3771 35.8842 24.6631 35.8718 24.847 36.0419C25.0309 36.2103 25.0433 36.4963 24.8733 36.6802L22.3957 39.3726C22.306 39.47 22.1855 39.5179 22.0634 39.5179Z" fill="#231815"/>
<path d="M28.4376 39.5181C28.3155 39.5181 28.1934 39.4687 28.1053 39.3729L25.6277 36.6804C25.4592 36.4965 25.47 36.2106 25.654 36.0421C25.8379 35.8736 26.1238 35.8845 26.2923 36.0684L28.7699 38.7608C28.9383 38.9447 28.9275 39.2307 28.7436 39.3991C28.6571 39.4795 28.5473 39.5181 28.4376 39.5181Z" fill="#231815"/>
<path d="M27.4482 54.0572C27.3724 54.0572 27.2967 54.0387 27.2256 53.9985C27.0092 53.8749 26.9319 53.5998 27.0556 53.3834L33.2395 42.4823L31.1128 40.3571C31.0108 40.2551 30.9644 40.1098 30.986 39.9676C31.0077 39.8254 31.0973 39.7018 31.2256 39.6353L34.2936 38.0511L33.5378 33.0233C33.5146 32.7744 33.6986 32.5549 33.9459 32.5318C34.1932 32.507 34.4142 32.6925 34.4374 32.9398L35.221 38.2705C35.238 38.4545 35.1421 38.6291 34.9783 38.7126L32.1901 40.1515L34.1221 42.0835C34.2658 42.2273 34.2952 42.4498 34.1962 42.626L27.8423 53.8254C27.7588 53.9722 27.6058 54.0542 27.4497 54.0542L27.4482 54.0572Z" fill="#231815"/>
<path d="M24.9723 56.3183C24.926 56.3183 24.8796 56.3106 24.8332 56.2967C24.5952 56.221 24.4654 55.9659 24.5411 55.7279L25.0388 54.1839L31.5056 30.2998C31.5705 30.0587 31.8193 29.9165 32.0589 29.9814C32.3 30.0463 32.4422 30.2952 32.3773 30.5347L25.9074 54.4296C25.9074 54.4296 25.9043 54.4435 25.9012 54.4497L25.4005 56.003C25.3386 56.1947 25.1609 56.3168 24.9708 56.3168L24.9723 56.3183Z" fill="#231815"/>
<path d="M22.6816 52.9816C22.5317 52.9816 22.3848 52.9075 22.2998 52.7714L15.9753 42.7529C15.864 42.5767 15.8872 42.3495 16.0309 42.1996L18.1314 40.0126L15.4528 39.062C15.2566 38.9925 15.1329 38.7977 15.1545 38.5906L15.5409 34.7792L15.7712 33.0512C15.7929 32.8024 16.0124 32.62 16.2596 32.6401C16.5085 32.6617 16.6924 32.8812 16.6708 33.13L16.4405 34.8642L16.0896 38.3294L19.0943 39.3959C19.2396 39.4469 19.3477 39.5674 19.3833 39.7173C19.4188 39.8673 19.3756 40.0234 19.2689 40.1347L16.9289 42.5721L23.0649 52.2908C23.1978 52.501 23.1345 52.7807 22.9243 52.9136C22.8501 52.9616 22.7666 52.9832 22.6831 52.9832L22.6816 52.9816Z" fill="#231815"/>
<path d="M24.5765 52.6924C24.3787 52.6924 24.1978 52.5626 24.1422 52.3616L18.0464 30.5378C17.9799 30.2983 18.119 30.0479 18.3601 29.9814C18.5997 29.915 18.8501 30.0541 18.9165 30.2952L25.0124 52.119C25.0788 52.3585 24.9397 52.6089 24.6986 52.6754C24.6584 52.6862 24.6167 52.6924 24.5765 52.6924Z" fill="#231815"/>
<path d="M32.1144 46.3743C31.8764 46.3743 31.677 46.1873 31.6631 45.9462C31.6492 45.6974 31.8408 45.4841 32.0897 45.4717L37.5456 45.1842C37.7944 45.1688 38.0077 45.362 38.0201 45.6108C38.034 45.8596 37.8424 46.0729 37.5935 46.0853L32.1376 46.3728C32.1298 46.3728 32.1221 46.3728 32.1128 46.3728L32.1144 46.3743Z" fill="#231815"/>
<path d="M23.2814 44.1266C23.2628 44.1266 23.2427 44.1266 23.2226 44.122C23.0217 44.0895 22.8842 43.9009 22.9166 43.7L23.575 39.5841L22.9012 38.3523C22.8038 38.173 22.8687 37.9489 23.048 37.8515C23.2273 37.7541 23.4514 37.819 23.5488 37.9983L24.2829 39.3414C24.3216 39.4125 24.337 39.496 24.3231 39.5764L23.6446 43.8159C23.6152 43.9968 23.4591 44.1266 23.2814 44.1266Z" fill="#231815"/>
<path d="M27.1655 44.1266C26.9877 44.1266 26.8301 43.9968 26.8022 43.8159L26.1237 39.5764C26.1114 39.496 26.1237 39.4125 26.1639 39.3414L26.8981 37.9983C26.9954 37.819 27.2211 37.7541 27.3988 37.8515C27.5781 37.9489 27.6431 38.173 27.5457 38.3523L26.8718 39.5841L27.5302 43.7C27.5627 43.9009 27.4251 44.091 27.2242 44.122C27.2041 44.1251 27.1856 44.1266 27.1655 44.1266Z" fill="#231815"/>
<path d="M10.7063 61.3262C10.4899 61.3262 10.3044 61.1624 10.2828 60.9429L8.71247 45.014L5.48372 39.1129C5.3709 38.9074 5.44663 38.6477 5.65219 38.5349C5.8593 38.422 6.11742 38.4978 6.23025 38.7033L9.50072 44.6802C9.52855 44.7312 9.54555 44.7853 9.55018 44.8424L11.1298 60.8564C11.153 61.0897 10.9814 61.2984 10.748 61.3216C10.7341 61.3216 10.7202 61.3231 10.7063 61.3231V61.3262Z" fill="#231815"/>
<path d="M39.1268 61.3263C39.1129 61.3263 39.0989 61.3263 39.085 61.3248C38.8516 61.3016 38.6801 61.0929 38.7033 60.8595L40.2829 44.8456C40.289 44.7884 40.306 44.7328 40.3323 44.6833L43.6028 38.7065C43.7156 38.5009 43.9738 38.4252 44.1809 38.538C44.3864 38.6509 44.4637 38.909 44.3493 39.1161L41.1206 45.0172L39.5503 60.9461C39.5286 61.1656 39.3431 61.3294 39.1268 61.3294V61.3263Z" fill="#231815"/>
<path d="M34.4095 20.504C34.4033 20.4545 33.8299 15.5133 34.2936 13.0449C34.9814 9.37571 32.3616 7.73737 31.969 7.51326C32.0509 6.82084 31.8701 6.25978 31.4327 5.84247C29.9443 4.42671 26.0169 5.14232 25.8485 5.17323C22.6151 5.81929 20.7155 5.98931 20.6908 5.9924C20.6599 5.99703 19.9242 6.11914 19.2009 6.54418C18.2457 7.10523 17.7758 7.93057 17.8392 8.93521C17.7233 9.01249 17.3802 9.26133 16.9968 9.75283C16.1236 10.8718 15.8083 12.3386 16.1282 13.7776C16.3539 14.7853 16.4698 16.3386 16.5734 17.708C16.6769 19.0789 16.7743 20.3742 16.9628 20.946L17.1112 20.9105C17.1004 20.8378 17.0989 20.6678 17.1699 20.6385C17.2859 20.5921 17.8469 20.7065 20.238 24.1207L20.2627 24.1562L30.5177 23.3015H30.5394L34.4172 20.5473L34.4126 20.5024L34.4095 20.504Z" fill="#65ABAF"/>
<path d="M21.184 11.1361C21.1948 11.1299 21.8996 11.1268 21.8996 11.1268C21.8532 11.0742 21.1515 11.082 21.184 11.1361Z" fill="white"/>
<path d="M33.6631 18.0293C33.4808 17.9984 33.2968 18.0262 33.1191 18.1004L32.9506 18.085L32.9537 18.0494L32.7451 18.0695C32.7837 16.1963 32.3339 15.5301 31.9615 15.2983C31.3618 14.9242 31.0032 14.2612 31.0913 13.5579C31.116 13.3585 31.1485 13.2256 31.1485 13.2256C31.4035 12.204 31.1485 11.6939 31.1485 11.6939C30.6662 10.6692 29.9707 10.7975 29.606 10.9598C29.1948 11.1422 28.7574 11.2643 28.3138 11.34C25.3324 11.8516 21.8795 11.1344 21.8795 11.1344C19.2196 10.2751 19.2366 11.7604 19.3463 12.3802C19.3958 12.6584 19.4081 12.9443 19.3664 13.2241C19.32 13.544 19.2242 13.8624 19.1268 14.1298C18.9862 14.51 18.7342 14.8315 18.4282 15.0958C17.6802 15.7449 17.8795 16.7419 17.8795 16.7419L17.7435 16.7295L17.8084 18.1004C17.6307 18.0262 17.4468 17.9984 17.2628 18.0293C16.4746 18.1623 16.0094 19.3029 16.2227 20.5749C16.4375 21.847 17.2505 23.5363 18.0387 23.4049C18.1639 23.3833 18.2783 23.3354 18.3849 23.2674C18.6616 24.4173 18.4004 27.3431 22.7574 29.2658C22.7574 29.2658 25.1562 30.6213 28.1624 29.2658C32.6106 27.2612 32.2597 24.4188 32.5364 23.2674C32.6431 23.3354 32.759 23.3833 32.8826 23.4049C33.6724 23.5378 34.4854 21.847 34.7002 20.5749C34.9151 19.3029 34.4483 18.1638 33.6601 18.0293H33.6631Z" fill="white"/>
<path d="M29.3958 25.2445C29.2196 25.2445 29.0635 25.1209 29.028 24.9416C28.9847 24.7252 28.4947 24.2105 28.0651 23.8659C27.9028 23.736 27.8765 23.4996 28.0063 23.3373C28.1361 23.175 28.3726 23.1487 28.5349 23.2785C28.7946 23.4856 29.6477 24.2074 29.7652 24.7948C29.8054 24.9988 29.674 25.1966 29.47 25.2384C29.4453 25.243 29.4205 25.2461 29.3958 25.2461V25.2445Z" fill="#231815"/>
<path d="M28.0278 11.8469C27.8748 11.8469 27.7388 11.7372 27.711 11.5795C27.6801 11.4049 27.7975 11.238 27.9722 11.2086C31.0062 10.6862 31.507 8.14677 31.5116 8.12049C31.5441 7.94584 31.711 7.82992 31.8856 7.86238C32.0603 7.89484 32.1762 8.06176 32.1438 8.23641C32.1376 8.26578 31.5533 11.2426 28.0819 11.8423C28.0634 11.8454 28.0448 11.8469 28.0263 11.8469H28.0278Z" fill="#231815"/>
<path d="M28.0278 11.9243C27.8346 11.9243 27.6692 11.7852 27.6352 11.5936C27.5981 11.3772 27.7434 11.1716 27.9598 11.1345C30.9319 10.6214 31.4327 8.13297 31.4373 8.10824C31.4559 8.00314 31.5162 7.91195 31.6043 7.85167C31.6908 7.79139 31.7959 7.76975 31.901 7.7883C32.0046 7.80685 32.0958 7.86558 32.156 7.95368C32.2163 8.04178 32.2395 8.14688 32.2194 8.25198C32.2132 8.28289 31.6105 11.3123 28.0942 11.9197C28.071 11.9228 28.0479 11.9259 28.0262 11.9259L28.0278 11.9243ZM31.8268 7.93513C31.7789 7.93513 31.731 7.94904 31.6893 7.97841C31.6352 8.0155 31.5996 8.07114 31.5873 8.13606C31.5826 8.16233 31.0788 10.7528 27.986 11.286C27.8531 11.3092 27.7635 11.4359 27.7867 11.5688C27.8098 11.7002 27.9335 11.7898 28.0695 11.7682C31.4729 11.1809 32.0633 8.25352 32.0679 8.22416C32.0803 8.16079 32.0664 8.09433 32.0293 8.04178C31.9922 7.98768 31.9366 7.95213 31.8717 7.93977C31.8562 7.93668 31.8407 7.93513 31.8268 7.93513Z" fill="#231815"/>
<path d="M23.6444 11.6201C23.4852 11.6201 23.3477 11.5026 23.326 11.3404C23.3029 11.1642 23.4265 11.0034 23.6027 10.9802C25.3863 10.7438 26.6862 10.1008 27.4682 9.06988C28.4651 7.75458 28.2642 6.2538 28.2627 6.23835C28.2379 6.06215 28.36 5.89986 28.5347 5.87513C28.7093 5.8504 28.8732 5.9725 28.8979 6.14716C28.9087 6.2198 29.1375 7.93077 27.9798 9.45782C27.0911 10.6309 25.6475 11.3574 23.6877 11.617C23.6738 11.6186 23.6583 11.6201 23.6444 11.6201Z" fill="#231815"/>
<path d="M23.6445 11.6974C23.4467 11.6974 23.2767 11.5491 23.2504 11.3512C23.221 11.1333 23.3756 10.9339 23.592 10.9045C25.354 10.6712 26.6384 10.0375 27.4065 9.02356C28.3833 7.73453 28.1886 6.26467 28.1855 6.24922C28.1546 6.03129 28.3061 5.83036 28.5224 5.79945C28.7388 5.77008 28.9413 5.92 28.9722 6.13639C28.983 6.21058 29.2149 7.95246 28.0387 9.50424C27.1376 10.6943 25.6754 11.4301 23.6955 11.6928C23.677 11.6943 23.66 11.6959 23.643 11.6959L23.6445 11.6974ZM28.5796 5.94937C28.5688 5.94937 28.5564 5.94937 28.5456 5.95246C28.4807 5.96173 28.4235 5.99574 28.3849 6.04829C28.3462 6.10084 28.3292 6.16575 28.3385 6.22912C28.3401 6.24303 28.5394 7.78399 27.5302 9.11784C26.7357 10.1658 25.4189 10.818 23.6136 11.0576C23.4807 11.0746 23.3864 11.1982 23.4034 11.3327C23.4204 11.4641 23.5441 11.5599 23.6785 11.5429C25.6167 11.2863 27.0433 10.5692 27.9197 9.41305C29.0572 7.91228 28.8331 6.23067 28.8223 6.15957C28.8053 6.03747 28.7002 5.94937 28.5796 5.94937Z" fill="#231815"/>
<path d="M33.507 17.6598C33.2721 17.6212 33.031 17.6505 32.793 17.7433C32.7852 17.7448 32.7791 17.7479 32.7713 17.751C32.7667 17.7525 32.7605 17.7541 32.7559 17.7556C32.7512 17.7572 32.7466 17.7618 32.742 17.7634C32.7281 17.7695 32.7141 17.7773 32.7018 17.785C32.6925 17.7912 32.6848 17.7958 32.677 17.802C32.6662 17.8097 32.6554 17.819 32.6461 17.8283C32.6384 17.836 32.6307 17.8437 32.6229 17.8515C32.6137 17.8607 32.6059 17.8715 32.5982 17.8808C32.592 17.8901 32.5859 17.8994 32.5797 17.9086C32.5735 17.9195 32.5673 17.9303 32.5611 17.9426C32.5565 17.9535 32.5519 17.9643 32.5488 17.9751C32.5441 17.9859 32.541 17.9983 32.5379 18.0107C32.5348 18.023 32.5333 18.0354 32.5302 18.0493C32.5302 18.0555 32.5271 18.0632 32.5271 18.0694L32.3849 19.8004C32.3679 20.006 32.5209 20.1884 32.728 20.2039C32.7389 20.2039 32.7481 20.2039 32.759 20.2039C32.9522 20.2039 33.116 20.0555 33.1314 19.8592L33.252 18.3924C33.2968 18.3893 33.3401 18.3893 33.3818 18.3955C33.8826 18.4805 34.3061 19.3692 34.1144 20.5083C33.8903 21.8375 33.1175 23.0926 32.7296 23.0307C32.66 23.0184 32.592 22.9906 32.5194 22.9457C32.4174 22.8808 32.2906 22.87 32.1778 22.9148C32.0665 22.9596 31.9831 23.057 31.9552 23.1745L31.9583 23.1776C31.9135 23.3661 31.8857 23.5779 31.8532 23.8252C31.6832 25.1235 31.3973 27.2966 27.7945 28.9225C25.0063 30.1791 22.8146 28.989 22.7234 28.938C22.7126 28.9318 22.7018 28.9272 22.691 28.921C19.1407 27.3553 18.8239 25.1297 18.6353 23.8004C18.6013 23.5624 18.5719 23.3584 18.5287 23.1776L18.5318 23.1745C18.5039 23.057 18.4205 22.9596 18.3076 22.9148C18.1964 22.87 18.0681 22.8808 17.9661 22.9457C17.895 22.9906 17.827 23.0184 17.7574 23.0307C17.3679 23.0941 16.5967 21.8375 16.3726 20.5083C16.1809 19.3692 16.6044 18.479 17.1052 18.3955C17.1484 18.3878 17.1917 18.3878 17.2365 18.3924L17.3571 19.8592C17.3726 20.0555 17.5364 20.2039 17.7296 20.2039C17.7404 20.2039 17.7497 20.2039 17.7605 20.2039C17.9661 20.1869 18.1206 20.006 18.1036 19.8004L17.9614 18.074L17.8965 16.7123C17.8872 16.5052 17.7172 16.3414 17.5039 16.3553C17.2968 16.3646 17.1376 16.5408 17.1469 16.7479L17.1886 17.6428C17.1175 17.6428 17.048 17.649 16.9784 17.6598C15.9707 17.8298 15.3787 19.1374 15.6307 20.6366C15.8316 21.8267 16.6956 23.9674 17.878 23.7726C17.8842 23.8159 17.8903 23.8607 17.8981 23.9086C18.0944 25.2919 18.4607 27.8654 22.3741 29.5964C22.5364 29.6845 23.6229 30.2409 25.201 30.2409C26.048 30.2409 27.0356 30.0802 28.0974 29.6026C32.0774 27.8082 32.4097 25.2827 32.5874 23.9272C32.5936 23.8746 32.6013 23.8236 32.6075 23.7757C32.657 23.7834 32.7064 23.7881 32.7559 23.7881C33.8579 23.7881 34.6585 21.7788 34.8517 20.6382C35.1036 19.1389 34.5117 17.8314 33.5039 17.6613L33.507 17.6598Z" fill="#231815"/>
<path d="M25.2041 30.2889C23.6322 30.2889 22.5549 29.7479 22.354 29.6382C18.4204 27.8979 18.0526 25.3074 17.8532 23.9149L17.8409 23.8268C16.6461 23.9597 15.7883 21.8329 15.5874 20.6444C15.3308 19.1189 15.9398 17.7866 16.9738 17.6119C17.0294 17.6026 17.0851 17.5965 17.1422 17.5949L17.1021 16.751C17.0959 16.6382 17.1361 16.53 17.2118 16.4465C17.2875 16.3631 17.3911 16.3136 17.5055 16.309C17.6152 16.3013 17.7249 16.3384 17.8068 16.4125C17.8919 16.4883 17.9429 16.5949 17.9475 16.7108L18.0124 18.0725L18.1546 19.7974C18.1639 19.9102 18.1283 20.02 18.0557 20.105C17.983 20.1915 17.881 20.2441 17.7682 20.2533C17.7558 20.2533 17.745 20.2533 17.7327 20.2533C17.5147 20.2533 17.3293 20.0833 17.3107 19.8654L17.1932 18.4404C17.1654 18.4404 17.1391 18.4404 17.1144 18.445C16.6368 18.5254 16.235 19.3909 16.422 20.5022C16.6461 21.8268 17.3849 22.986 17.7296 22.986C17.7373 22.986 17.745 22.986 17.7528 22.9844C17.8161 22.9736 17.8779 22.9473 17.9429 22.9071C18.0572 22.8345 18.2025 22.8206 18.3277 22.8731C18.4545 22.9241 18.5487 23.0339 18.5796 23.1668C18.5812 23.173 18.5812 23.1807 18.5796 23.1869C18.6214 23.3646 18.6492 23.564 18.6817 23.7943C18.8702 25.1173 19.184 27.326 22.7095 28.8809C22.7218 28.887 22.7342 28.8932 22.7466 28.8994C22.8378 28.9504 25.0062 30.1297 27.7744 28.8824C31.354 27.2688 31.6368 25.1127 31.8053 23.8237C31.8362 23.5826 31.864 23.3739 31.9073 23.1869C31.9073 23.1807 31.9073 23.1745 31.9073 23.1683C31.9398 23.037 32.0325 22.9272 32.1592 22.8747C32.286 22.8237 32.4297 22.836 32.5441 22.9087C32.6106 22.9504 32.6724 22.9767 32.7357 22.9875C32.7435 22.9875 32.7512 22.989 32.7589 22.989C33.1021 22.989 33.8409 21.8283 34.065 20.5037C34.252 19.3925 33.8501 18.5269 33.371 18.4465C33.3478 18.4419 33.3215 18.4419 33.2937 18.4419L33.1762 19.867C33.1577 20.0957 32.9521 20.2704 32.7203 20.2533C32.4869 20.2348 32.3138 20.0292 32.3323 19.7974L32.4745 18.0663C32.4745 18.0663 32.4776 18.0509 32.4776 18.0478C32.4807 18.0277 32.4838 18.0138 32.4869 17.9999C32.49 17.986 32.4946 17.9736 32.4993 17.9612C32.5039 17.9489 32.5085 17.9365 32.5147 17.9241C32.5209 17.9118 32.5271 17.8979 32.5348 17.8855C32.541 17.8747 32.5487 17.8639 32.5565 17.853C32.5642 17.8422 32.5735 17.8299 32.5827 17.819C32.5905 17.8098 32.5997 17.8005 32.609 17.7912C32.6198 17.7804 32.6322 17.7711 32.6446 17.7618C32.6538 17.7557 32.6631 17.7479 32.6739 17.7418C32.6878 17.7325 32.7033 17.7248 32.7187 17.717C32.7249 17.7124 32.7296 17.7108 32.7342 17.7077C32.7342 17.7077 32.745 17.7031 32.7466 17.7031C32.7605 17.6985 32.7682 17.6954 32.7759 17.6938C33.0217 17.598 33.2705 17.5702 33.5116 17.6088C34.5472 17.7835 35.1561 19.1158 34.8996 20.6413C34.7311 21.6397 33.9568 23.8314 32.7558 23.8314C32.7203 23.8314 32.6847 23.8299 32.6492 23.8252L32.6353 23.9288C32.456 25.2951 32.1221 27.8376 28.1175 29.6428C27.1716 30.0694 26.1902 30.2858 25.201 30.2858L25.2041 30.2889ZM17.8826 23.7248C17.8934 23.7248 17.9027 23.7278 17.9104 23.734C17.9212 23.7418 17.9274 23.7526 17.9289 23.7665L17.949 23.9025C18.1438 25.2765 18.5085 27.8329 22.3957 29.5532C22.5951 29.6614 23.6538 30.1931 25.2025 30.1931C26.1778 30.1931 27.1453 29.9798 28.0789 29.5578C32.034 27.7742 32.3633 25.2673 32.541 23.9195L32.5611 23.7665C32.5626 23.7541 32.5704 23.7418 32.5796 23.734C32.5905 23.7263 32.6028 23.7232 32.6167 23.7248C32.6662 23.7325 32.7126 23.7371 32.7574 23.7371C33.8331 23.7371 34.6229 21.7124 34.8053 20.6274C35.0526 19.156 34.4776 17.8716 33.4977 17.7062C33.2736 17.6691 33.0418 17.6954 32.8084 17.7866L32.7883 17.7928L32.7543 17.7526L32.7728 17.7974C32.7728 17.7974 32.7636 17.8036 32.7605 17.8051C32.7481 17.8113 32.7373 17.8175 32.7265 17.8237C32.7187 17.8283 32.711 17.8345 32.7048 17.8391C32.6956 17.8469 32.6863 17.853 32.6786 17.8623C32.6708 17.8685 32.6646 17.8762 32.6585 17.8824C32.6507 17.8901 32.6446 17.8994 32.6368 17.9087C32.6307 17.9164 32.626 17.9257 32.6214 17.9334C32.6152 17.9427 32.6106 17.9535 32.6059 17.9628C32.6013 17.972 32.5982 17.9813 32.5951 17.9906C32.592 17.9999 32.5889 18.0107 32.5858 18.0215C32.5827 18.0323 32.5812 18.0431 32.5796 18.054C32.5796 18.054 32.5781 18.0663 32.5766 18.0663L32.4328 19.802C32.4174 19.9813 32.5518 20.139 32.7311 20.1544C32.7404 20.1544 32.7497 20.1544 32.7589 20.1544C32.9274 20.1544 33.0696 20.0231 33.0835 19.8546L33.2041 18.3878C33.2056 18.3646 33.2242 18.3461 33.2489 18.343C33.303 18.3384 33.3494 18.3399 33.3911 18.3461C33.915 18.4342 34.3602 19.3476 34.1639 20.5146C33.949 21.785 33.1778 23.1498 32.7249 23.0771C32.6492 23.0648 32.5735 23.0339 32.4977 22.986C32.4096 22.9303 32.2983 22.9195 32.201 22.9597C32.1082 22.9968 32.0387 23.0756 32.0109 23.1714C32.0109 23.1776 32.0109 23.1838 32.0109 23.1884C31.966 23.3755 31.9382 23.5872 31.9073 23.8314C31.7357 25.1405 31.4483 27.3306 27.8192 28.9659C25.0078 30.2333 22.7976 29.0308 22.7048 28.9798C22.6956 28.9751 22.6863 28.9705 22.6755 28.9659C19.1021 27.3894 18.7821 25.1482 18.592 23.8082C18.558 23.5702 18.5286 23.3677 18.4869 23.19C18.4869 23.1838 18.4854 23.1776 18.4869 23.1714C18.4591 23.0756 18.3895 22.9983 18.2968 22.9612C18.1994 22.9226 18.0881 22.9319 18 22.9875C17.9243 23.0354 17.8501 23.0663 17.7744 23.0787C17.3123 23.1529 16.5472 21.7897 16.3339 20.5176C16.1376 19.3492 16.5827 18.4373 17.1051 18.3492C17.1484 18.3414 17.1948 18.3399 17.2489 18.3445C17.2721 18.3461 17.2906 18.3646 17.2937 18.3894L17.4143 19.8561C17.4282 20.0323 17.5843 20.1652 17.7667 20.1544C17.946 20.139 18.0789 19.9813 18.065 19.802L17.9228 18.0756L17.8579 16.7124C17.8532 16.6227 17.8146 16.5393 17.7497 16.4805C17.6863 16.4234 17.6044 16.3955 17.5178 16.4017C17.4297 16.4064 17.3493 16.4435 17.2906 16.5084C17.2319 16.5733 17.2025 16.6567 17.2056 16.7433L17.2473 17.6382C17.2473 17.6506 17.2427 17.6645 17.2334 17.6737C17.2242 17.683 17.2118 17.6892 17.1979 17.6892C17.1299 17.6892 17.0619 17.6954 16.9954 17.7062C16.014 17.8716 15.4405 19.1544 15.6878 20.6274C15.8857 21.8005 16.7327 23.9133 17.8795 23.7248C17.8826 23.7248 17.8841 23.7248 17.8872 23.7248H17.8826Z" fill="#231815"/>
<path d="M32.9506 18.391C32.9397 18.391 32.9305 18.391 32.9196 18.3895C32.7512 18.3725 32.6291 18.2226 32.6476 18.0556L32.6507 18.0201C32.6677 17.8516 32.8176 17.7311 32.9846 17.7481C33.1515 17.7651 33.2751 17.915 33.2566 18.0819L33.2535 18.1175C33.238 18.2751 33.1051 18.3926 32.9506 18.3926V18.391Z" fill="#251E1C"/>
<path d="M20.7713 16.7217C20.6183 16.7217 20.4715 16.6398 20.3942 16.4945C20.2844 16.2874 20.3633 16.0293 20.5719 15.9195C21.711 15.3168 22.7775 15.8361 22.8223 15.8593C23.0325 15.9644 23.1175 16.2194 23.0124 16.4311C22.9073 16.6413 22.6538 16.7263 22.4436 16.6228C22.4096 16.6073 21.711 16.2812 20.9707 16.6738C20.9073 16.7078 20.8393 16.7232 20.7713 16.7232V16.7217Z" fill="#231815"/>
<path d="M27.8904 18.3539C27.8935 18.6909 28.1686 18.9614 28.5055 18.9583C28.8425 18.9552 29.113 18.6801 29.1099 18.3431C29.1068 18.0062 28.8317 17.7357 28.4963 17.7388C28.1593 17.7419 27.8888 18.017 27.8904 18.3524V18.3539Z" fill="#231815"/>
<path d="M21.3818 18.4033C21.3849 18.7402 21.66 19.0107 21.997 19.0076C22.3339 19.0045 22.6044 18.7294 22.6013 18.3924C22.5982 18.0555 22.3231 17.785 21.9877 17.7881C21.6508 17.7912 21.3803 18.0663 21.3834 18.4017L21.3818 18.4033Z" fill="#231815"/>
<path d="M25.5874 23.7695C25.793 23.7679 25.9568 23.601 25.9552 23.3955C25.9537 23.1899 25.7868 23.0261 25.5812 23.0276L24.9042 23.0322C24.6987 23.0338 24.5348 23.2007 24.5364 23.4063C24.5379 23.6118 24.7049 23.7757 24.9104 23.7741L25.5874 23.7695Z" fill="#231815"/>
<path d="M24.7466 23.796C24.6972 23.7759 24.6508 23.745 24.6106 23.7063C24.5302 23.6275 24.4854 23.5209 24.4839 23.408C24.4839 23.2952 24.5256 23.1885 24.606 23.1082C24.6848 23.0278 24.7915 22.983 24.9043 22.9814L25.5813 22.9768C25.6941 22.9768 25.8007 23.0185 25.8811 23.0989C25.9615 23.1777 26.0063 23.2844 26.0078 23.3972C26.0078 23.51 25.9661 23.6167 25.8857 23.697C25.8069 23.7774 25.7003 23.8222 25.5874 23.8238L24.9105 23.8284C24.8533 23.8284 24.7976 23.8176 24.7466 23.7975V23.796ZM25.7049 23.1035C25.6663 23.0881 25.6245 23.0804 25.5813 23.0804L24.9043 23.085C24.8193 23.085 24.7389 23.119 24.6786 23.1808C24.6183 23.2411 24.5859 23.3215 24.5874 23.4065C24.5874 23.4915 24.6214 23.5719 24.6833 23.6321C24.7435 23.6924 24.8239 23.7249 24.9089 23.7233L25.5859 23.7187C25.6709 23.7187 25.7513 23.6847 25.8115 23.6229C25.8718 23.5626 25.9043 23.4822 25.9027 23.3972C25.9027 23.3122 25.8687 23.2318 25.8069 23.1716C25.7775 23.1422 25.742 23.119 25.7034 23.1035H25.7049Z" fill="#231815"/>
<path d="M25.2535 26.0107C23.9521 26.0107 22.9815 25.5625 22.9196 25.5331C22.7079 25.4326 22.6167 25.1791 22.7171 24.9659C22.8176 24.7541 23.0711 24.6629 23.2828 24.7634C23.3091 24.7757 25.2767 25.6706 27.1963 24.7108C27.4065 24.6057 27.6631 24.6907 27.7682 24.9009C27.8733 25.1111 27.7882 25.3677 27.578 25.4728C26.7666 25.8778 25.9614 26.0107 25.2535 26.0107Z" fill="#231815"/>
</g>
</svg>
