<svg width="52" height="60" viewBox="0 0 52 60" fill="none" xmlns="http://www.w3.org/2000/svg">
<mask id="mask0_5_4273" style="mask-type:luminance" maskUnits="userSpaceOnUse" x="0" y="0" width="52" height="60">
<path d="M51.0816 34.4592C51.0816 48.5647 39.6463 60 25.5408 60C11.4353 60 0 48.5647 0 34.4592C0 20.3537 11.4353 0 25.5408 0C39.6463 0 51.0816 20.3537 51.0816 34.4592Z" fill="white"/>
</mask>
<g mask="url(#mask0_5_4273)">
<path d="M43.6007 52.5188C53.575 42.5445 53.575 26.373 43.6007 16.3987C33.6264 6.42435 17.4548 6.42435 7.48049 16.3987C-2.49381 26.373 -2.49381 42.5445 7.48049 52.5188C17.4548 62.4931 33.6264 62.4931 43.6007 52.5188Z" fill="#DCDDDD"/>
<path d="M47.8354 62.3605C47.8354 62.3511 47.8385 62.3337 47.8385 62.3021L46.8421 41.1652C46.8421 41.1652 46.6858 37.5477 43.542 36.215L35.0278 32.94L35.0231 32.9369L35.0468 32.91L34.9663 32.9037L32.6293 30.9062L25.6516 31.5284L18.6738 30.9062L16.3369 32.9037L16.2563 32.91L16.28 32.9369L16.2753 32.94L7.76114 36.215C4.61571 37.5492 4.46097 41.1652 4.46097 41.1652L3.4646 62.3021C3.4646 62.3337 3.4646 62.3526 3.46776 62.3605C3.46302 62.4205 3.4646 62.4079 3.46776 62.3605C3.47407 62.3969 3.48986 62.2279 3.50565 62.0463C3.50565 62.1047 3.5025 62.2074 3.49618 62.3684C3.48986 62.4884 3.48039 62.6274 3.47249 62.7869H47.8306C47.8211 62.6274 47.8132 62.49 47.8069 62.3684C47.8006 62.2074 47.7975 62.1047 47.7975 62.0463C47.8117 62.2279 47.8275 62.3984 47.8354 62.3605C47.8401 62.4205 47.8385 62.4063 47.8354 62.3605Z" fill="#D4F1F1"/>
<path d="M25.3419 29.4472L20.63 29.0225L19.3384 30.9394L25.5613 55.2659L32.4064 30.9426L31.6501 29.4472H25.3419Z" fill="white"/>
<path d="M20.7183 31.0817L20.4988 24.7056H31.0514L31.2709 30.8622C31.2709 30.8622 28.4129 34.4892 25.7743 36.0288C25.7743 36.0288 22.9163 33.9397 20.7183 31.0817Z" fill="white"/>
<path d="M25.7764 36.4709C25.6848 36.4709 25.5932 36.4425 25.5158 36.3856C25.3974 36.2988 22.582 34.2271 20.3698 31.3517C20.3129 31.2791 20.2813 31.1891 20.2782 31.0975L20.0587 24.7213C20.0539 24.6013 20.0997 24.4845 20.1834 24.3992C20.2671 24.3124 20.3824 24.2634 20.5024 24.2634H31.0551C31.2935 24.2634 31.4893 24.4529 31.4972 24.6898L31.7167 30.8448C31.7198 30.949 31.6867 31.0517 31.6219 31.1354C31.5035 31.2854 28.6802 34.8477 26.0006 36.4109C25.9311 36.452 25.8537 36.4709 25.7779 36.4709H25.7764ZM21.1577 30.9238C22.9167 33.1771 25.0974 34.9456 25.8048 35.4935C27.9965 34.1103 30.3192 31.3327 30.8245 30.7122L30.6256 25.1477H20.9572L21.1561 30.9222L21.1577 30.9238Z" fill="#231815"/>
<path d="M32.0103 6.64297C30.9113 5.87872 29.4633 5.27711 28.148 5.07184C25.361 4.63603 23.2783 5.88662 22.8504 6.30664C22.0451 6.65403 22.0466 6.8293 21.3708 7.08352C21.3708 7.08352 18.6312 7.72935 16.9574 10.6474C15.9421 12.4175 16.0811 14.5271 16.52 16.5277L17.0364 18.8773C17.1769 18.7636 17.3348 18.6878 17.5101 18.6594C17.6964 18.6294 17.8859 18.6578 18.0675 18.7305L18.3264 16.7472C18.8933 13.5575 18.8649 12.8186 21.1829 11.5838C21.1829 11.5838 22.4935 11.009 23.4867 10.1247C27.3364 8.35622 30.1218 11.009 32.0545 14.0392C32.0545 14.0392 33.2072 15.3261 32.8551 15.4713C32.964 15.7208 33.2277 16.6288 33.4362 17.4451C33.5751 17.9883 33.6888 18.4904 33.7141 18.7305C33.8957 18.6562 34.0836 18.6294 34.2699 18.6594C34.5889 18.7115 34.8541 18.9199 35.0468 19.231L35.9295 15.4571C36.3716 11.9201 34.0836 8.08463 32.0119 6.64455L32.0103 6.64297Z" fill="#229C9A"/>
<path d="M23.4834 10.1231C27.3331 8.35456 30.1185 11.0073 32.0512 14.0375C32.0512 14.0375 33.2039 15.3244 32.8518 15.4697C32.9607 15.7192 33.2244 16.6271 33.4329 17.4435C33.5718 17.9866 33.6855 18.4888 33.7108 18.7288C33.8924 18.6546 34.0803 18.6277 34.2666 18.6577C35.0719 18.7904 35.5488 19.921 35.3293 21.1826C35.1098 22.4442 34.2792 24.1212 33.4723 23.9901C33.346 23.9696 33.2276 23.9206 33.1186 23.8543C32.836 24.996 31.827 27.9393 28.65 29.8041C25.7256 31.4337 23.1265 29.8041 23.1265 29.8041C19.9495 27.9393 18.9389 24.9944 18.6579 23.8543C18.5489 23.9222 18.4305 23.9696 18.3042 23.9901C17.4973 24.1212 16.6667 22.4458 16.4472 21.1826C16.2277 19.921 16.7046 18.7904 17.5099 18.6577C17.6962 18.6277 17.8857 18.6562 18.0673 18.7288L18.3263 16.7455C18.8931 13.5559 18.8647 12.8169 21.1827 11.5821C21.1827 11.5821 22.4933 11.0073 23.4865 10.1231H23.4834Z" fill="white"/>
<path d="M34.3294 18.2912C34.2331 18.2754 34.1352 18.2707 34.0373 18.277C33.8889 17.2917 33.5826 16.1958 33.2036 15.3258C33.1215 15.1363 32.8973 15.0479 32.7015 15.1284C32.5072 15.2089 32.4156 15.4268 32.4978 15.6148C32.8988 16.5369 33.2131 17.7291 33.3252 18.7365L33.1831 20.4166C33.1657 20.6219 33.322 20.8003 33.5336 20.8177C33.5447 20.8177 33.5541 20.8177 33.5652 20.8177C33.7626 20.8177 33.9299 20.6708 33.9457 20.4766L34.0689 19.0207C34.1147 19.0176 34.1589 19.0176 34.2015 19.0239C34.7131 19.1076 35.1474 19.9902 34.95 21.1208C34.721 22.4393 33.9331 23.6868 33.5352 23.6236C33.4641 23.611 33.3946 23.5841 33.3204 23.5399C33.2162 23.4767 33.0867 23.4641 32.9715 23.5099C32.8578 23.5557 32.7725 23.6504 32.7441 23.7673C32.4662 24.8916 31.4903 27.7007 28.457 29.4818C25.7806 30.9724 23.4294 29.5529 23.322 29.4865C20.2808 27.7007 19.305 24.8931 19.027 23.7673C18.9986 23.6504 18.9134 23.5541 18.7981 23.5099C18.6844 23.4641 18.5533 23.4767 18.4491 23.5399C18.3765 23.5841 18.3054 23.6125 18.236 23.6236C17.8365 23.6899 17.0501 22.4393 16.8211 21.1208C16.6253 19.9902 17.058 19.1076 17.5696 19.0239C17.6138 19.0176 17.658 19.016 17.7038 19.0207L17.827 20.4766C17.8428 20.6708 18.0102 20.8177 18.2075 20.8177C18.2186 20.8177 18.2281 20.8177 18.2391 20.8177C18.4491 20.8003 18.607 20.6219 18.5897 20.4166L18.4444 18.7081L18.3781 17.3533C18.3686 17.148 18.1902 16.9901 17.977 16.9996C17.7654 17.009 17.6028 17.1827 17.6122 17.388L17.6565 18.2754C17.5838 18.2754 17.5128 18.2817 17.4417 18.2928C16.4122 18.4617 15.8074 19.7581 16.0648 21.2456C16.2701 22.4283 17.1527 24.5536 18.3639 24.3578C18.3733 24.3563 18.3844 24.3547 18.3939 24.3531C18.8123 25.7474 19.9603 28.3844 22.9146 30.1181C22.9904 30.1655 24.2015 30.9061 25.9069 30.9061C26.7832 30.9061 27.7922 30.7103 28.8439 30.1245C31.8077 28.3844 32.9573 25.7474 33.3741 24.3531C33.3852 24.3547 33.3946 24.3563 33.4057 24.3594C33.4578 24.3673 33.5099 24.3721 33.562 24.3721C34.6879 24.3721 35.5074 22.3777 35.7032 21.2472C35.9606 19.7597 35.3558 18.4633 34.3263 18.2944L34.3294 18.2912Z" fill="#231815"/>
<path d="M25.9101 30.9725C24.1716 30.9725 22.9336 30.2067 22.8815 30.1735C19.954 28.4555 18.7871 25.8612 18.3481 24.4274C17.107 24.5979 16.2069 22.452 16.0001 21.2551C15.8422 20.3456 15.9938 19.4835 16.4138 18.8913C16.6791 18.5187 17.0312 18.2881 17.4338 18.2218C17.4844 18.2139 17.5365 18.2076 17.587 18.206L17.5475 17.3897C17.5412 17.2744 17.5823 17.1623 17.6612 17.0754C17.7433 16.9854 17.8554 16.9333 17.9786 16.927C18.2281 16.9112 18.4397 17.1039 18.4523 17.3455L18.5186 18.7003L18.6639 20.4072C18.6734 20.5225 18.6371 20.6346 18.5613 20.7246C18.4823 20.8162 18.3718 20.873 18.2502 20.8825C18.2376 20.8825 18.2249 20.8825 18.2123 20.8825C17.9786 20.8825 17.7812 20.7056 17.7623 20.4783L17.6439 19.084C17.6218 19.084 17.6028 19.0856 17.5839 19.0887C17.4323 19.114 17.287 19.2198 17.1623 19.3935C16.8812 19.7882 16.7785 20.4435 16.8938 21.1051C17.1212 22.4157 17.906 23.6032 18.2297 23.551C18.2913 23.54 18.3528 23.5163 18.4176 23.4768C18.5407 23.401 18.6939 23.3884 18.8281 23.4405C18.9623 23.4942 19.0634 23.6079 19.0981 23.7453C19.3745 24.8616 20.3424 27.6486 23.3615 29.4203C23.461 29.4819 25.7885 30.8856 28.4286 29.4156C31.4383 27.6486 32.4062 24.8616 32.6825 23.7453C32.7157 23.6079 32.8168 23.4926 32.9526 23.4405C33.0868 23.3868 33.2399 23.401 33.3631 23.4753C33.4278 23.5147 33.491 23.54 33.5526 23.5495C33.881 23.6047 34.6595 22.411 34.8869 21.1036C35.0021 20.4435 34.8979 19.7866 34.6184 19.3935C34.4937 19.2182 34.3484 19.1124 34.1953 19.0871C34.1763 19.084 34.1574 19.0824 34.1368 19.0824L34.0184 20.4767C33.9979 20.7151 33.78 20.9014 33.5305 20.8793C33.4089 20.8699 33.2984 20.813 33.2194 20.7214C33.1436 20.6314 33.1073 20.5193 33.1168 20.404L33.2589 18.724C33.1484 17.7386 32.8341 16.5496 32.4378 15.6369C32.392 15.5296 32.3904 15.4111 32.4346 15.3022C32.4804 15.1917 32.5673 15.1048 32.6794 15.0574C32.9083 14.9627 33.1736 15.0685 33.2699 15.2927C33.6379 16.1391 33.9458 17.2207 34.0989 18.1997C34.181 18.1966 34.2632 18.2045 34.3437 18.2171C34.7463 18.2834 35.0985 18.5155 35.3637 18.8882C35.7853 19.4803 35.9353 20.3409 35.7774 21.2504C35.6038 22.2468 34.8063 24.4321 33.5684 24.4321C33.521 24.4306 33.4752 24.429 33.4294 24.4227C32.9889 25.8564 31.822 28.4524 28.885 30.1751C27.9423 30.7009 26.9428 30.9662 25.9132 30.9662L25.9101 30.9725ZM18.3955 24.2821C18.4255 24.2821 18.4539 24.3011 18.4634 24.3311C18.8834 25.7317 20.025 28.3371 22.9541 30.0567C23.0062 30.0898 24.2126 30.8351 25.9117 30.8351C26.9175 30.8351 27.8949 30.5746 28.8155 30.0614C31.7509 28.3387 32.8941 25.7317 33.3142 24.3311C33.3236 24.2964 33.3584 24.2758 33.3947 24.2837L33.4231 24.2885C33.4721 24.2964 33.5257 24.2995 33.5684 24.2995C34.6563 24.2995 35.4553 22.302 35.6416 21.233C35.7917 20.3725 35.6448 19.5277 35.2516 18.9734C35.0085 18.6324 34.6879 18.4192 34.3216 18.3592C34.23 18.345 34.1368 18.3402 34.0452 18.345C34.0089 18.3497 33.9773 18.3213 33.9726 18.2866C33.8242 17.3028 33.5147 16.207 33.1436 15.3527C33.0773 15.198 32.8926 15.1253 32.7315 15.1917C32.6525 15.2232 32.5925 15.2832 32.5625 15.359C32.5325 15.4333 32.5341 15.5138 32.5657 15.5864C32.9668 16.5117 33.2857 17.715 33.3978 18.7271L33.2557 20.4214C33.2494 20.5004 33.2731 20.5762 33.3252 20.6377C33.3789 20.7025 33.4563 20.7404 33.5415 20.7483C33.551 20.7483 33.5589 20.7483 33.5684 20.7483C33.731 20.7483 33.8668 20.6267 33.881 20.4704L34.0042 19.0145C34.0074 18.9813 34.0342 18.9545 34.0674 18.9513C34.1226 18.9466 34.1731 18.9482 34.2174 18.9561C34.4068 18.9877 34.5837 19.1124 34.7305 19.3177C35.0369 19.7472 35.1458 20.4261 35.0227 21.132C34.8016 22.4031 34.0089 23.7705 33.5289 23.6916C33.4484 23.6789 33.3694 23.6474 33.2889 23.5984C33.2036 23.5463 33.0962 23.5368 33.0015 23.5747C32.9083 23.6111 32.8389 23.69 32.8152 23.7847C32.5341 24.9185 31.552 27.7481 28.495 29.5419C25.7853 31.053 23.3884 29.6082 23.2889 29.545C20.2256 27.7465 19.2434 24.9169 18.9639 23.7832C18.9402 23.6884 18.8708 23.6095 18.7776 23.5732C18.6829 23.5353 18.5755 23.5447 18.4902 23.5984C18.4097 23.6474 18.3323 23.6789 18.2518 23.6916C17.7718 23.7705 16.9791 22.4078 16.7564 21.1336C16.6333 20.4277 16.7438 19.7487 17.0486 19.3192C17.1954 19.114 17.3723 18.9892 17.5617 18.9576C17.6075 18.9513 17.6565 18.9498 17.7133 18.9529C17.7465 18.9561 17.7733 18.9829 17.7765 19.0161L17.8997 20.4719C17.9139 20.6362 18.0655 20.7641 18.2376 20.7483C18.3244 20.742 18.4018 20.7025 18.4555 20.6377C18.5076 20.5762 18.5313 20.5004 18.525 20.4214L18.3797 18.7129L18.3134 17.3549C18.3055 17.186 18.1586 17.0597 17.9849 17.0675C17.8997 17.0723 17.8207 17.1086 17.7639 17.1702C17.7102 17.2286 17.6833 17.3044 17.6865 17.3834L17.7307 18.2708C17.7307 18.2897 17.7244 18.3087 17.7118 18.3213C17.6991 18.3355 17.6802 18.3434 17.6612 18.3434C17.5933 18.3434 17.5239 18.3481 17.4575 18.3592C17.0928 18.4192 16.7707 18.6308 16.5291 18.9719C16.1359 19.5261 15.989 20.3709 16.139 21.2315C16.3412 22.3905 17.1986 24.4748 18.3576 24.2869L18.3844 24.2821C18.3844 24.2821 18.3939 24.2821 18.3971 24.2821H18.3955Z" fill="#231815"/>
<path d="M23.483 10.5147C23.442 10.5147 23.3993 10.5083 23.3583 10.4941C23.1577 10.4246 23.0504 10.2004 23.1183 9.99673C23.5825 8.62139 24.3673 7.66292 25.4521 7.15132C27.3627 6.24811 29.4928 7.07079 29.5812 7.1071C29.7802 7.18605 29.8781 7.41344 29.8007 7.61397C29.7234 7.81609 29.5007 7.91557 29.3018 7.83819C29.2828 7.8303 27.3801 7.10237 25.771 7.86504C24.8852 8.28506 24.2378 9.08721 23.8462 10.2525C23.7909 10.4152 23.6409 10.5178 23.4814 10.5178L23.483 10.5147Z" fill="#231815"/>
<path d="M23.4849 10.5841C23.4344 10.5841 23.3854 10.5762 23.3365 10.5589C23.0996 10.4767 22.9733 10.2146 23.0538 9.97303C23.5244 8.57875 24.3218 7.60765 25.4239 7.08657C27.363 6.17073 29.5184 7.00446 29.6084 7.04077C29.8421 7.13236 29.9573 7.40079 29.8673 7.63765C29.8231 7.75292 29.7363 7.8445 29.6242 7.89345C29.5136 7.9424 29.3905 7.94398 29.2784 7.89977C29.2594 7.89187 27.3819 7.17657 25.8029 7.92503C24.936 8.33716 24.2997 9.12667 23.9144 10.2715C23.8512 10.4578 23.6791 10.5841 23.4849 10.5841ZM27.4546 6.79602C26.8356 6.79602 26.1471 6.89866 25.4839 7.21131C24.4165 7.71502 23.6428 8.65928 23.1849 10.0172C23.128 10.1862 23.2165 10.3694 23.3823 10.4278C23.5449 10.4846 23.7281 10.3915 23.7833 10.2273C24.1812 9.04456 24.8413 8.2282 25.7445 7.80029C27.3819 7.02498 29.3115 7.76397 29.3305 7.77187C29.4078 7.80345 29.4931 7.80029 29.5689 7.76713C29.6478 7.73239 29.7079 7.66923 29.7379 7.5887C29.801 7.4229 29.7205 7.23499 29.5578 7.17025C29.501 7.14815 28.5962 6.7976 27.453 6.7976L27.4546 6.79602Z" fill="#231815"/>
<path d="M27.4578 10.6411C27.3536 10.6411 27.2493 10.5985 27.1735 10.5148C27.0299 10.3553 27.0409 10.1074 27.1972 9.96058C28.841 8.42892 31.6912 9.45845 31.8112 9.50266C32.0117 9.57687 32.1143 9.8011 32.0417 10.0048C31.9691 10.2085 31.748 10.3127 31.5475 10.2401C31.5222 10.2306 29.0163 9.32897 27.7183 10.5401C27.6441 10.6096 27.5509 10.6427 27.4578 10.6427V10.6411Z" fill="#231815"/>
<path d="M27.4579 10.7106C27.33 10.7106 27.2084 10.6553 27.1216 10.5606C26.9526 10.3727 26.9652 10.0806 27.15 9.91002C28.8222 8.35152 31.7134 9.3921 31.835 9.43789C32.0702 9.52474 32.1918 9.79001 32.1066 10.0284C32.0655 10.1453 31.9802 10.2385 31.8697 10.2906C31.7608 10.3427 31.6376 10.3474 31.5239 10.3048C31.4986 10.2953 29.0243 9.41578 27.7658 10.589C27.6821 10.668 27.5732 10.7106 27.4579 10.7106ZM29.6306 9.19156C28.8159 9.19156 27.9221 9.37789 27.2431 10.0111C27.1137 10.1311 27.1058 10.3364 27.2242 10.4674C27.3379 10.5922 27.5463 10.6032 27.6695 10.4879C28.9911 9.2563 31.5444 10.1642 31.5697 10.1737C31.6486 10.2021 31.7323 10.199 31.8081 10.1642C31.8855 10.1279 31.9439 10.0632 31.9739 9.98108C32.0339 9.8137 31.9487 9.62737 31.7844 9.56737C31.7165 9.54211 30.7454 9.19314 29.6291 9.19314L29.6306 9.19156Z" fill="#231815"/>
<path d="M26.9238 40.8386L26.9396 40.3602L28.1365 38.7654L27.0359 37.4453H24.3958L23.2952 38.7654L24.4921 40.3602L24.5079 40.8386L23.4057 46.171L24.7558 52.1856L25.1221 53.3588C25.1284 53.542 25.2311 54.8983 25.4158 54.8983L25.5627 55.2647L26.0758 55.0452L26.7359 53.3588L26.6443 54.2241L28.0275 46.1695L26.9254 40.8371L26.9238 40.8386Z" fill="#229C9A"/>
<path d="M22.5548 40.3601C22.4427 40.3601 22.3306 40.3206 22.2422 40.2385C22.0543 40.0664 22.0417 39.7743 22.2154 39.5864L24.7465 36.8357C24.9187 36.6478 25.2108 36.6352 25.3987 36.8089C25.5866 36.981 25.5992 37.2731 25.4255 37.461L22.8943 40.2117C22.8028 40.3112 22.6796 40.3601 22.5548 40.3601Z" fill="#231815"/>
<path d="M29.0651 40.3602C28.9404 40.3602 28.8157 40.3097 28.7257 40.2118L26.1945 37.4611C26.0224 37.2732 26.0334 36.9811 26.2213 36.809C26.4092 36.6369 26.7013 36.6479 26.8735 36.8358L29.4046 39.5865C29.5768 39.7744 29.5657 40.0665 29.3778 40.2386C29.2894 40.3207 29.1773 40.3602 29.0651 40.3602Z" fill="#231815"/>
<path d="M28.0561 55.2141C27.9787 55.2141 27.9013 55.1952 27.8287 55.1541C27.6076 55.0278 27.5287 54.7467 27.655 54.5257L33.9727 43.3888L31.8 41.2176C31.6958 41.1134 31.6484 40.965 31.6705 40.8197C31.6926 40.6744 31.7842 40.5481 31.9152 40.4802L35.0496 38.8617L34.2775 33.7251C34.2538 33.4709 34.4417 33.2466 34.6943 33.223C34.947 33.1977 35.1728 33.3872 35.1965 33.6398L35.997 39.0859C36.0144 39.2738 35.9165 39.4522 35.7491 39.5375L32.9006 41.0076L34.8743 42.9814C35.0212 43.1282 35.0512 43.3556 34.9501 43.5356L28.4587 54.9773C28.3735 55.1273 28.2171 55.211 28.0577 55.211L28.0561 55.2141Z" fill="#231815"/>
<path d="M25.5249 57.524C25.4775 57.524 25.4301 57.5161 25.3827 57.5019C25.1396 57.4246 25.0069 57.164 25.0843 56.9209L25.5927 55.3434L32.1994 30.9426C32.2657 30.6963 32.52 30.551 32.7647 30.6174C33.011 30.6837 33.1563 30.9379 33.09 31.1827L26.4802 55.5945C26.4802 55.5945 26.477 55.6087 26.4738 55.615L25.9622 57.2019C25.8991 57.3977 25.7175 57.5225 25.5233 57.5225L25.5249 57.524Z" fill="#231815"/>
<path d="M23.1851 54.1164C23.0319 54.1164 22.8819 54.0406 22.795 53.9017L16.3336 43.6664C16.22 43.4864 16.2436 43.2543 16.3905 43.1011L18.5364 40.8668L15.7999 39.8957C15.5994 39.8246 15.4731 39.6257 15.4952 39.4141L15.8899 35.5202L16.1252 33.7548C16.1473 33.5006 16.3715 33.3143 16.6242 33.3348C16.8784 33.3569 17.0663 33.5811 17.0442 33.8353L16.8089 35.607L16.4505 39.1472L19.5201 40.2367C19.6686 40.2888 19.7791 40.412 19.8154 40.5652C19.8517 40.7183 19.8075 40.8778 19.6986 40.9915L17.3079 43.4816L23.5767 53.4106C23.7125 53.6253 23.6477 53.9111 23.433 54.0469C23.3572 54.0959 23.2719 54.118 23.1866 54.118L23.1851 54.1164Z" fill="#231815"/>
<path d="M25.1224 53.8198C24.9203 53.8198 24.7356 53.6856 24.6787 53.4819L18.451 31.186C18.3831 30.9412 18.5252 30.6854 18.7716 30.6175C19.0163 30.5496 19.2721 30.6917 19.34 30.9381L25.5677 53.234C25.6356 53.4787 25.4935 53.7345 25.2472 53.8024C25.2061 53.8135 25.1635 53.8198 25.1224 53.8198Z" fill="#231815"/>
<path d="M32.8231 47.3662C32.58 47.3662 32.3763 47.1751 32.3621 46.9288C32.3478 46.6745 32.5436 46.4566 32.7979 46.444L38.3718 46.1503C38.6261 46.1345 38.844 46.3319 38.8566 46.5861C38.8708 46.8403 38.675 47.0582 38.4208 47.0709L32.8468 47.3646C32.8389 47.3646 32.831 47.3646 32.8216 47.3646L32.8231 47.3662Z" fill="#231815"/>
<path d="M28.6184 18.7386C28.6216 19.0828 28.9026 19.3591 29.2469 19.356C29.5911 19.3528 29.8674 19.0718 29.8643 18.7275C29.8611 18.3833 29.58 18.107 29.2374 18.1101C28.8932 18.1133 28.6168 18.3944 28.6184 18.737V18.7386Z" fill="#231815"/>
<path d="M21.9692 18.7906C21.9724 19.1348 22.2535 19.4112 22.5977 19.408C22.9419 19.4048 23.2183 19.1238 23.2151 18.7795C23.2119 18.4353 22.9309 18.159 22.5882 18.1621C22.244 18.1653 21.9677 18.4464 21.9708 18.789L21.9692 18.7906Z" fill="#231815"/>
<path d="M26.2654 24.2728C26.4754 24.2713 26.6428 24.1007 26.6412 23.8907C26.6396 23.6807 26.4691 23.5133 26.2591 23.5149L25.5675 23.5196C25.3575 23.5212 25.1901 23.6918 25.1917 23.9018C25.1932 24.1118 25.3638 24.2792 25.5738 24.2776L26.2654 24.2728Z" fill="#231815"/>
<path d="M25.4069 24.2998C25.3563 24.2792 25.309 24.2477 25.2679 24.2082C25.1858 24.1277 25.14 24.0187 25.1384 23.9034C25.1384 23.7882 25.1811 23.6792 25.2632 23.5971C25.3437 23.515 25.4527 23.4692 25.5679 23.4676L26.2595 23.4629C26.3748 23.4629 26.4838 23.5055 26.5659 23.5876C26.648 23.6682 26.6938 23.7771 26.6954 23.8924C26.6954 24.0077 26.6527 24.1166 26.5706 24.1987C26.4901 24.2808 26.3811 24.3266 26.2659 24.3282L25.5742 24.3329C25.5158 24.3329 25.459 24.3219 25.4069 24.3014V24.2998ZM26.3859 23.5924C26.3464 23.5766 26.3038 23.5687 26.2595 23.5687L25.5679 23.5734C25.4811 23.5734 25.399 23.6082 25.3374 23.6713C25.2758 23.7329 25.2426 23.815 25.2442 23.9019C25.2442 23.9887 25.279 24.0708 25.3421 24.1324C25.4037 24.194 25.4858 24.2271 25.5727 24.2256L26.2643 24.2208C26.3511 24.2208 26.4332 24.1861 26.4948 24.1229C26.5564 24.0613 26.5896 23.9792 26.588 23.8924C26.588 23.8055 26.5532 23.7234 26.4901 23.6619C26.4601 23.6318 26.4238 23.6082 26.3843 23.5924H26.3859Z" fill="#231815"/>
<path d="M21.437 17.0711C21.2807 17.0711 21.1307 16.9874 21.0517 16.839C20.9396 16.6274 21.0202 16.3637 21.2333 16.2516C22.3971 15.6358 23.4866 16.1664 23.5324 16.19C23.7471 16.2974 23.834 16.558 23.7266 16.7743C23.6192 16.989 23.3603 17.0759 23.1455 16.9701C23.1108 16.9527 22.3971 16.6211 21.6407 17.0222C21.576 17.0569 21.5065 17.0727 21.437 17.0727V17.0711Z" fill="#231815"/>
<path d="M25.9245 26.5627C24.5949 26.5627 23.6033 26.1048 23.5401 26.0748C23.3238 25.9722 23.2306 25.7132 23.3333 25.4953C23.4359 25.279 23.6949 25.1858 23.9112 25.2884C23.9317 25.2979 25.945 26.2185 27.9093 25.2348C28.124 25.1274 28.3862 25.2142 28.4935 25.429C28.6009 25.6437 28.5141 25.9058 28.2993 26.0132C27.4703 26.4269 26.6477 26.5627 25.9245 26.5627Z" fill="#231815"/>
<path d="M10.952 62.6403C10.7309 62.6403 10.5414 62.473 10.5193 62.2487L8.91504 45.9752L5.61645 39.9465C5.50118 39.7365 5.57855 39.4712 5.78856 39.356C5.99857 39.2407 6.26385 39.3181 6.37912 39.5281L9.72035 45.6342C9.74877 45.6863 9.76614 45.7415 9.77246 45.8L11.3862 62.1603C11.4099 62.3987 11.2346 62.6119 10.9962 62.6356C10.982 62.6356 10.9678 62.6372 10.9536 62.6372L10.952 62.6403Z" fill="#231815"/>
<path d="M39.9873 62.6401C39.9731 62.6401 39.9589 62.6401 39.9447 62.6385C39.7062 62.6148 39.5309 62.4016 39.5546 62.1632L41.1684 45.8029C41.1747 45.7444 41.1921 45.6876 41.2205 45.6371L44.5617 39.531C44.677 39.321 44.9407 39.242 45.1523 39.3588C45.3623 39.4741 45.4397 39.7378 45.3244 39.9494L42.0258 45.9781L40.4215 62.2516C40.3994 62.4759 40.2099 62.6432 39.9889 62.6432L39.9873 62.6401Z" fill="#231815"/>
<path d="M3.69942 55.8884C3.69152 55.8884 3.68363 55.8884 3.67573 55.8884C3.4294 55.8758 3.23992 55.6642 3.25255 55.4179L4.01206 41.1418C4.01206 41.1418 4.01206 41.1276 4.01206 41.1213C4.43051 36.929 7.35171 35.8774 7.61067 35.7921L14.9216 33.0588C15.1537 32.9719 15.4111 33.0904 15.4979 33.3209C15.5848 33.553 15.4663 33.8104 15.2358 33.8972L7.91543 36.6337C7.91543 36.6337 7.89964 36.64 7.89174 36.6416C7.78752 36.6748 5.27529 37.5243 4.90422 41.1987L4.1447 55.4636C4.13207 55.7021 3.93469 55.8868 3.69784 55.8868L3.69942 55.8884Z" fill="#231815"/>
<path d="M47.4467 55.8883C47.2099 55.8883 47.0125 55.7036 46.9998 55.4652L46.2403 41.2002C45.8693 37.5258 43.3586 36.6763 43.2512 36.6415C43.2449 36.64 43.2354 36.6368 43.2291 36.6336L35.9087 33.8972C35.6766 33.8103 35.5598 33.553 35.6466 33.3208C35.7335 33.0887 35.9908 32.9719 36.223 33.0587L43.5339 35.792C43.7928 35.8773 46.714 36.9289 47.1325 41.1213C47.1325 41.1276 47.1325 41.1355 47.1325 41.1418L47.892 55.4178C47.9046 55.6641 47.7151 55.8757 47.4688 55.8883C47.4609 55.8883 47.453 55.8883 47.4451 55.8883H47.4467Z" fill="#231815"/>
</g>
</svg>
