<svg width="44" height="42" viewBox="0 0 44 42" fill="none" xmlns="http://www.w3.org/2000/svg">
<path d="M4.0184 15.1454V40.1079V40.6079H4.5184L22 40.6079H39.4816H39.9816V40.1079V15.1454C41.9649 14.8993 43.5 13.2078 43.5 11.1578C43.5 8.93855 41.7009 7.13945 39.4816 7.13945C37.2623 7.13945 35.4632 8.93855 35.4632 11.1578C35.4632 12.0422 35.7547 12.8522 36.2358 13.5107L30.6911 18.9901L23.6711 8.15734C25.0522 7.52511 26.0183 6.14132 26.0183 4.51709C26.0183 2.29898 24.2191 0.5 21.9999 0.5C19.7807 0.5 17.9815 2.29898 17.9815 4.51709C17.9815 6.14131 18.9476 7.5251 20.3287 8.15734L13.3088 18.9901L7.76403 13.5107C8.24502 12.8522 8.53664 12.0422 8.53664 11.1578C8.53664 8.93855 6.73754 7.13945 4.51824 7.13945C2.29891 7.13945 0.5 8.93858 0.5 11.1578C0.5 13.2078 2.03506 14.8993 4.0184 15.1454Z" fill="#229C9A" stroke="#EBEBEB"/>
<path d="M26.276 32.1739V33.9739H18.77V32.4979L23.036 27.4939C23.846 26.5579 24.296 25.7479 24.296 24.8839C24.296 23.7499 23.45 23.1739 22.532 23.1739C21.56 23.1739 20.822 23.7679 20.768 24.8839H18.86C18.86 22.7779 20.552 21.3919 22.604 21.3919C24.728 21.3919 26.366 22.8319 26.366 24.9199C26.366 26.4859 25.286 27.7099 24.494 28.6639L21.56 32.1739H26.276Z" fill="white"/>
</svg>
