<svg width="44" height="42" viewBox="0 0 44 42" fill="none" xmlns="http://www.w3.org/2000/svg">
<path d="M4.0184 15.1454V40.1079V40.6079H4.5184L22 40.6079H39.4816H39.9816V40.1079V15.1454C41.9649 14.8993 43.5 13.2078 43.5 11.1578C43.5 8.93855 41.7009 7.13945 39.4816 7.13945C37.2623 7.13945 35.4632 8.93855 35.4632 11.1578C35.4632 12.0422 35.7547 12.8522 36.2358 13.5107L30.6911 18.9901L23.6711 8.15734C25.0522 7.52511 26.0183 6.14132 26.0183 4.51709C26.0183 2.29898 24.2191 0.5 21.9999 0.5C19.7807 0.5 17.9815 2.29898 17.9815 4.51709C17.9815 6.14131 18.9476 7.5251 20.3287 8.15734L13.3088 18.9901L7.76403 13.5107C8.24502 12.8522 8.53664 12.0422 8.53664 11.1578C8.53664 8.93855 6.73754 7.13945 4.51824 7.13945C2.29891 7.13945 0.5 8.93858 0.5 11.1578C0.5 13.2078 2.03506 14.8993 4.0184 15.1454Z" fill="#229C9A" stroke="#EBEBEB"/>
<path d="M20.38 28.4659V26.6659H21.244C22.54 26.6659 23.242 25.9819 23.242 24.8119C23.242 23.9119 22.54 23.1739 21.478 23.1739C20.47 23.1739 19.804 23.8399 19.714 24.7039H17.806C17.86 22.7059 19.552 21.3919 21.55 21.3919C23.728 21.3919 25.312 22.8859 25.312 24.7579C25.312 26.1079 24.52 27.0439 23.548 27.5299C24.682 28.0339 25.492 29.0059 25.492 30.5359C25.492 32.4979 24.088 34.1359 21.694 34.1359C19.174 34.1359 17.752 32.6959 17.644 30.7339H19.552C19.696 31.6339 20.326 32.3179 21.604 32.3179C22.684 32.3179 23.422 31.5259 23.422 30.4819C23.422 29.2219 22.684 28.4659 21.244 28.4659H20.38Z" fill="white"/>
</svg>
